Version 11 13
{
	Skinned 0
	Bounds 4
	{
		0.00000000 0.42260740 2.43627900 2.51521400
		0.00268555 0.84960940 4.29956100 0.23360550
		0.00024414 0.85034180 4.37744100 0.05698788
		0.00000000 0.42260740 2.43627900 2.51521400
	}
	Mtl 0
	{
		Prim 0
		{
			Idx 126
			{
				0 1 2 2 3 0 4 0 3 5 2 1 1 6 5
				3 7 4 8 4 7 9 5 6 6 10 9 10 8 11
				11 9 10 7 11 8 5 9 12 9 11 13 13 12 9
				11 7 14 14 13 11 7 3 15 15 14 7 16 15 3
				3 2 16 14 15 17 2 5 18 18 16 2 12 18 5
				15 16 19 19 17 15 16 18 20 20 19 16 18 12 21
				21 20 18 22 19 20 22 20 21 22 17 19 23 21 12
				22 21 23 12 13 23 22 24 17 22 23 24 24 23 13
				17 24 14 13 14 24
			}
			Verts 25
			{
				-0.13378910 0.92871090 4.40478500 / -0.75390630 0.64843750 -0.10937500 / 255 255 255 50 / 0.0 0.0 0.0 0.0 / 0.74975590 0.99418640 / 0.0 0.0 / 0.0 0.0 / 0.0 0.0 / 0.0 0.0 / 0.0 0.0
				0.00244141 1.00732400 4.40478500 / 0.18359380 0.97656250 -0.10937500 / 255 255 255 50 / 0.0 0.0 0.0 0.0 / 0.99949650 0.49734500 / 0.0 0.0 / 0.0 0.0 / 0.0 0.0 / 0.0 0.0 / 0.0 0.0
				0.00244141 1.00244100 4.35986300 / 0.01562500 0.96484370 -0.26171870 / 255 255 255 50 / 0.0 0.0 0.0 0.0 / 0.98342900 0.51864620 / 0.0 0.0 / 0.0 0.0 / 0.0 0.0 / 0.0 0.0 / 0.0 0.0
				-0.12939450 0.92626960 4.35986300 / -0.82812500 0.49609370 -0.26171870 / 255 255 255 50 / 0.0 0.0 0.0 0.0 / 0.74171450 0.99949650 / 0.0 0.0 / 0.0 0.0 / 0.0 0.0 / 0.0 0.0 / 0.0 0.0
				-0.13378910 0.77099610 4.40478500 / -0.93750000 -0.32812500 -0.10937500 / 255 255 255 50 / 0.0 0.0 0.0 0.0 / 0.25024410 0.99418640 / 0.0 0.0 / 0.0 0.0 / 0.0 0.0 / 0.0 0.0 / 0.0 0.0
				0.13476560 0.92626960 4.35986300 / 0.84375000 0.46875000 -0.26171870 / 255 255 255 50 / 0.0 0.0 0.0 0.0 / 0.74171450 0.03779602 / 0.0 0.0 / 0.0 0.0 / 0.0 0.0 / 0.0 0.0 / 0.0 0.0
				0.13916020 0.92871090 4.40478500 / 0.93750000 0.32812500 -0.10937500 / 255 255 255 50 / 0.0 0.0 0.0 0.0 / 0.74975590 0.00050354 / 0.0 0.0 / 0.0 0.0 / 0.0 0.0 / 0.0 0.0 / 0.0 0.0
				-0.12939450 0.77343750 4.35986300 / -0.84375000 -0.46875000 -0.26171870 / 255 255 255 50 / 0.0 0.0 0.0 0.0 / 0.25828550 0.99949650 / 0.0 0.0 / 0.0 0.0 / 0.0 0.0 / 0.0 0.0 / 0.0 0.0
				0.00244141 0.69189460 4.40478500 / -0.18359380 -0.97656250 -0.10937500 / 255 255 255 50 / 0.0 0.0 0.0 0.0 / 0.00050354 0.49734500 / 0.0 0.0 / 0.0 0.0 / 0.0 0.0 / 0.0 0.0 / 0.0 0.0
				0.13476560 0.77343750 4.35986300 / 0.82812500 -0.49609370 -0.26171870 / 255 255 255 50 / 0.0 0.0 0.0 0.0 / 0.25828550 0.03779602 / 0.0 0.0 / 0.0 0.0 / 0.0 0.0 / 0.0 0.0 / 0.0 0.0
				0.13916020 0.77099610 4.40478500 / 0.75390630 -0.64843750 -0.10937500 / 255 255 255 50 / 0.0 0.0 0.0 0.0 / 0.25024410 0.00050354 / 0.0 0.0 / 0.0 0.0 / 0.0 0.0 / 0.0 0.0 / 0.0 0.0
				0.00244141 0.69726560 4.35986300 / -0.01562500 -0.96484370 -0.26171870 / 255 255 255 50 / 0.0 0.0 0.0 0.0 / 0.01657105 0.51864620 / 0.0 0.0 / 0.0 0.0 / 0.0 0.0 / 0.0 0.0 / 0.0 0.0
				0.11279300 0.78613280 4.29394500 / 0.78125000 -0.38671880 -0.48828130 / 255 255 255 50 / 0.0 0.0 0.0 0.0 / 0.29846190 0.14897160 / 0.0 0.0 / 0.0 0.0 / 0.0 0.0 / 0.0 0.0 / 0.0 0.0
				0.00244141 0.72265620 4.29394500 / 0.05859375 -0.87109370 -0.48828130 / 255 255 255 50 / 0.0 0.0 0.0 0.0 / 0.09690857 0.54991150 / 0.0 0.0 / 0.0 0.0 / 0.0 0.0 / 0.0 0.0 / 0.0 0.0
				-0.10742190 0.78613280 4.29394500 / -0.72656250 -0.48437500 -0.48828130 / 255 255 255 50 / 0.0 0.0 0.0 0.0 / 0.29846190 0.95086670 / 0.0 0.0 / 0.0 0.0 / 0.0 0.0 / 0.0 0.0 / 0.0 0.0
				-0.10742190 0.91357420 4.29394500 / -0.78125000 0.38671880 -0.48828130 / 255 255 255 50 / 0.0 0.0 0.0 0.0 / 0.70153810 0.95086670 / 0.0 0.0 / 0.0 0.0 / 0.0 0.0 / 0.0 0.0 / 0.0 0.0
				0.00244141 0.97705080 4.29394500 / -0.05859375 0.87109370 -0.48828130 / 255 255 255 50 / 0.0 0.0 0.0 0.0 / 0.90309140 0.54991150 / 0.0 0.0 / 0.0 0.0 / 0.0 0.0 / 0.0 0.0 / 0.0 0.0
				-0.06738281 0.89013670 4.23584000 / -0.63281250 0.22656250 -0.74218750 / 255 255 255 50 / 0.0 0.0 0.0 0.0 / 0.62763980 0.83148200 / 0.0 0.0 / 0.0 0.0 / 0.0 0.0 / 0.0 0.0 / 0.0 0.0
				0.11279300 0.91357420 4.29394500 / 0.72656250 0.48437500 -0.48828130 / 255 255 255 50 / 0.0 0.0 0.0 0.0 / 0.70153810 0.14897160 / 0.0 0.0 / 0.0 0.0 / 0.0 0.0 / 0.0 0.0 / 0.0 0.0
				0.00244141 0.93017580 4.23584000 / -0.12109380 0.66015630 -0.74218750 / 255 255 255 50 / 0.0 0.0 0.0 0.0 / 0.75527960 0.57756040 / 0.0 0.0 / 0.0 0.0 / 0.0 0.0 / 0.0 0.0 / 0.0 0.0
				0.07226561 0.89013670 4.23584000 / 0.51171880 0.43359380 -0.74218750 / 255 255 255 50 / 0.0 0.0 0.0 0.0 / 0.62763980 0.32363890 / 0.0 0.0 / 0.0 0.0 / 0.0 0.0 / 0.0 0.0 / 0.0 0.0
				0.07226561 0.80957030 4.23584000 / 0.63281250 -0.22656250 -0.74218750 / 255 255 255 50 / 0.0 0.0 0.0 0.0 / 0.37236020 0.32363890 / 0.0 0.0 / 0.0 0.0 / 0.0 0.0 / 0.0 0.0 / 0.0 0.0
				0.00244141 0.84960940 4.19433600 / 0.00000000 0.00000000 -1.00000000 / 255 255 255 50 / 0.0 0.0 0.0 0.0 / 0.49969480 0.59742730 / 0.0 0.0 / 0.0 0.0 / 0.0 0.0 / 0.0 0.0 / 0.0 0.0
				0.00244141 0.76904300 4.23584000 / 0.12109380 -0.66015630 -0.74218750 / 255 255 255 50 / 0.0 0.0 0.0 0.0 / 0.24472050 0.57756040 / 0.0 0.0 / 0.0 0.0 / 0.0 0.0 / 0.0 0.0 / 0.0 0.0
				-0.06738281 0.80957030 4.23584000 / -0.51171880 -0.43359380 -0.74218750 / 255 255 255 50 / 0.0 0.0 0.0 0.0 / 0.37236020 0.83148200 / 0.0 0.0 / 0.0 0.0 / 0.0 0.0 / 0.0 0.0 / 0.0 0.0
			}
		}
	}
	Mtl 1
	{
		Prim 0
		{
			Idx 90
			{
				0 1 2 2 3 0 3 2 4 1 0 5 5 6 1
				4 7 3 7 4 8 9 0 3 0 9 5 7 10 3
				3 10 9 8 11 7 10 7 11 11 8 12 9 10 13
				11 13 10 12 14 11 14 13 11 14 12 15 13 16 9
				5 9 16 13 14 17 15 17 14 17 16 13 17 15 18
				16 19 5 19 16 17 18 19 17 6 5 19 19 18 6
			}
			Verts 20
			{
				-0.03417969 0.83544920 4.37158200 / -0.96484370 -0.19140620 -0.17578120 / 218 218 218 76 / 0.0 0.0 0.0 0.0 / 0.28492740 0.99208070 / 0.0 0.0 / 0.0 0.0 / 0.0 0.0 / 0.0 0.0 / 0.0 0.0
				-0.03417969 0.83544920 4.40527300 / -0.93359370 -0.35546870 0.00000000 / 218 218 218 76 / 0.0 0.0 0.0 0.0 / 0.28492740 0.97534180 / 0.0 0.0 / 0.0 0.0 / 0.0 0.0 / 0.0 0.0 / 0.0 0.0
				-0.03417969 0.86523440 4.40527300 / -0.98437500 0.16406250 0.00000000 / 218 218 218 76 / 0.0 0.0 0.0 0.0 / 0.69851690 0.98275760 / 0.0 0.0 / 0.0 0.0 / 0.0 0.0 / 0.0 0.0 / 0.0 0.0
				-0.03417969 0.86523440 4.37158200 / -0.92968750 0.26953130 -0.24609380 / 218 218 218 76 / 0.0 0.0 0.0 0.0 / 0.69851690 0.99949650 / 0.0 0.0 / 0.0 0.0 / 0.0 0.0 / 0.0 0.0 / 0.0 0.0
				-0.02050781 0.88623060 4.40527300 / -0.51953120 0.85546880 0.00000000 / 218 218 218 76 / 0.0 0.0 0.0 0.0 / 0.98950200 0.79481500 / 0.0 0.0 / 0.0 0.0 / 0.0 0.0 / 0.0 0.0 / 0.0 0.0
				-0.02050781 0.81445310 4.37158200 / -0.35937500 -0.85156250 -0.38671880 / 218 218 218 76 / 0.0 0.0 0.0 0.0 / 0.00050354 0.79380800 / 0.0 0.0 / 0.0 0.0 / 0.0 0.0 / 0.0 0.0 / 0.0 0.0
				-0.02050781 0.81445310 4.40527300 / -0.21093750 -0.97656250 0.00000000 / 218 218 218 76 / 0.0 0.0 0.0 0.0 / 0.00050354 0.77706910 / 0.0 0.0 / 0.0 0.0 / 0.0 0.0 / 0.0 0.0 / 0.0 0.0
				-0.02050781 0.88623060 4.37158200 / -0.24218750 0.93750000 -0.24218750 / 218 218 218 76 / 0.0 0.0 0.0 0.0 / 0.98950200 0.81155390 / 0.0 0.0 / 0.0 0.0 / 0.0 0.0 / 0.0 0.0 / 0.0 0.0
				0.02099609 0.88623060 4.40527300 / 0.21093750 0.97656250 0.00000000 / 218 218 218 76 / 0.0 0.0 0.0 0.0 / 0.99949650 0.20620730 / 0.0 0.0 / 0.0 0.0 / 0.0 0.0 / 0.0 0.0 / 0.0 0.0
				-0.02050781 0.83544920 4.34960900 / -0.35546870 -0.24218750 -0.90234380 / 218 218 218 76 / 0.0 0.0 0.0 0.0 / 0.28820800 0.80969240 / 0.0 0.0 / 0.0 0.0 / 0.0 0.0 / 0.0 0.0 / 0.0 0.0
				-0.02050781 0.86523440 4.34960900 / -0.25390630 0.48046870 -0.83984370 / 218 218 218 76 / 0.0 0.0 0.0 0.0 / 0.70179750 0.81710820 / 0.0 0.0 / 0.0 0.0 / 0.0 0.0 / 0.0 0.0 / 0.0 0.0
				0.02099609 0.88623060 4.37158200 / 0.35937500 0.85156250 -0.38671880 / 218 218 218 76 / 0.0 0.0 0.0 0.0 / 0.99949650 0.22293090 / 0.0 0.0 / 0.0 0.0 / 0.0 0.0 / 0.0 0.0 / 0.0 0.0
				0.03466797 0.86523440 4.40527300 / 0.93359370 0.35546870 0.00000000 / 218 218 218 76 / 0.0 0.0 0.0 0.0 / 0.71507250 0.00791931 / 0.0 0.0 / 0.0 0.0 / 0.0 0.0 / 0.0 0.0 / 0.0 0.0
				0.02099609 0.86523440 4.34960900 / 0.35546870 0.24218750 -0.90234380 / 218 218 218 76 / 0.0 0.0 0.0 0.0 / 0.71179200 0.22851560 / 0.0 0.0 / 0.0 0.0 / 0.0 0.0 / 0.0 0.0 / 0.0 0.0
				0.03466797 0.86523440 4.37158200 / 0.96484370 0.19140620 -0.17578120 / 218 218 218 76 / 0.0 0.0 0.0 0.0 / 0.71507250 0.02465820 / 0.0 0.0 / 0.0 0.0 / 0.0 0.0 / 0.0 0.0 / 0.0 0.0
				0.03466797 0.83544920 4.40527300 / 0.98437500 -0.16406250 0.00000000 / 218 218 218 76 / 0.0 0.0 0.0 0.0 / 0.30148320 0.00050354 / 0.0 0.0 / 0.0 0.0 / 0.0 0.0 / 0.0 0.0 / 0.0 0.0
				0.02099609 0.83544920 4.34960900 / 0.25390630 -0.48046870 -0.83984370 / 218 218 218 76 / 0.0 0.0 0.0 0.0 / 0.29820250 0.22106930 / 0.0 0.0 / 0.0 0.0 / 0.0 0.0 / 0.0 0.0 / 0.0 0.0
				0.03466797 0.83544920 4.37158200 / 0.92968750 -0.26953130 -0.24609380 / 218 218 218 76 / 0.0 0.0 0.0 0.0 / 0.30148320 0.01724243 / 0.0 0.0 / 0.0 0.0 / 0.0 0.0 / 0.0 0.0 / 0.0 0.0
				0.02099609 0.81445310 4.40527300 / 0.51953120 -0.85546880 0.00000000 / 218 218 218 76 / 0.0 0.0 0.0 0.0 / 0.01049805 0.18846130 / 0.0 0.0 / 0.0 0.0 / 0.0 0.0 / 0.0 0.0 / 0.0 0.0
				0.02099609 0.81445310 4.37158200 / 0.24218750 -0.93750000 -0.24218750 / 218 218 218 76 / 0.0 0.0 0.0 0.0 / 0.01049805 0.20518490 / 0.0 0.0 / 0.0 0.0 / 0.0 0.0 / 0.0 0.0 / 0.0 0.0
			}
		}
	}
	Mtl 2
	{
		Prim 0
		{
			Idx 912
			{
				0 1 2 3 4 5 6 7 8 8 9 6 10 11 12
				12 13 10 14 15 16 16 17 14 18 19 20 20 21 18
				22 23 24 24 25 22 26 27 28 28 29 26 29 28 30
				30 31 29 31 30 32 32 33 31 33 32 34 34 35 33
				36 37 38 38 39 36 39 38 40 40 41 39 41 40 42
				42 43 41 43 42 44 44 45 43 46 47 48 48 49 46
				49 48 50 50 51 49 51 50 52 52 53 51 53 52 54
				54 55 53 56 57 58 58 59 56 59 58 60 60 61 59
				61 60 62 62 63 61 64 63 62 62 65 64 66 67 68
				68 69 66 69 68 70 70 71 69 71 70 72 72 73 71
				73 72 74 74 75 73 76 77 78 78 79 76 79 78 80
				80 81 79 81 80 82 82 83 81 83 82 84 84 85 83
				86 87 88 88 89 86 89 88 90 90 91 89 91 90 92
				92 93 91 93 92 94 94 95 93 96 97 98 98 99 96
				99 98 100 100 101 99 101 100 102 102 103 101 104 103 102
				102 105 104 106 107 108 108 109 106 109 108 110 110 111 109
				112 113 114 114 115 112 115 114 116 116 117 115 118 119 120
				120 121 118 121 120 122 122 123 121 124 125 126 126 127 124
				127 126 128 128 129 127 130 131 132 132 133 130 133 132 134
				134 135 133 136 137 138 138 139 136 139 138 140 140 141 139
				142 143 144 144 145 142 145 144 146 146 147 145 148 149 150
				150 151 148 151 150 152 152 153 151 154 155 156 156 157 154
				158 154 157 157 156 159 157 160 158 161 158 160 159 162 157
				160 157 162 162 159 163 160 164 161 165 161 164 162 166 160
				164 160 166 163 167 162 166 162 167 167 163 168 168 169 167
				170 167 169 167 170 166 169 171 170 172 166 170 166 172 164
				173 170 171 170 173 172 171 174 173 175 164 172 164 175 165
				176 165 175 177 172 173 172 177 175 178 173 174 173 178 177
				174 179 178 175 180 176 180 175 177 181 176 180 180 182 181
				177 183 180 182 180 183 183 177 178 183 184 182 178 185 183
				184 183 185 185 178 179 185 186 184 179 187 185 186 185 187
				187 188 186 189 190 191 189 191 192 191 193 192 189 192 194
				195 196 197 195 197 198 197 199 198 195 198 200 201 202 203
				202 204 203 205 201 203 204 206 203 207 205 203 206 208 203
				209 207 203 208 209 203 210 211 212 212 213 210 214 212 211
				215 210 213 211 216 214 213 217 215 218 214 216 219 215 217
				216 220 218 217 221 219 221 218 220 220 219 221 222 223 224
				224 225 222 226 224 223 227 222 225 223 228 226 225 229 227
				230 226 228 231 227 229 228 232 230 229 233 231 233 230 232
				232 231 233 234 235 236 236 237 234 238 236 235 239 234 237
				235 240 238 237 241 239 242 238 240 243 239 241 240 244 242
				241 245 243 245 242 244 244 243 245 246 247 248 248 249 246
				250 248 247 251 246 249 247 252 250 249 253 251 254 250 252
				255 251 253 252 256 254 253 257 255 257 254 256 256 255 257
				258 259 260 260 261 258 262 260 259 263 258 261 259 264 262
				261 265 263 266 262 264 267 263 265 264 268 266 265 269 267
				269 266 268 268 267 269 270 271 272 272 273 270 274 272 271
				275 270 273 271 276 274 273 277 275 278 274 276 279 275 277
				276 280 278 277 281 279 281 278 280 280 279 281 282 283 284
				284 285 282 286 284 283 287 282 285 283 288 286 285 289 287
				290 286 288 291 287 289 288 292 290 289 293 291 293 290 292
				292 291 293 294 295 296 296 297 294 298 296 295 299 294 297
				295 300 298 297 301 299 302 298 300 303 299 301 300 304 302
				301 305 303 305 302 304 304 303 305 306 307 308 308 307 309
				308 310 306 311 306 310 309 312 308 310 313 311 314 311 313
				310 308 315 313 316 314 317 314 316 313 310 318 315 318 310
				316 313 319 318 319 313 316 320 317 309 317 320 320 312 309
				320 316 321 319 321 316 312 320 322 321 322 320 308 312 323
				322 323 312 323 315 308 322 321 324 325 324 321 321 319 325
				324 326 322 323 322 326 327 325 319 319 318 327 326 328 323
				315 323 328 329 327 318 328 329 315 318 315 329
			}
			Verts 330
			{
				0.00000000 0.99462890 4.82812500 / 0.01171875 0.65234380 -0.75781250 / 76 73 73 255 / 0.00000000 0.00000000 0.00000000 0.00000000 / 0.29492190 0.33885190 / 0.0 0.0 / 0.0 0.0 / 0.0 0.0 / 0.0 0.0 / 0.0 0.0
				0.02099609 0.97070320 4.80712900 / -0.01171875 0.65234380 -0.75781250 / 76 73 73 255 / 0.00000000 0.00000000 0.00000000 0.00000000 / 0.29492190 0.33885190 / 0.0 0.0 / 0.0 0.0 / 0.0 0.0 / 0.0 0.0 / 0.0 0.0
				0.00000000 0.94580080 4.78564500 / 0.01171875 0.65234380 -0.75781250 / 76 73 73 255 / 0.00000000 0.00000000 0.00000000 0.00000000 / 0.29492190 0.33885190 / 0.0 0.0 / 0.0 0.0 / 0.0 0.0 / 0.0 0.0 / 0.0 0.0
				-0.02099609 0.97070320 4.80712900 / 0.01171875 0.65234380 -0.75781250 / 51 49 49 255 / 0.00000000 0.00000000 0.00000000 0.00000000 / 0.29492190 0.33885190 / 0.0 0.0 / 0.0 0.0 / 0.0 0.0 / 0.0 0.0 / 0.0 0.0
				0.00000000 0.99462890 4.82812500 / 0.01171875 0.65234380 -0.75781250 / 51 49 49 255 / 0.00000000 0.00000000 0.00000000 0.00000000 / 0.29492190 0.33885190 / 0.0 0.0 / 0.0 0.0 / 0.0 0.0 / 0.0 0.0 / 0.0 0.0
				0.00000000 0.94580080 4.78564500 / 0.01171875 0.65234380 -0.75781250 / 51 49 49 255 / 0.00000000 0.00000000 0.00000000 0.00000000 / 0.29492190 0.33885190 / 0.0 0.0 / 0.0 0.0 / 0.0 0.0 / 0.0 0.0 / 0.0 0.0
				-0.01171875 -0.18310550 3.70214800 / -0.59765620 -0.80078130 0.00000000 / 184 178 178 255 / 0.00000000 0.00000000 0.00000000 0.00000000 / 0.04473877 0.58538820 / 0.0 0.0 / 0.0 0.0 / 0.0 0.0 / 0.0 0.0 / 0.0 0.0
				-0.01171875 -0.18310550 3.54003900 / -0.83984370 -0.54296870 0.00000000 / 182 177 177 255 / 0.00000000 0.00000000 0.00000000 0.00000000 / 0.00352478 0.58538820 / 0.0 0.0 / 0.0 0.0 / 0.0 0.0 / 0.0 0.0 / 0.0 0.0
				0.01318359 -0.18310550 3.54003900 / 0.59765620 -0.80078130 0.00000000 / 189 183 183 255 / 0.00000000 0.00000000 0.00000000 0.00000000 / 0.00352478 0.59625240 / 0.0 0.0 / 0.0 0.0 / 0.0 0.0 / 0.0 0.0 / 0.0 0.0
				0.01318359 -0.18310550 3.70214800 / 0.83984370 -0.54296870 0.00000000 / 198 193 193 255 / 0.00000000 0.00000000 0.00000000 0.00000000 / 0.04473877 0.59625240 / 0.0 0.0 / 0.0 0.0 / 0.0 0.0 / 0.0 0.0 / 0.0 0.0
				-0.01171875 0.18701170 3.54003900 / -0.59765620 0.80078130 0.00000000 / 209 204 204 255 / 0.00000000 0.00000000 0.00000000 0.00000000 / 0.00352478 0.59625240 / 0.0 0.0 / 0.0 0.0 / 0.0 0.0 / 0.0 0.0 / 0.0 0.0
				-0.01171875 0.18701170 3.70214800 / -0.83984370 0.54296870 0.00000000 / 221 216 216 255 / 0.00000000 0.00000000 0.00000000 0.00000000 / 0.04473877 0.59625240 / 0.0 0.0 / 0.0 0.0 / 0.0 0.0 / 0.0 0.0 / 0.0 0.0
				0.01318359 0.18701170 3.70214800 / 0.75000000 0.66015630 0.00000000 / 205 199 199 255 / 0.00000000 0.00000000 0.00000000 0.00000000 / 0.04473877 0.58538820 / 0.0 0.0 / 0.0 0.0 / 0.0 0.0 / 0.0 0.0 / 0.0 0.0
				0.01318359 0.18701170 3.54003900 / 0.75000000 0.66015630 0.00000000 / 198 192 192 255 / 0.00000000 0.00000000 0.00000000 0.00000000 / 0.00352478 0.58538820 / 0.0 0.0 / 0.0 0.0 / 0.0 0.0 / 0.0 0.0 / 0.0 0.0
				-0.01074219 -0.16943360 4.10595700 / -0.59765620 -0.80078130 0.00000000 / 184 179 179 255 / 0.00000000 0.00000000 0.00000000 0.00000000 / 0.13076780 0.75723270 / 0.0 0.0 / 0.0 0.0 / 0.0 0.0 / 0.0 0.0 / 0.0 0.0
				-0.01074219 -0.16943360 4.02734400 / -0.83984370 -0.54687500 0.00000000 / 178 173 173 255 / 0.00000000 0.00000000 0.00000000 0.00000000 / 0.11550900 0.75723270 / 0.0 0.0 / 0.0 0.0 / 0.0 0.0 / 0.0 0.0 / 0.0 0.0
				0.01220703 -0.16943360 4.02734400 / 0.59765620 -0.80078130 0.00000000 / 199 194 194 255 / 0.00000000 0.00000000 0.00000000 0.00000000 / 0.11550900 0.76809690 / 0.0 0.0 / 0.0 0.0 / 0.0 0.0 / 0.0 0.0 / 0.0 0.0
				0.01220703 -0.16943360 4.10595700 / 0.83984370 -0.54687500 0.00000000 / 220 215 215 255 / 0.00000000 0.00000000 0.00000000 0.00000000 / 0.13076780 0.76809690 / 0.0 0.0 / 0.0 0.0 / 0.0 0.0 / 0.0 0.0 / 0.0 0.0
				-0.01074219 0.17285160 4.02734400 / -0.59765620 0.80078130 0.00000000 / 170 164 164 255 / 0.00000000 0.00000000 0.00000000 0.00000000 / 0.11550900 0.76809690 / 0.0 0.0 / 0.0 0.0 / 0.0 0.0 / 0.0 0.0 / 0.0 0.0
				-0.01074219 0.17285160 4.10595700 / -0.83984370 0.54687500 0.00000000 / 169 164 164 255 / 0.00000000 0.00000000 0.00000000 0.00000000 / 0.13076780 0.76809690 / 0.0 0.0 / 0.0 0.0 / 0.0 0.0 / 0.0 0.0 / 0.0 0.0
				0.01220703 0.17285160 4.10595700 / 0.75000000 0.66015630 0.00000000 / 179 174 174 255 / 0.00000000 0.00000000 0.00000000 0.00000000 / 0.13076780 0.75723270 / 0.0 0.0 / 0.0 0.0 / 0.0 0.0 / 0.0 0.0 / 0.0 0.0
				0.01220703 0.17285160 4.02734400 / 0.75000000 0.66015630 0.00000000 / 178 173 173 255 / 0.00000000 0.00000000 0.00000000 0.00000000 / 0.11550900 0.75723270 / 0.0 0.0 / 0.0 0.0 / 0.0 0.0 / 0.0 0.0 / 0.0 0.0
				0.00000000 0.14843750 3.40136700 / 0.00000000 0.00000000 -1.00000000 / 0 0 0 255 / 0.00000000 0.00000000 0.00000000 0.00000000 / 0.29492190 0.33885190 / 0.0 0.0 / 0.0 0.0 / 0.0 0.0 / 0.0 0.0 / 0.0 0.0
				0.02099609 0.12744140 3.40136700 / 0.00000000 0.00000000 -1.00000000 / 0 0 0 255 / 0.00000000 0.00000000 0.00000000 0.00000000 / 0.29492190 0.33885190 / 0.0 0.0 / 0.0 0.0 / 0.0 0.0 / 0.0 0.0 / 0.0 0.0
				0.00000000 0.10644530 3.40136700 / 0.00000000 0.00000000 -1.00000000 / 0 0 0 255 / 0.00000000 0.00000000 0.00000000 0.00000000 / 0.29492190 0.33885190 / 0.0 0.0 / 0.0 0.0 / 0.0 0.0 / 0.0 0.0 / 0.0 0.0
				-0.02099609 0.12744140 3.40136700 / 0.00000000 0.00000000 -1.00000000 / 0 0 0 255 / 0.00000000 0.00000000 0.00000000 0.00000000 / 0.29492190 0.33885190 / 0.0 0.0 / 0.0 0.0 / 0.0 0.0 / 0.0 0.0 / 0.0 0.0
				-0.01171875 0.18701170 3.70214800 / -0.83984370 0.54296870 0.00000000 / 221 216 216 255 / 0.00000000 0.00000000 0.00000000 0.00000000 / 0.04473877 0.48068240 / 0.0 0.0 / 0.0 0.0 / 0.0 0.0 / 0.0 0.0 / 0.0 0.0
				-0.01171875 0.18701170 3.54003900 / -0.59765620 0.80078130 0.00000000 / 209 204 204 255 / 0.00000000 0.00000000 0.00000000 0.00000000 / 0.00352478 0.48068240 / 0.0 0.0 / 0.0 0.0 / 0.0 0.0 / 0.0 0.0 / 0.0 0.0
				-0.03466797 0.13232420 3.54003900 / -0.96093750 0.27734380 0.00000000 / 225 220 220 255 / 0.00000000 0.00000000 0.00000000 0.00000000 / 0.00352478 0.51306150 / 0.0 0.0 / 0.0 0.0 / 0.0 0.0 / 0.0 0.0 / 0.0 0.0
				-0.03466797 0.13232420 3.70214800 / -0.97656250 0.21484370 0.00000000 / 221 216 216 255 / 0.00000000 0.00000000 0.00000000 0.00000000 / 0.04473877 0.51306150 / 0.0 0.0 / 0.0 0.0 / 0.0 0.0 / 0.0 0.0 / 0.0 0.0
				-0.05761719 0.00195313 3.54003900 / -1.00000000 0.05859375 0.00000000 / 209 204 204 255 / 0.00000000 0.00000000 0.00000000 0.00000000 / 0.00352478 0.59082030 / 0.0 0.0 / 0.0 0.0 / 0.0 0.0 / 0.0 0.0 / 0.0 0.0
				-0.05761719 0.00195313 3.70214800 / -1.00000000 -0.05859375 0.00000000 / 196 191 191 255 / 0.00000000 0.00000000 0.00000000 0.00000000 / 0.04473877 0.59082030 / 0.0 0.0 / 0.0 0.0 / 0.0 0.0 / 0.0 0.0 / 0.0 0.0
				-0.03466797 -0.12890630 3.54003900 / -0.97656250 -0.21484370 0.00000000 / 187 181 181 255 / 0.00000000 0.00000000 0.00000000 0.00000000 / 0.00352478 0.66857910 / 0.0 0.0 / 0.0 0.0 / 0.0 0.0 / 0.0 0.0 / 0.0 0.0
				-0.03466797 -0.12890630 3.70214800 / -0.96093750 -0.27734380 0.00000000 / 183 177 177 255 / 0.00000000 0.00000000 0.00000000 0.00000000 / 0.04473877 0.66857910 / 0.0 0.0 / 0.0 0.0 / 0.0 0.0 / 0.0 0.0 / 0.0 0.0
				-0.01171875 -0.18310550 3.54003900 / -0.83984370 -0.54296870 0.00000000 / 182 177 177 255 / 0.00000000 0.00000000 0.00000000 0.00000000 / 0.00352478 0.70097350 / 0.0 0.0 / 0.0 0.0 / 0.0 0.0 / 0.0 0.0 / 0.0 0.0
				-0.01171875 -0.18310550 3.70214800 / -0.59765620 -0.80078130 0.00000000 / 184 178 178 255 / 0.00000000 0.00000000 0.00000000 0.00000000 / 0.04473877 0.70097350 / 0.0 0.0 / 0.0 0.0 / 0.0 0.0 / 0.0 0.0 / 0.0 0.0
				-0.01171875 0.18701170 3.54003900 / 0.00000000 0.00000000 -1.00000000 / 1 1 1 255 / 0.00000000 0.00000000 0.00000000 0.00000000 / 0.22747800 0.88923640 / 0.0 0.0 / 0.0 0.0 / 0.0 0.0 / 0.0 0.0 / 0.0 0.0
				0.01318359 0.18701170 3.54003900 / 0.00000000 0.00000000 -1.00000000 / 1 1 1 255 / 0.00000000 0.00000000 0.00000000 0.00000000 / 0.22747800 0.89862060 / 0.0 0.0 / 0.0 0.0 / 0.0 0.0 / 0.0 0.0 / 0.0 0.0
				0.03613281 0.13232420 3.54003900 / 0.00000000 0.00000000 -1.00000000 / 2 1 1 255 / 0.00000000 0.00000000 0.00000000 0.00000000 / 0.26103210 0.90724180 / 0.0 0.0 / 0.0 0.0 / 0.0 0.0 / 0.0 0.0 / 0.0 0.0
				-0.03466797 0.13232420 3.54003900 / 0.00000000 0.00000000 -1.00000000 / 2 2 2 255 / 0.00000000 0.00000000 0.00000000 0.00000000 / 0.26103210 0.88060000 / 0.0 0.0 / 0.0 0.0 / 0.0 0.0 / 0.0 0.0 / 0.0 0.0
				0.05908203 0.00195313 3.54003900 / 0.00000000 0.00000000 -1.00000000 / 3 3 3 255 / 0.00000000 0.00000000 0.00000000 0.00000000 / 0.34158330 0.91596990 / 0.0 0.0 / 0.0 0.0 / 0.0 0.0 / 0.0 0.0 / 0.0 0.0
				-0.05761719 0.00195313 3.54003900 / 0.00000000 0.00000000 -1.00000000 / 3 3 3 255 / 0.00000000 0.00000000 0.00000000 0.00000000 / 0.34158330 0.87188720 / 0.0 0.0 / 0.0 0.0 / 0.0 0.0 / 0.0 0.0 / 0.0 0.0
				0.03613281 -0.12890630 3.54003900 / 0.00000000 0.00000000 -1.00000000 / 2 2 2 255 / 0.00000000 0.00000000 0.00000000 0.00000000 / 0.42214970 0.90724180 / 0.0 0.0 / 0.0 0.0 / 0.0 0.0 / 0.0 0.0 / 0.0 0.0
				-0.03466797 -0.12890630 3.54003900 / 0.00000000 0.00000000 -1.00000000 / 1 1 1 255 / 0.00000000 0.00000000 0.00000000 0.00000000 / 0.42214970 0.88060000 / 0.0 0.0 / 0.0 0.0 / 0.0 0.0 / 0.0 0.0 / 0.0 0.0
				0.01318359 -0.18310550 3.54003900 / 0.00000000 0.00000000 -1.00000000 / 1 1 1 255 / 0.00000000 0.00000000 0.00000000 0.00000000 / 0.45570370 0.89862060 / 0.0 0.0 / 0.0 0.0 / 0.0 0.0 / 0.0 0.0 / 0.0 0.0
				-0.01171875 -0.18310550 3.54003900 / 0.00000000 0.00000000 -1.00000000 / 0 0 0 255 / 0.00000000 0.00000000 0.00000000 0.00000000 / 0.45570370 0.88923640 / 0.0 0.0 / 0.0 0.0 / 0.0 0.0 / 0.0 0.0 / 0.0 0.0
				-0.01171875 -0.18310550 3.70214800 / 0.00000000 0.00000000 1.00000000 / 252 247 247 255 / 0.00000000 0.00000000 0.00000000 0.00000000 / 0.45570370 0.89862060 / 0.0 0.0 / 0.0 0.0 / 0.0 0.0 / 0.0 0.0 / 0.0 0.0
				0.01318359 -0.18310550 3.70214800 / 0.00000000 0.00000000 1.00000000 / 255 250 250 255 / 0.00000000 0.00000000 0.00000000 0.00000000 / 0.45570370 0.88923640 / 0.0 0.0 / 0.0 0.0 / 0.0 0.0 / 0.0 0.0 / 0.0 0.0
				0.03613281 -0.12890630 3.70214800 / 0.00000000 0.00000000 1.00000000 / 249 244 244 255 / 0.00000000 0.00000000 0.00000000 0.00000000 / 0.42214970 0.88060000 / 0.0 0.0 / 0.0 0.0 / 0.0 0.0 / 0.0 0.0 / 0.0 0.0
				-0.03466797 -0.12890630 3.70214800 / 0.00000000 0.00000000 1.00000000 / 241 236 236 255 / 0.00000000 0.00000000 0.00000000 0.00000000 / 0.42214970 0.90724180 / 0.0 0.0 / 0.0 0.0 / 0.0 0.0 / 0.0 0.0 / 0.0 0.0
				0.05908203 0.00195313 3.70214800 / 0.00000000 0.00000000 1.00000000 / 233 227 227 255 / 0.00000000 0.00000000 0.00000000 0.00000000 / 0.34158330 0.87188720 / 0.0 0.0 / 0.0 0.0 / 0.0 0.0 / 0.0 0.0 / 0.0 0.0
				-0.05761719 0.00195313 3.70214800 / 0.00000000 0.00000000 1.00000000 / 228 223 223 255 / 0.00000000 0.00000000 0.00000000 0.00000000 / 0.34158330 0.91596990 / 0.0 0.0 / 0.0 0.0 / 0.0 0.0 / 0.0 0.0 / 0.0 0.0
				0.03613281 0.13232420 3.70214800 / 0.00000000 0.00000000 1.00000000 / 230 225 225 255 / 0.00000000 0.00000000 0.00000000 0.00000000 / 0.26103210 0.88060000 / 0.0 0.0 / 0.0 0.0 / 0.0 0.0 / 0.0 0.0 / 0.0 0.0
				-0.03466797 0.13232420 3.70214800 / 0.00000000 0.00000000 1.00000000 / 236 231 231 255 / 0.00000000 0.00000000 0.00000000 0.00000000 / 0.26103210 0.90724180 / 0.0 0.0 / 0.0 0.0 / 0.0 0.0 / 0.0 0.0 / 0.0 0.0
				0.01318359 0.18701170 3.70214800 / 0.00000000 0.00000000 1.00000000 / 240 235 235 255 / 0.00000000 0.00000000 0.00000000 0.00000000 / 0.22747800 0.88923640 / 0.0 0.0 / 0.0 0.0 / 0.0 0.0 / 0.0 0.0 / 0.0 0.0
				-0.01171875 0.18701170 3.70214800 / 0.00000000 0.00000000 1.00000000 / 244 239 239 255 / 0.00000000 0.00000000 0.00000000 0.00000000 / 0.22747800 0.89862060 / 0.0 0.0 / 0.0 0.0 / 0.0 0.0 / 0.0 0.0 / 0.0 0.0
				0.01318359 -0.18310550 3.70214800 / 0.83984370 -0.54296870 0.00000000 / 198 193 193 255 / 0.00000000 0.00000000 0.00000000 0.00000000 / 0.04473877 0.48068240 / 0.0 0.0 / 0.0 0.0 / 0.0 0.0 / 0.0 0.0 / 0.0 0.0
				0.01318359 -0.18310550 3.54003900 / 0.59765620 -0.80078130 0.00000000 / 189 183 183 255 / 0.00000000 0.00000000 0.00000000 0.00000000 / 0.00352478 0.48068240 / 0.0 0.0 / 0.0 0.0 / 0.0 0.0 / 0.0 0.0 / 0.0 0.0
				0.03613281 -0.12890630 3.54003900 / 0.96093750 -0.27734380 0.00000000 / 210 205 205 255 / 0.00000000 0.00000000 0.00000000 0.00000000 / 0.00352478 0.51306150 / 0.0 0.0 / 0.0 0.0 / 0.0 0.0 / 0.0 0.0 / 0.0 0.0
				0.03613281 -0.12890630 3.70214800 / 0.97656250 -0.21484370 0.00000000 / 221 216 216 255 / 0.00000000 0.00000000 0.00000000 0.00000000 / 0.04473877 0.51306150 / 0.0 0.0 / 0.0 0.0 / 0.0 0.0 / 0.0 0.0 / 0.0 0.0
				0.05908203 0.00195313 3.54003900 / 1.00000000 -0.05859375 0.00000000 / 228 222 222 255 / 0.00000000 0.00000000 0.00000000 0.00000000 / 0.00352478 0.59082030 / 0.0 0.0 / 0.0 0.0 / 0.0 0.0 / 0.0 0.0 / 0.0 0.0
				0.05908203 0.00195313 3.70214800 / 1.00000000 0.05859375 0.00000000 / 229 224 224 255 / 0.00000000 0.00000000 0.00000000 0.00000000 / 0.04473877 0.59082030 / 0.0 0.0 / 0.0 0.0 / 0.0 0.0 / 0.0 0.0 / 0.0 0.0
				0.03613281 0.13232420 3.54003900 / 0.96875000 0.24218750 0.00000000 / 218 213 213 255 / 0.00000000 0.00000000 0.00000000 0.00000000 / 0.00352478 0.66857910 / 0.0 0.0 / 0.0 0.0 / 0.0 0.0 / 0.0 0.0 / 0.0 0.0
				0.03613281 0.13232420 3.70214800 / 0.96875000 0.24218750 0.00000000 / 220 214 214 255 / 0.00000000 0.00000000 0.00000000 0.00000000 / 0.04473877 0.66857910 / 0.0 0.0 / 0.0 0.0 / 0.0 0.0 / 0.0 0.0 / 0.0 0.0
				0.01318359 0.18701170 3.70214800 / 0.75000000 0.66015630 0.00000000 / 205 199 199 255 / 0.00000000 0.00000000 0.00000000 0.00000000 / 0.04473877 0.70097350 / 0.0 0.0 / 0.0 0.0 / 0.0 0.0 / 0.0 0.0 / 0.0 0.0
				0.01318359 0.18701170 3.54003900 / 0.75000000 0.66015630 0.00000000 / 198 192 192 255 / 0.00000000 0.00000000 0.00000000 0.00000000 / 0.00352478 0.70097350 / 0.0 0.0 / 0.0 0.0 / 0.0 0.0 / 0.0 0.0 / 0.0 0.0
				-0.01074219 0.17285160 4.10595700 / -0.83984370 0.54687500 0.00000000 / 169 164 164 255 / 0.00000000 0.00000000 0.00000000 0.00000000 / 0.13076780 0.65252680 / 0.0 0.0 / 0.0 0.0 / 0.0 0.0 / 0.0 0.0 / 0.0 0.0
				-0.01074219 0.17285160 4.02734400 / -0.59765620 0.80078130 0.00000000 / 170 164 164 255 / 0.00000000 0.00000000 0.00000000 0.00000000 / 0.11550900 0.65252680 / 0.0 0.0 / 0.0 0.0 / 0.0 0.0 / 0.0 0.0 / 0.0 0.0
				-0.03173828 0.12255860 4.02734400 / -0.96093750 0.27734380 0.00000000 / 170 165 165 255 / 0.00000000 0.00000000 0.00000000 0.00000000 / 0.11550900 0.68490600 / 0.0 0.0 / 0.0 0.0 / 0.0 0.0 / 0.0 0.0 / 0.0 0.0
				-0.03173828 0.12255860 4.10595700 / -0.97656250 0.21484370 0.00000000 / 172 167 167 255 / 0.00000000 0.00000000 0.00000000 0.00000000 / 0.13076780 0.68490600 / 0.0 0.0 / 0.0 0.0 / 0.0 0.0 / 0.0 0.0 / 0.0 0.0
				-0.05322266 0.00195313 4.02734400 / -1.00000000 0.05859375 0.00000000 / 175 169 169 255 / 0.00000000 0.00000000 0.00000000 0.00000000 / 0.11550900 0.76266480 / 0.0 0.0 / 0.0 0.0 / 0.0 0.0 / 0.0 0.0 / 0.0 0.0
				-0.05322266 0.00195313 4.10595700 / -1.00000000 -0.05859375 0.00000000 / 176 171 171 255 / 0.00000000 0.00000000 0.00000000 0.00000000 / 0.13076780 0.76266480 / 0.0 0.0 / 0.0 0.0 / 0.0 0.0 / 0.0 0.0 / 0.0 0.0
				-0.03173828 -0.11914060 4.02734400 / -0.97656250 -0.21484370 0.00000000 / 177 172 172 255 / 0.00000000 0.00000000 0.00000000 0.00000000 / 0.11550900 0.84042360 / 0.0 0.0 / 0.0 0.0 / 0.0 0.0 / 0.0 0.0 / 0.0 0.0
				-0.03173828 -0.11914060 4.10595700 / -0.96093750 -0.27734380 0.00000000 / 177 172 172 255 / 0.00000000 0.00000000 0.00000000 0.00000000 / 0.13076780 0.84042360 / 0.0 0.0 / 0.0 0.0 / 0.0 0.0 / 0.0 0.0 / 0.0 0.0
				-0.01074219 -0.16943360 4.02734400 / -0.83984370 -0.54687500 0.00000000 / 178 173 173 255 / 0.00000000 0.00000000 0.00000000 0.00000000 / 0.11550900 0.87281800 / 0.0 0.0 / 0.0 0.0 / 0.0 0.0 / 0.0 0.0 / 0.0 0.0
				-0.01074219 -0.16943360 4.10595700 / -0.59765620 -0.80078130 0.00000000 / 184 179 179 255 / 0.00000000 0.00000000 0.00000000 0.00000000 / 0.13076780 0.87281800 / 0.0 0.0 / 0.0 0.0 / 0.0 0.0 / 0.0 0.0 / 0.0 0.0
				-0.01074219 0.17285160 4.02734400 / 0.00000000 0.00000000 -1.00000000 / 156 151 151 255 / 0.00000000 0.00000000 0.00000000 0.00000000 / 0.22747800 0.88923640 / 0.0 0.0 / 0.0 0.0 / 0.0 0.0 / 0.0 0.0 / 0.0 0.0
				0.01220703 0.17285160 4.02734400 / 0.00000000 0.00000000 -1.00000000 / 146 141 141 255 / 0.00000000 0.00000000 0.00000000 0.00000000 / 0.22747800 0.89862060 / 0.0 0.0 / 0.0 0.0 / 0.0 0.0 / 0.0 0.0 / 0.0 0.0
				0.03369141 0.12255860 4.02734400 / 0.00000000 0.00000000 -1.00000000 / 161 156 156 255 / 0.00000000 0.00000000 0.00000000 0.00000000 / 0.26103210 0.90724180 / 0.0 0.0 / 0.0 0.0 / 0.0 0.0 / 0.0 0.0 / 0.0 0.0
				-0.03173828 0.12255860 4.02734400 / 0.00000000 0.00000000 -1.00000000 / 163 158 158 255 / 0.00000000 0.00000000 0.00000000 0.00000000 / 0.26103210 0.88060000 / 0.0 0.0 / 0.0 0.0 / 0.0 0.0 / 0.0 0.0 / 0.0 0.0
				0.05468750 0.00195313 4.02734400 / 0.00000000 0.00000000 -1.00000000 / 147 143 143 255 / 0.00000000 0.00000000 0.00000000 0.00000000 / 0.34158330 0.91596990 / 0.0 0.0 / 0.0 0.0 / 0.0 0.0 / 0.0 0.0 / 0.0 0.0
				-0.05322266 0.00195313 4.02734400 / 0.00000000 0.00000000 -1.00000000 / 114 109 109 255 / 0.00000000 0.00000000 0.00000000 0.00000000 / 0.34158330 0.87188720 / 0.0 0.0 / 0.0 0.0 / 0.0 0.0 / 0.0 0.0 / 0.0 0.0
				0.03369141 -0.11914060 4.02734400 / 0.00000000 0.00000000 -1.00000000 / 71 68 68 255 / 0.00000000 0.00000000 0.00000000 0.00000000 / 0.42214970 0.90724180 / 0.0 0.0 / 0.0 0.0 / 0.0 0.0 / 0.0 0.0 / 0.0 0.0
				-0.03173828 -0.11914060 4.02734400 / 0.00000000 0.00000000 -1.00000000 / 37 35 35 255 / 0.00000000 0.00000000 0.00000000 0.00000000 / 0.42214970 0.88060000 / 0.0 0.0 / 0.0 0.0 / 0.0 0.0 / 0.0 0.0 / 0.0 0.0
				0.01220703 -0.16943360 4.02734400 / 0.00000000 0.00000000 -1.00000000 / 24 23 23 255 / 0.00000000 0.00000000 0.00000000 0.00000000 / 0.45570370 0.89862060 / 0.0 0.0 / 0.0 0.0 / 0.0 0.0 / 0.0 0.0 / 0.0 0.0
				-0.01074219 -0.16943360 4.02734400 / 0.00000000 0.00000000 -1.00000000 / 19 18 18 255 / 0.00000000 0.00000000 0.00000000 0.00000000 / 0.45570370 0.88923640 / 0.0 0.0 / 0.0 0.0 / 0.0 0.0 / 0.0 0.0 / 0.0 0.0
				-0.01074219 -0.16943360 4.10595700 / 0.00000000 0.00000000 1.00000000 / 255 255 255 255 / 0.00000000 0.00000000 0.00000000 0.00000000 / 0.45570370 0.89862060 / 0.0 0.0 / 0.0 0.0 / 0.0 0.0 / 0.0 0.0 / 0.0 0.0
				0.01220703 -0.16943360 4.10595700 / 0.00000000 0.00000000 1.00000000 / 255 255 255 255 / 0.00000000 0.00000000 0.00000000 0.00000000 / 0.45570370 0.88923640 / 0.0 0.0 / 0.0 0.0 / 0.0 0.0 / 0.0 0.0 / 0.0 0.0
				0.03369141 -0.11914060 4.10595700 / 0.00000000 0.00000000 1.00000000 / 255 255 255 255 / 0.00000000 0.00000000 0.00000000 0.00000000 / 0.42214970 0.88060000 / 0.0 0.0 / 0.0 0.0 / 0.0 0.0 / 0.0 0.0 / 0.0 0.0
				-0.03173828 -0.11914060 4.10595700 / 0.00000000 0.00000000 1.00000000 / 255 255 255 255 / 0.00000000 0.00000000 0.00000000 0.00000000 / 0.42214970 0.90724180 / 0.0 0.0 / 0.0 0.0 / 0.0 0.0 / 0.0 0.0 / 0.0 0.0
				0.05468750 0.00195313 4.10595700 / 0.00000000 0.00000000 1.00000000 / 254 249 249 255 / 0.00000000 0.00000000 0.00000000 0.00000000 / 0.34158330 0.87188720 / 0.0 0.0 / 0.0 0.0 / 0.0 0.0 / 0.0 0.0 / 0.0 0.0
				-0.05322266 0.00195313 4.10595700 / 0.00000000 0.00000000 1.00000000 / 249 244 244 255 / 0.00000000 0.00000000 0.00000000 0.00000000 / 0.34158330 0.91596990 / 0.0 0.0 / 0.0 0.0 / 0.0 0.0 / 0.0 0.0 / 0.0 0.0
				0.03369141 0.12255860 4.10595700 / 0.00000000 0.00000000 1.00000000 / 245 240 240 255 / 0.00000000 0.00000000 0.00000000 0.00000000 / 0.26103210 0.88060000 / 0.0 0.0 / 0.0 0.0 / 0.0 0.0 / 0.0 0.0 / 0.0 0.0
				-0.03173828 0.12255860 4.10595700 / 0.00000000 0.00000000 1.00000000 / 245 240 240 255 / 0.00000000 0.00000000 0.00000000 0.00000000 / 0.26103210 0.90724180 / 0.0 0.0 / 0.0 0.0 / 0.0 0.0 / 0.0 0.0 / 0.0 0.0
				0.01220703 0.17285160 4.10595700 / 0.00000000 0.00000000 1.00000000 / 245 240 240 255 / 0.00000000 0.00000000 0.00000000 0.00000000 / 0.22747800 0.88923640 / 0.0 0.0 / 0.0 0.0 / 0.0 0.0 / 0.0 0.0 / 0.0 0.0
				-0.01074219 0.17285160 4.10595700 / 0.00000000 0.00000000 1.00000000 / 246 241 241 255 / 0.00000000 0.00000000 0.00000000 0.00000000 / 0.22747800 0.89862060 / 0.0 0.0 / 0.0 0.0 / 0.0 0.0 / 0.0 0.0 / 0.0 0.0
				0.01220703 -0.16943360 4.10595700 / 0.83984370 -0.54687500 0.00000000 / 220 215 215 255 / 0.00000000 0.00000000 0.00000000 0.00000000 / 0.13076780 0.65252680 / 0.0 0.0 / 0.0 0.0 / 0.0 0.0 / 0.0 0.0 / 0.0 0.0
				0.01220703 -0.16943360 4.02734400 / 0.59765620 -0.80078130 0.00000000 / 199 194 194 255 / 0.00000000 0.00000000 0.00000000 0.00000000 / 0.11550900 0.65252680 / 0.0 0.0 / 0.0 0.0 / 0.0 0.0 / 0.0 0.0 / 0.0 0.0
				0.03369141 -0.11914060 4.02734400 / 0.96093750 -0.27734380 0.00000000 / 240 234 234 255 / 0.00000000 0.00000000 0.00000000 0.00000000 / 0.11550900 0.68490600 / 0.0 0.0 / 0.0 0.0 / 0.0 0.0 / 0.0 0.0 / 0.0 0.0
				0.03369141 -0.11914060 4.10595700 / 0.97656250 -0.21484370 0.00000000 / 250 246 246 255 / 0.00000000 0.00000000 0.00000000 0.00000000 / 0.13076780 0.68490600 / 0.0 0.0 / 0.0 0.0 / 0.0 0.0 / 0.0 0.0 / 0.0 0.0
				0.05468750 0.00195313 4.02734400 / 1.00000000 -0.05859375 0.00000000 / 249 244 244 255 / 0.00000000 0.00000000 0.00000000 0.00000000 / 0.11550900 0.76266480 / 0.0 0.0 / 0.0 0.0 / 0.0 0.0 / 0.0 0.0 / 0.0 0.0
				0.05468750 0.00195313 4.10595700 / 1.00000000 0.05859375 0.00000000 / 237 232 232 255 / 0.00000000 0.00000000 0.00000000 0.00000000 / 0.13076780 0.76266480 / 0.0 0.0 / 0.0 0.0 / 0.0 0.0 / 0.0 0.0 / 0.0 0.0
				0.03369141 0.12255860 4.02734400 / 0.96875000 0.24218750 0.00000000 / 209 203 203 255 / 0.00000000 0.00000000 0.00000000 0.00000000 / 0.11550900 0.84042360 / 0.0 0.0 / 0.0 0.0 / 0.0 0.0 / 0.0 0.0 / 0.0 0.0
				0.03369141 0.12255860 4.10595700 / 0.96875000 0.24218750 0.00000000 / 202 197 197 255 / 0.00000000 0.00000000 0.00000000 0.00000000 / 0.13076780 0.84042360 / 0.0 0.0 / 0.0 0.0 / 0.0 0.0 / 0.0 0.0 / 0.0 0.0
				0.01220703 0.17285160 4.10595700 / 0.75000000 0.66015630 0.00000000 / 179 174 174 255 / 0.00000000 0.00000000 0.00000000 0.00000000 / 0.13076780 0.87281800 / 0.0 0.0 / 0.0 0.0 / 0.0 0.0 / 0.0 0.0 / 0.0 0.0
				0.01220703 0.17285160 4.02734400 / 0.75000000 0.66015630 0.00000000 / 178 173 173 255 / 0.00000000 0.00000000 0.00000000 0.00000000 / 0.11550900 0.87281800 / 0.0 0.0 / 0.0 0.0 / 0.0 0.0 / 0.0 0.0 / 0.0 0.0
				0.08593750 -0.03515625 0.00000000 / 1.00000000 0.00390625 0.01171875 / 204 199 199 255 / 0.00000000 0.00000000 0.00000000 0.00000000 / 0.29621890 0.43077090 / 0.0 0.0 / 0.0 0.0 / 0.0 0.0 / 0.0 0.0 / 0.0 0.0
				0.08593750 0.03515625 0.00000000 / 1.00000000 0.00390625 0.01171875 / 206 201 201 255 / 0.00000000 0.00000000 0.00000000 0.00000000 / 0.29621890 0.46916200 / 0.0 0.0 / 0.0 0.0 / 0.0 0.0 / 0.0 0.0 / 0.0 0.0
				0.06445312 0.02636719 2.06494100 / 1.00000000 0.00390625 0.01171875 / 202 197 197 255 / 0.00000000 0.00000000 0.00000000 0.00000000 / 0.93603510 0.46934510 / 0.0 0.0 / 0.0 0.0 / 0.0 0.0 / 0.0 0.0 / 0.0 0.0
				0.06494140 -0.02636719 2.06494100 / 1.00000000 0.00390625 0.01171875 / 198 192 192 255 / 0.00000000 0.00000000 0.00000000 0.00000000 / 0.93603510 0.43083190 / 0.0 0.0 / 0.0 0.0 / 0.0 0.0 / 0.0 0.0 / 0.0 0.0
				0.04345703 0.01757812 4.13037100 / 1.00000000 0.00390625 0.01171875 / 195 190 190 255 / 0.00000000 0.00000000 0.00000000 0.00000000 / 0.29518130 0.46954350 / 0.0 0.0 / 0.0 0.0 / 0.0 0.0 / 0.0 0.0 / 0.0 0.0
				0.04345703 -0.01757812 4.13037100 / 1.00000000 0.00390625 0.01171875 / 192 186 186 255 / 0.00000000 0.00000000 0.00000000 0.00000000 / 0.29518130 0.43089290 / 0.0 0.0 / 0.0 0.0 / 0.0 0.0 / 0.0 0.0 / 0.0 0.0
				0.08593750 0.03515625 0.00000000 / 0.70312500 0.71093750 0.01171875 / 205 200 200 255 / 0.00000000 0.00000000 0.00000000 0.00000000 / 0.29621890 0.46916200 / 0.0 0.0 / 0.0 0.0 / 0.0 0.0 / 0.0 0.0 / 0.0 0.0
				0.03613281 0.08447265 0.00000000 / 0.70312500 0.71093750 0.01171875 / 203 198 198 255 / 0.00000000 0.00000000 0.00000000 0.00000000 / 0.29621890 0.50747680 / 0.0 0.0 / 0.0 0.0 / 0.0 0.0 / 0.0 0.0 / 0.0 0.0
				0.02734375 0.06347657 2.06494100 / 0.70312500 0.71093750 0.01171875 / 207 201 201 255 / 0.00000000 0.00000000 0.00000000 0.00000000 / 0.93603510 0.50770570 / 0.0 0.0 / 0.0 0.0 / 0.0 0.0 / 0.0 0.0 / 0.0 0.0
				0.06445312 0.02636719 2.06494100 / 0.70312500 0.71093750 0.01171875 / 210 204 204 255 / 0.00000000 0.00000000 0.00000000 0.00000000 / 0.93603510 0.46934510 / 0.0 0.0 / 0.0 0.0 / 0.0 0.0 / 0.0 0.0 / 0.0 0.0
				0.01855469 0.04248047 4.13037100 / 0.70312500 0.71093750 0.01171875 / 211 205 205 255 / 0.00000000 0.00000000 0.00000000 0.00000000 / 0.29518130 0.50793460 / 0.0 0.0 / 0.0 0.0 / 0.0 0.0 / 0.0 0.0 / 0.0 0.0
				0.04345703 0.01757812 4.13037100 / 0.70312500 0.71093750 0.01171875 / 211 206 206 255 / 0.00000000 0.00000000 0.00000000 0.00000000 / 0.29518130 0.46954350 / 0.0 0.0 / 0.0 0.0 / 0.0 0.0 / 0.0 0.0 / 0.0 0.0
				0.03613281 0.08447265 0.00000000 / -0.00390625 1.00000000 0.01171875 / 212 206 206 255 / 0.00000000 0.00000000 0.00000000 0.00000000 / 0.29621890 0.50747680 / 0.0 0.0 / 0.0 0.0 / 0.0 0.0 / 0.0 0.0 / 0.0 0.0
				-0.03417969 0.08447265 0.00000000 / 0.00000000 1.00000000 0.01171875 / 217 212 212 255 / 0.00000000 0.00000000 0.00000000 0.00000000 / 0.29621890 0.54571530 / 0.0 0.0 / 0.0 0.0 / 0.0 0.0 / 0.0 0.0 / 0.0 0.0
				-0.02539063 0.06347657 2.06494100 / -0.00390625 1.00000000 0.01171875 / 205 200 200 255 / 0.00000000 0.00000000 0.00000000 0.00000000 / 0.93603510 0.54585270 / 0.0 0.0 / 0.0 0.0 / 0.0 0.0 / 0.0 0.0 / 0.0 0.0
				0.02734375 0.06347657 2.06494100 / -0.00390625 1.00000000 0.01171875 / 192 186 186 255 / 0.00000000 0.00000000 0.00000000 0.00000000 / 0.93603510 0.50770570 / 0.0 0.0 / 0.0 0.0 / 0.0 0.0 / 0.0 0.0 / 0.0 0.0
				-0.01660156 0.04248047 4.13037100 / -0.00390625 1.00000000 0.01171875 / 184 179 179 255 / 0.00000000 0.00000000 0.00000000 0.00000000 / 0.29518130 0.54600520 / 0.0 0.0 / 0.0 0.0 / 0.0 0.0 / 0.0 0.0 / 0.0 0.0
				0.01855469 0.04248047 4.13037100 / -0.00390625 1.00000000 0.01171875 / 175 170 170 255 / 0.00000000 0.00000000 0.00000000 0.00000000 / 0.29518130 0.50793460 / 0.0 0.0 / 0.0 0.0 / 0.0 0.0 / 0.0 0.0 / 0.0 0.0
				-0.03417969 0.08447265 0.00000000 / -0.70703130 0.70703130 0.01171875 / 185 180 180 255 / 0.00000000 0.00000000 0.00000000 0.00000000 / 0.29621890 0.54571530 / 0.0 0.0 / 0.0 0.0 / 0.0 0.0 / 0.0 0.0 / 0.0 0.0
				-0.08349610 0.03466797 0.00000000 / -0.71093750 0.70312500 0.01171875 / 188 183 183 255 / 0.00000000 0.00000000 0.00000000 0.00000000 / 0.29621890 0.58390810 / 0.0 0.0 / 0.0 0.0 / 0.0 0.0 / 0.0 0.0 / 0.0 0.0
				-0.06250000 0.02587891 2.06494100 / -0.70703130 0.70703130 0.01171875 / 182 177 177 255 / 0.00000000 0.00000000 0.00000000 0.00000000 / 0.93603510 0.58389280 / 0.0 0.0 / 0.0 0.0 / 0.0 0.0 / 0.0 0.0 / 0.0 0.0
				-0.02539063 0.06347657 2.06494100 / -0.70703130 0.70703130 0.01171875 / 176 171 171 255 / 0.00000000 0.00000000 0.00000000 0.00000000 / 0.93603510 0.54585270 / 0.0 0.0 / 0.0 0.0 / 0.0 0.0 / 0.0 0.0 / 0.0 0.0
				-0.04150391 0.01757812 4.13037100 / -0.70703130 0.70703130 0.01171875 / 172 167 167 255 / 0.00000000 0.00000000 0.00000000 0.00000000 / 0.29518130 0.58389280 / 0.0 0.0 / 0.0 0.0 / 0.0 0.0 / 0.0 0.0 / 0.0 0.0
				-0.01660156 0.04248047 4.13037100 / -0.71093750 0.70312500 0.01171875 / 169 164 164 255 / 0.00000000 0.00000000 0.00000000 0.00000000 / 0.29518130 0.54600520 / 0.0 0.0 / 0.0 0.0 / 0.0 0.0 / 0.0 0.0 / 0.0 0.0
				-0.08349610 0.03466797 0.00000000 / -1.00000000 -0.00390625 0.01171875 / 196 191 191 255 / 0.00000000 0.00000000 0.00000000 0.00000000 / 0.29621890 0.58390810 / 0.0 0.0 / 0.0 0.0 / 0.0 0.0 / 0.0 0.0 / 0.0 0.0
				-0.08349610 -0.03564453 0.00000000 / -1.00000000 -0.00390625 0.01171875 / 198 193 193 255 / 0.00000000 0.00000000 0.00000000 0.00000000 / 0.29621890 0.62211610 / 0.0 0.0 / 0.0 0.0 / 0.0 0.0 / 0.0 0.0 / 0.0 0.0
				-0.06250000 -0.02685547 2.06494100 / -1.00000000 -0.00390625 0.01171875 / 195 189 189 255 / 0.00000000 0.00000000 0.00000000 0.00000000 / 0.93603510 0.62197870 / 0.0 0.0 / 0.0 0.0 / 0.0 0.0 / 0.0 0.0 / 0.0 0.0
				-0.06250000 0.02587891 2.06494100 / -1.00000000 -0.00390625 0.01171875 / 191 186 186 255 / 0.00000000 0.00000000 0.00000000 0.00000000 / 0.93603510 0.58389280 / 0.0 0.0 / 0.0 0.0 / 0.0 0.0 / 0.0 0.0 / 0.0 0.0
				-0.04150391 -0.01757812 4.13037100 / -1.00000000 -0.00390625 0.01171875 / 189 184 184 255 / 0.00000000 0.00000000 0.00000000 0.00000000 / 0.29518130 0.62184140 / 0.0 0.0 / 0.0 0.0 / 0.0 0.0 / 0.0 0.0 / 0.0 0.0
				-0.04150391 0.01757812 4.13037100 / -1.00000000 -0.00390625 0.01171875 / 187 182 182 255 / 0.00000000 0.00000000 0.00000000 0.00000000 / 0.29518130 0.58389280 / 0.0 0.0 / 0.0 0.0 / 0.0 0.0 / 0.0 0.0 / 0.0 0.0
				-0.08349610 -0.03564453 0.00000000 / -0.70703130 -0.70703130 0.01171875 / 188 182 182 255 / 0.00000000 0.00000000 0.00000000 0.00000000 / 0.29621890 0.62211610 / 0.0 0.0 / 0.0 0.0 / 0.0 0.0 / 0.0 0.0 / 0.0 0.0
				-0.03369141 -0.08496094 0.00000000 / -0.70703130 -0.70703130 0.01171875 / 187 182 182 255 / 0.00000000 0.00000000 0.00000000 0.00000000 / 0.29621890 0.66038510 / 0.0 0.0 / 0.0 0.0 / 0.0 0.0 / 0.0 0.0 / 0.0 0.0
				-0.02490234 -0.06396484 2.06494100 / -0.70703130 -0.70703130 0.01171875 / 188 183 183 255 / 0.00000000 0.00000000 0.00000000 0.00000000 / 0.93603510 0.66021730 / 0.0 0.0 / 0.0 0.0 / 0.0 0.0 / 0.0 0.0 / 0.0 0.0
				-0.06250000 -0.02685547 2.06494100 / -0.70703130 -0.70703130 0.01171875 / 190 185 185 255 / 0.00000000 0.00000000 0.00000000 0.00000000 / 0.93603510 0.62197870 / 0.0 0.0 / 0.0 0.0 / 0.0 0.0 / 0.0 0.0 / 0.0 0.0
				-0.01660156 -0.04248047 4.13037100 / -0.70703130 -0.70703130 0.01171875 / 191 186 186 255 / 0.00000000 0.00000000 0.00000000 0.00000000 / 0.29518130 0.66003420 / 0.0 0.0 / 0.0 0.0 / 0.0 0.0 / 0.0 0.0 / 0.0 0.0
				-0.04150391 -0.01757812 4.13037100 / -0.70703130 -0.70703130 0.01171875 / 192 187 187 255 / 0.00000000 0.00000000 0.00000000 0.00000000 / 0.29518130 0.62184140 / 0.0 0.0 / 0.0 0.0 / 0.0 0.0 / 0.0 0.0 / 0.0 0.0
				-0.03369141 -0.08496094 0.00000000 / 0.00390625 -1.00000000 0.01171875 / 184 179 179 255 / 0.00000000 0.00000000 0.00000000 0.00000000 / 0.29621890 0.35401920 / 0.0 0.0 / 0.0 0.0 / 0.0 0.0 / 0.0 0.0 / 0.0 0.0
				0.03662109 -0.08496094 0.00000000 / 0.00390625 -1.00000000 0.01171875 / 187 182 182 255 / 0.00000000 0.00000000 0.00000000 0.00000000 / 0.29621890 0.39236450 / 0.0 0.0 / 0.0 0.0 / 0.0 0.0 / 0.0 0.0 / 0.0 0.0
				0.02783203 -0.06347657 2.06494100 / 0.00390625 -1.00000000 0.01171875 / 181 176 176 255 / 0.00000000 0.00000000 0.00000000 0.00000000 / 0.93603510 0.39227290 / 0.0 0.0 / 0.0 0.0 / 0.0 0.0 / 0.0 0.0 / 0.0 0.0
				-0.02490234 -0.06396484 2.06494100 / 0.00390625 -1.00000000 0.01171875 / 175 170 170 255 / 0.00000000 0.00000000 0.00000000 0.00000000 / 0.93603510 0.35383610 / 0.0 0.0 / 0.0 0.0 / 0.0 0.0 / 0.0 0.0 / 0.0 0.0
				0.01855469 -0.04248047 4.13037100 / 0.00390625 -1.00000000 0.01171875 / 172 167 167 255 / 0.00000000 0.00000000 0.00000000 0.00000000 / 0.29518130 0.39218140 / 0.0 0.0 / 0.0 0.0 / 0.0 0.0 / 0.0 0.0 / 0.0 0.0
				-0.01660156 -0.04248047 4.13037100 / 0.00390625 -1.00000000 0.01171875 / 168 163 163 255 / 0.00000000 0.00000000 0.00000000 0.00000000 / 0.29518130 0.35366820 / 0.0 0.0 / 0.0 0.0 / 0.0 0.0 / 0.0 0.0 / 0.0 0.0
				0.03662109 -0.08496094 0.00000000 / 0.70703130 -0.70703130 0.01171875 / 210 205 205 255 / 0.00000000 0.00000000 0.00000000 0.00000000 / 0.29621890 0.39236450 / 0.0 0.0 / 0.0 0.0 / 0.0 0.0 / 0.0 0.0 / 0.0 0.0
				0.08593750 -0.03515625 0.00000000 / 0.70703130 -0.70703130 0.01171875 / 215 210 210 255 / 0.00000000 0.00000000 0.00000000 0.00000000 / 0.29621890 0.43077090 / 0.0 0.0 / 0.0 0.0 / 0.0 0.0 / 0.0 0.0 / 0.0 0.0
				0.06494140 -0.02636719 2.06494100 / 0.71093750 -0.70312500 0.01171875 / 205 200 200 255 / 0.00000000 0.00000000 0.00000000 0.00000000 / 0.93603510 0.43083190 / 0.0 0.0 / 0.0 0.0 / 0.0 0.0 / 0.0 0.0 / 0.0 0.0
				0.02783203 -0.06347657 2.06494100 / 0.71093750 -0.70312500 0.01171875 / 193 188 188 255 / 0.00000000 0.00000000 0.00000000 0.00000000 / 0.93603510 0.39227290 / 0.0 0.0 / 0.0 0.0 / 0.0 0.0 / 0.0 0.0 / 0.0 0.0
				0.04345703 -0.01757812 4.13037100 / 0.71093750 -0.70312500 0.01171875 / 187 182 182 255 / 0.00000000 0.00000000 0.00000000 0.00000000 / 0.29518130 0.43089290 / 0.0 0.0 / 0.0 0.0 / 0.0 0.0 / 0.0 0.0 / 0.0 0.0
				0.01855469 -0.04248047 4.13037100 / 0.71093750 -0.70312500 0.01171875 / 181 176 176 255 / 0.00000000 0.00000000 0.00000000 0.00000000 / 0.29518130 0.39218140 / 0.0 0.0 / 0.0 0.0 / 0.0 0.0 / 0.0 0.0 / 0.0 0.0
				0.00000000 0.14843750 4.10351600 / -0.15625000 0.98828130 -0.01562500 / 195 190 190 255 / 0.00000000 0.00000000 0.00000000 0.00000000 / 0.44064330 0.40791320 / 0.0 0.0 / 0.0 0.0 / 0.0 0.0 / 0.0 0.0 / 0.0 0.0
				0.00000000 0.14843750 3.40136700 / 0.31640630 0.94921880 0.00000000 / 187 182 182 255 / 0.00000000 0.00000000 0.00000000 0.00000000 / 0.29492190 0.40791320 / 0.0 0.0 / 0.0 0.0 / 0.0 0.0 / 0.0 0.0 / 0.0 0.0
				-0.02099609 0.12744140 3.40136700 / -0.94921880 0.31640630 0.00000000 / 180 175 175 255 / 0.00000000 0.00000000 0.00000000 0.00000000 / 0.29492190 0.39064030 / 0.0 0.0 / 0.0 0.0 / 0.0 0.0 / 0.0 0.0 / 0.0 0.0
				-0.02099609 0.12744140 4.10400400 / -0.98828130 -0.16015630 -0.00390625 / 195 190 190 255 / 0.00000000 0.00000000 0.00000000 0.00000000 / 0.44064330 0.39064030 / 0.0 0.0 / 0.0 0.0 / 0.0 0.0 / 0.0 0.0 / 0.0 0.0
				0.00000000 0.16406250 4.34765600 / -0.00781250 0.97265620 -0.23046880 / 215 210 210 255 / 0.00000000 0.00000000 0.00000000 0.00000000 / 0.49230960 0.40791320 / 0.0 0.0 / 0.0 0.0 / 0.0 0.0 / 0.0 0.0 / 0.0 0.0
				0.00000000 0.10644530 3.40136700 / -0.31640630 -0.94921880 0.00000000 / 176 171 171 255 / 0.00000000 0.00000000 0.00000000 0.00000000 / 0.29492190 0.37338260 / 0.0 0.0 / 0.0 0.0 / 0.0 0.0 / 0.0 0.0 / 0.0 0.0
				-0.02099609 0.14306640 4.35302700 / -1.00000000 -0.03125000 -0.05078125 / 215 210 210 255 / 0.00000000 0.00000000 0.00000000 0.00000000 / 0.49230960 0.39064030 / 0.0 0.0 / 0.0 0.0 / 0.0 0.0 / 0.0 0.0 / 0.0 0.0
				0.00000000 0.25634760 4.55712900 / -0.01562500 0.82031250 -0.57031250 / 214 209 209 255 / 0.00000000 0.00000000 0.00000000 0.00000000 / 0.54141230 0.40791320 / 0.0 0.0 / 0.0 0.0 / 0.0 0.0 / 0.0 0.0 / 0.0 0.0
				0.00000000 0.10644530 4.10498100 / 0.15625000 -0.98828130 0.01562500 / 193 187 187 255 / 0.00000000 0.00000000 0.00000000 0.00000000 / 0.44064330 0.37338260 / 0.0 0.0 / 0.0 0.0 / 0.0 0.0 / 0.0 0.0 / 0.0 0.0
				0.02099609 0.12744140 3.40136700 / 0.94921880 -0.31640630 0.00000000 / 182 177 177 255 / 0.00000000 0.00000000 0.00000000 0.00000000 / 0.29492190 0.35610960 / 0.0 0.0 / 0.0 0.0 / 0.0 0.0 / 0.0 0.0 / 0.0 0.0
				-0.02099609 0.23876950 4.56982400 / -0.99609380 -0.05859375 -0.03906250 / 205 200 200 255 / 0.00000000 0.00000000 0.00000000 0.00000000 / 0.54141230 0.39064030 / 0.0 0.0 / 0.0 0.0 / 0.0 0.0 / 0.0 0.0 / 0.0 0.0
				0.00000000 0.40917970 4.69921900 / 0.01953125 0.52734370 -0.84765630 / 189 184 184 255 / 0.00000000 0.00000000 0.00000000 0.00000000 / 0.58633420 0.40791320 / 0.0 0.0 / 0.0 0.0 / 0.0 0.0 / 0.0 0.0 / 0.0 0.0
				0.00000000 0.12207030 4.35791000 / 0.00781250 -0.97265620 0.23437500 / 206 201 201 255 / 0.00000000 0.00000000 0.00000000 0.00000000 / 0.49230960 0.37338260 / 0.0 0.0 / 0.0 0.0 / 0.0 0.0 / 0.0 0.0 / 0.0 0.0
				0.02099609 0.12744140 4.10400400 / 0.98828130 0.15625000 0.00390625 / 193 188 188 255 / 0.00000000 0.00000000 0.00000000 0.00000000 / 0.44064330 0.35610960 / 0.0 0.0 / 0.0 0.0 / 0.0 0.0 / 0.0 0.0 / 0.0 0.0
				0.00000000 0.14843750 3.40136700 / 0.31640630 0.94921880 0.00000000 / 187 182 182 255 / 0.00000000 0.00000000 0.00000000 0.00000000 / 0.29492190 0.33885190 / 0.0 0.0 / 0.0 0.0 / 0.0 0.0 / 0.0 0.0 / 0.0 0.0
				0.00000000 0.14843750 4.10351600 / -0.15625000 0.98828130 -0.01562500 / 195 190 190 255 / 0.00000000 0.00000000 0.00000000 0.00000000 / 0.44064330 0.33885190 / 0.0 0.0 / 0.0 0.0 / 0.0 0.0 / 0.0 0.0 / 0.0 0.0
				0.02099609 0.14306640 4.35302700 / 1.00000000 0.01562500 0.05859375 / 207 202 202 255 / 0.00000000 0.00000000 0.00000000 0.00000000 / 0.49230960 0.35610960 / 0.0 0.0 / 0.0 0.0 / 0.0 0.0 / 0.0 0.0 / 0.0 0.0
				0.00000000 0.16406250 4.34765600 / -0.00781250 0.97265620 -0.23046880 / 215 210 210 255 / 0.00000000 0.00000000 0.00000000 0.00000000 / 0.49230960 0.33885190 / 0.0 0.0 / 0.0 0.0 / 0.0 0.0 / 0.0 0.0 / 0.0 0.0
				0.00000000 0.22119140 4.58203100 / 0.01562500 -0.82031250 0.57421870 / 209 204 204 255 / 0.00000000 0.00000000 0.00000000 0.00000000 / 0.54141230 0.37338260 / 0.0 0.0 / 0.0 0.0 / 0.0 0.0 / 0.0 0.0 / 0.0 0.0
				0.02099609 0.23876950 4.56982400 / 0.99609380 0.03906250 0.05468750 / 216 211 211 255 / 0.00000000 0.00000000 0.00000000 0.00000000 / 0.54141230 0.35610960 / 0.0 0.0 / 0.0 0.0 / 0.0 0.0 / 0.0 0.0 / 0.0 0.0
				0.00000000 0.25634760 4.55712900 / -0.01562500 0.82031250 -0.57031250 / 214 209 209 255 / 0.00000000 0.00000000 0.00000000 0.00000000 / 0.54141230 0.33885190 / 0.0 0.0 / 0.0 0.0 / 0.0 0.0 / 0.0 0.0 / 0.0 0.0
				-0.02099609 0.39746090 4.71728500 / -1.00000000 -0.04687500 -0.03906250 / 194 189 189 255 / 0.00000000 0.00000000 0.00000000 0.00000000 / 0.58633420 0.39064030 / 0.0 0.0 / 0.0 0.0 / 0.0 0.0 / 0.0 0.0 / 0.0 0.0
				0.00000000 0.62500000 4.78564500 / 0.06640625 0.15625000 -0.98437500 / 174 169 169 255 / 0.00000000 0.00000000 0.00000000 0.00000000 / 0.63626100 0.40791320 / 0.0 0.0 / 0.0 0.0 / 0.0 0.0 / 0.0 0.0 / 0.0 0.0
				0.00000000 0.38623050 4.73535200 / -0.01953125 -0.52734370 0.84765630 / 215 210 210 255 / 0.00000000 0.00000000 0.00000000 0.00000000 / 0.58633420 0.37338260 / 0.0 0.0 / 0.0 0.0 / 0.0 0.0 / 0.0 0.0 / 0.0 0.0
				0.02099609 0.39746090 4.71728500 / 0.99609380 0.03515625 0.05859375 / 212 206 206 255 / 0.00000000 0.00000000 0.00000000 0.00000000 / 0.58633420 0.35610960 / 0.0 0.0 / 0.0 0.0 / 0.0 0.0 / 0.0 0.0 / 0.0 0.0
				0.00000000 0.40917970 4.69921900 / 0.01953125 0.52734370 -0.84765630 / 189 184 184 255 / 0.00000000 0.00000000 0.00000000 0.00000000 / 0.58633420 0.33885190 / 0.0 0.0 / 0.0 0.0 / 0.0 0.0 / 0.0 0.0 / 0.0 0.0
				-0.02099609 0.62109380 4.80712900 / -0.99609380 -0.05468750 -0.05078125 / 201 195 195 255 / 0.00000000 0.00000000 0.00000000 0.00000000 / 0.63626100 0.39064030 / 0.0 0.0 / 0.0 0.0 / 0.0 0.0 / 0.0 0.0 / 0.0 0.0
				0.00000000 0.94580080 4.78564500 / -0.33203120 0.00000000 -0.94140630 / 178 173 173 255 / 0.00000000 0.00000000 0.00000000 0.00000000 / 0.70355230 0.40791320 / 0.0 0.0 / 0.0 0.0 / 0.0 0.0 / 0.0 0.0 / 0.0 0.0
				-0.02099609 0.97070320 4.80712900 / -0.94531250 0.00000000 0.33203120 / 216 210 210 255 / 0.00000000 0.00000000 0.00000000 0.00000000 / 0.70355230 0.39064030 / 0.0 0.0 / 0.0 0.0 / 0.0 0.0 / 0.0 0.0 / 0.0 0.0
				0.00000000 0.61669920 4.82812500 / -0.05859375 -0.15234370 0.98828130 / 221 216 216 255 / 0.00000000 0.00000000 0.00000000 0.00000000 / 0.63626100 0.37338260 / 0.0 0.0 / 0.0 0.0 / 0.0 0.0 / 0.0 0.0 / 0.0 0.0
				0.00000000 0.99462890 4.82812500 / 0.30078130 0.00000000 0.95312500 / 219 214 214 255 / 0.00000000 0.00000000 0.00000000 0.00000000 / 0.70355230 0.37338260 / 0.0 0.0 / 0.0 0.0 / 0.0 0.0 / 0.0 0.0 / 0.0 0.0
				0.02099609 0.62109380 4.80712900 / 0.99609380 0.04687500 0.08984375 / 200 194 194 255 / 0.00000000 0.00000000 0.00000000 0.00000000 / 0.63626100 0.35610960 / 0.0 0.0 / 0.0 0.0 / 0.0 0.0 / 0.0 0.0 / 0.0 0.0
				0.02099609 0.97070320 4.80712900 / 0.95312500 0.00000000 -0.30078130 / 184 178 178 255 / 0.00000000 0.00000000 0.00000000 0.00000000 / 0.70355230 0.35610960 / 0.0 0.0 / 0.0 0.0 / 0.0 0.0 / 0.0 0.0 / 0.0 0.0
				0.00000000 0.62500000 4.78564500 / 0.06640625 0.15625000 -0.98437500 / 174 169 169 255 / 0.00000000 0.00000000 0.00000000 0.00000000 / 0.63626100 0.33885190 / 0.0 0.0 / 0.0 0.0 / 0.0 0.0 / 0.0 0.0 / 0.0 0.0
				0.00000000 0.94580080 4.78564500 / -0.33203120 0.00000000 -0.94140630 / 178 173 173 255 / 0.00000000 0.00000000 0.00000000 0.00000000 / 0.70355230 0.33885190 / 0.0 0.0 / 0.0 0.0 / 0.0 0.0 / 0.0 0.0 / 0.0 0.0
				-0.02441406 0.83544920 4.87255900 / 0.00000000 0.00000000 1.00000000 / 255 255 255 255 / 0.00000000 0.00000000 0.00000000 0.00000000 / -0.59146120 0.61308290 / 0.0 0.0 / 0.0 0.0 / 0.0 0.0 / 0.0 0.0 / 0.0 0.0
				0.00000000 0.82177730 4.87255900 / 0.00000000 0.00000000 1.00000000 / 0 0 0 255 / 0.00000000 0.00000000 0.00000000 0.00000000 / -0.58316040 0.61308290 / 0.0 0.0 / 0.0 0.0 / 0.0 0.0 / 0.0 0.0 / 0.0 0.0
				0.02441406 0.83544920 4.87255900 / 0.00000000 0.00000000 1.00000000 / 255 255 255 255 / 0.00000000 0.00000000 0.00000000 0.00000000 / -0.59146120 0.61308290 / 0.0 0.0 / 0.0 0.0 / 0.0 0.0 / 0.0 0.0 / 0.0 0.0
				0.00000000 0.87792970 4.87255900 / 0.00000000 0.00000000 1.00000000 / 255 255 255 255 / 0.00000000 0.00000000 0.00000000 0.00000000 / -0.61637880 0.61308290 / 0.0 0.0 / 0.0 0.0 / 0.0 0.0 / 0.0 0.0 / 0.0 0.0
				0.02441406 0.86376950 4.87255900 / 0.00000000 0.00000000 1.00000000 / 0 0 0 255 / 0.00000000 0.00000000 0.00000000 0.00000000 / -0.60807800 0.61308290 / 0.0 0.0 / 0.0 0.0 / 0.0 0.0 / 0.0 0.0 / 0.0 0.0
				-0.02441406 0.86376950 4.87255900 / 0.00000000 0.00000000 1.00000000 / 0 0 0 255 / 0.00000000 0.00000000 0.00000000 0.00000000 / -0.60807800 0.61308290 / 0.0 0.0 / 0.0 0.0 / 0.0 0.0 / 0.0 0.0 / 0.0 0.0
				0.00000000 0.70166010 4.40478500 / 0.00000000 0.00000000 -1.00000000 / 239 234 234 255 / 0.00000000 0.00000000 0.00000000 0.00000000 / -0.49435420 0.33723450 / 0.0 0.0 / 0.0 0.0 / 0.0 0.0 / 0.0 0.0 / 0.0 0.0
				-0.12841800 0.77539060 4.40478500 / 0.00000000 0.00000000 -1.00000000 / 216 211 211 255 / 0.00000000 0.00000000 0.00000000 0.00000000 / -0.49435420 0.40304560 / 0.0 0.0 / 0.0 0.0 / 0.0 0.0 / 0.0 0.0 / 0.0 0.0
				-0.12841800 0.92382820 4.40478500 / 0.00000000 0.00000000 -1.00000000 / 107 103 103 255 / 0.00000000 0.00000000 0.00000000 0.00000000 / -0.54705810 0.40304560 / 0.0 0.0 / 0.0 0.0 / 0.0 0.0 / 0.0 0.0 / 0.0 0.0
				0.12841800 0.92382820 4.40478500 / 0.00000000 0.00000000 -1.00000000 / 113 108 108 255 / 0.00000000 0.00000000 0.00000000 0.00000000 / -0.54705810 0.40304560 / 0.0 0.0 / 0.0 0.0 / 0.0 0.0 / 0.0 0.0 / 0.0 0.0
				0.00000000 0.99804690 4.40478500 / 0.00000000 0.00000000 -1.00000000 / 31 30 30 255 / 0.00000000 0.00000000 0.00000000 0.00000000 / -0.49435420 0.40304560 / 0.0 0.0 / 0.0 0.0 / 0.0 0.0 / 0.0 0.0 / 0.0 0.0
				0.12841800 0.77539060 4.40478500 / 0.00000000 0.00000000 -1.00000000 / 200 195 195 255 / 0.00000000 0.00000000 0.00000000 0.00000000 / -0.54705810 0.33723450 / 0.0 0.0 / 0.0 0.0 / 0.0 0.0 / 0.0 0.0 / 0.0 0.0
				0.04345703 -0.01757812 4.13037100 / 0.45703120 -0.18750000 0.87109370 / 255 255 255 255 / 0.00000000 0.00000000 0.00000000 0.00000000 / 1.43100000 0.06095886 / 0.0 0.0 / 0.0 0.0 / 0.0 0.0 / 0.0 0.0 / 0.0 0.0
				0.04345703 0.01757812 4.13037100 / 0.45703120 0.19140620 0.87109370 / 255 255 255 255 / 0.00000000 0.00000000 0.00000000 0.00000000 / 1.43109100 0.08239746 / 0.0 0.0 / 0.0 0.0 / 0.0 0.0 / 0.0 0.0 / 0.0 0.0
				0.00097656 0.00000000 4.15625000 / 0.00000000 0.00000000 1.00000000 / 255 255 255 255 / 0.00000000 0.00000000 0.00000000 0.00000000 / 1.45855700 0.07157898 / 0.0 0.0 / 0.0 0.0 / 0.0 0.0 / 0.0 0.0 / 0.0 0.0
				0.01855469 0.04248047 4.13037100 / 0.18750000 0.45703120 0.86718750 / 255 255 255 255 / 0.00000000 0.00000000 0.00000000 0.00000000 / 1.44726600 0.09748840 / 0.0 0.0 / 0.0 0.0 / 0.0 0.0 / 0.0 0.0 / 0.0 0.0
				0.01855469 -0.04248047 4.13037100 / 0.19140620 -0.45703120 0.87109370 / 255 255 255 255 / 0.00000000 0.00000000 0.00000000 0.00000000 / 1.44705200 0.04574585 / 0.0 0.0 / 0.0 0.0 / 0.0 0.0 / 0.0 0.0 / 0.0 0.0
				-0.01660156 0.04248047 4.13037100 / -0.19140620 0.45703120 0.86718750 / 255 255 255 255 / 0.00000000 0.00000000 0.00000000 0.00000000 / 1.47004700 0.09741211 / 0.0 0.0 / 0.0 0.0 / 0.0 0.0 / 0.0 0.0 / 0.0 0.0
				-0.01660156 -0.04248047 4.13037100 / -0.18750000 -0.45703120 0.87109370 / 255 255 255 255 / 0.00000000 0.00000000 0.00000000 0.00000000 / 1.46984900 0.04565430 / 0.0 0.0 / 0.0 0.0 / 0.0 0.0 / 0.0 0.0 / 0.0 0.0
				-0.04150391 0.01757812 4.13037100 / -0.45703120 0.18750000 0.86718750 / 255 255 255 255 / 0.00000000 0.00000000 0.00000000 0.00000000 / 1.48609900 0.08218383 / 0.0 0.0 / 0.0 0.0 / 0.0 0.0 / 0.0 0.0 / 0.0 0.0
				-0.04150391 -0.01757812 4.13037100 / -0.45703120 -0.19140620 0.86718750 / 255 255 255 255 / 0.00000000 0.00000000 0.00000000 0.00000000 / 1.48600800 0.06076050 / 0.0 0.0 / 0.0 0.0 / 0.0 0.0 / 0.0 0.0 / 0.0 0.0
				-0.15478520 0.93896490 4.40478500 / 0.00000000 0.00000000 -1.00000000 / 47 45 45 255 / 0.00000000 0.00000000 0.00000000 0.00000000 / -0.65248110 0.33723450 / 0.0 0.0 / 0.0 0.0 / 0.0 0.0 / 0.0 0.0 / 0.0 0.0
				0.00000000 1.02832000 4.40478500 / 0.00000000 0.00000000 -1.00000000 / 62 59 59 255 / 0.00000000 0.00000000 0.00000000 0.00000000 / -0.70520020 0.33723450 / 0.0 0.0 / 0.0 0.0 / 0.0 0.0 / 0.0 0.0 / 0.0 0.0
				0.00000000 0.99804690 4.40478500 / 0.00000000 0.00000000 -1.00000000 / 31 30 30 255 / 0.00000000 0.00000000 0.00000000 0.00000000 / -0.68719480 0.33723450 / 0.0 0.0 / 0.0 0.0 / 0.0 0.0 / 0.0 0.0 / 0.0 0.0
				-0.12841800 0.92382820 4.40478500 / 0.00000000 0.00000000 -1.00000000 / 107 103 103 255 / 0.00000000 0.00000000 0.00000000 0.00000000 / -0.64347840 0.33723450 / 0.0 0.0 / 0.0 0.0 / 0.0 0.0 / 0.0 0.0 / 0.0 0.0
				0.12841800 0.92382820 4.40478500 / 0.00000000 0.00000000 -1.00000000 / 113 108 108 255 / 0.00000000 0.00000000 0.00000000 0.00000000 / -0.64347840 0.33723450 / 0.0 0.0 / 0.0 0.0 / 0.0 0.0 / 0.0 0.0 / 0.0 0.0
				-0.15478520 0.76025390 4.40478500 / 0.00000000 0.00000000 -1.00000000 / 171 166 166 255 / 0.00000000 0.00000000 0.00000000 0.00000000 / -0.54705810 0.33723450 / 0.0 0.0 / 0.0 0.0 / 0.0 0.0 / 0.0 0.0 / 0.0 0.0
				0.15478520 0.93896490 4.40478500 / 0.00000000 0.00000000 -1.00000000 / 161 156 156 255 / 0.00000000 0.00000000 0.00000000 0.00000000 / -0.65248110 0.33723450 / 0.0 0.0 / 0.0 0.0 / 0.0 0.0 / 0.0 0.0 / 0.0 0.0
				-0.12841800 0.77539060 4.40478500 / 0.00000000 0.00000000 -1.00000000 / 216 211 211 255 / 0.00000000 0.00000000 0.00000000 0.00000000 / -0.55606080 0.33723450 / 0.0 0.0 / 0.0 0.0 / 0.0 0.0 / 0.0 0.0 / 0.0 0.0
				0.12841800 0.77539060 4.40478500 / 0.00000000 0.00000000 -1.00000000 / 200 195 195 255 / 0.00000000 0.00000000 0.00000000 0.00000000 / -0.55606080 0.33723450 / 0.0 0.0 / 0.0 0.0 / 0.0 0.0 / 0.0 0.0 / 0.0 0.0
				0.00000000 0.67089840 4.40478500 / 0.00000000 0.00000000 -1.00000000 / 237 232 232 255 / 0.00000000 0.00000000 0.00000000 0.00000000 / -0.49435420 0.33723450 / 0.0 0.0 / 0.0 0.0 / 0.0 0.0 / 0.0 0.0 / 0.0 0.0
				0.15478520 0.76025390 4.40478500 / 0.00000000 0.00000000 -1.00000000 / 226 221 221 255 / 0.00000000 0.00000000 0.00000000 0.00000000 / -0.54705810 0.33723450 / 0.0 0.0 / 0.0 0.0 / 0.0 0.0 / 0.0 0.0 / 0.0 0.0
				0.00000000 0.70166010 4.40478500 / 0.00000000 0.00000000 -1.00000000 / 239 234 234 255 / 0.00000000 0.00000000 0.00000000 0.00000000 / -0.51234430 0.33723450 / 0.0 0.0 / 0.0 0.0 / 0.0 0.0 / 0.0 0.0 / 0.0 0.0
				-0.15478520 0.93896490 4.51660200 / -0.75781250 0.65625000 0.00000000 / 196 191 191 255 / 0.00000000 0.00000000 0.00000000 0.00000000 / -0.65248110 0.40304560 / 0.0 0.0 / 0.0 0.0 / 0.0 0.0 / 0.0 0.0 / 0.0 0.0
				0.00000000 1.02832000 4.51660200 / 0.18750000 0.98046870 0.00000000 / 206 201 201 255 / 0.00000000 0.00000000 0.00000000 0.00000000 / -0.70520020 0.40304560 / 0.0 0.0 / 0.0 0.0 / 0.0 0.0 / 0.0 0.0 / 0.0 0.0
				0.00000000 1.02832000 4.40478500 / -0.18750000 0.98046870 0.00000000 / 203 198 198 255 / 0.00000000 0.00000000 0.00000000 0.00000000 / -0.70520020 0.33723450 / 0.0 0.0 / 0.0 0.0 / 0.0 0.0 / 0.0 0.0 / 0.0 0.0
				-0.15478520 0.93896490 4.40478500 / -0.94531250 0.32812500 0.00000000 / 188 183 183 255 / 0.00000000 0.00000000 0.00000000 0.00000000 / -0.65248110 0.33723450 / 0.0 0.0 / 0.0 0.0 / 0.0 0.0 / 0.0 0.0 / 0.0 0.0
				0.15478520 0.93896490 4.40478500 / 0.75781250 0.65625000 0.00000000 / 203 198 198 255 / 0.00000000 0.00000000 0.00000000 0.00000000 / -0.65248110 0.33723450 / 0.0 0.0 / 0.0 0.0 / 0.0 0.0 / 0.0 0.0 / 0.0 0.0
				-0.15478520 0.76025390 4.51660200 / -0.94531250 -0.32812500 0.00000000 / 183 178 178 255 / 0.00000000 0.00000000 0.00000000 0.00000000 / -0.54705810 0.40304560 / 0.0 0.0 / 0.0 0.0 / 0.0 0.0 / 0.0 0.0 / 0.0 0.0
				0.15478520 0.93896490 4.51660200 / 0.94531250 0.32812500 0.00000000 / 196 190 190 255 / 0.00000000 0.00000000 0.00000000 0.00000000 / -0.65248110 0.40304560 / 0.0 0.0 / 0.0 0.0 / 0.0 0.0 / 0.0 0.0 / 0.0 0.0
				-0.15478520 0.76025390 4.40478500 / -0.75781250 -0.65625000 0.00000000 / 181 176 176 255 / 0.00000000 0.00000000 0.00000000 0.00000000 / -0.54705810 0.33723450 / 0.0 0.0 / 0.0 0.0 / 0.0 0.0 / 0.0 0.0 / 0.0 0.0
				0.15478520 0.76025390 4.40478500 / 0.94531250 -0.32812500 0.00000000 / 188 182 182 255 / 0.00000000 0.00000000 0.00000000 0.00000000 / -0.54705810 0.33723450 / 0.0 0.0 / 0.0 0.0 / 0.0 0.0 / 0.0 0.0 / 0.0 0.0
				0.00000000 0.67089840 4.51660200 / -0.18750000 -0.98046870 0.00000000 / 181 176 176 255 / 0.00000000 0.00000000 0.00000000 0.00000000 / -0.49435420 0.40304560 / 0.0 0.0 / 0.0 0.0 / 0.0 0.0 / 0.0 0.0 / 0.0 0.0
				0.15478520 0.76025390 4.51660200 / 0.75781250 -0.65625000 0.00000000 / 183 177 177 255 / 0.00000000 0.00000000 0.00000000 0.00000000 / -0.54705810 0.40304560 / 0.0 0.0 / 0.0 0.0 / 0.0 0.0 / 0.0 0.0 / 0.0 0.0
				0.00000000 0.67089840 4.40478500 / 0.18750000 -0.98046870 0.00000000 / 181 176 176 255 / 0.00000000 0.00000000 0.00000000 0.00000000 / -0.49435420 0.33723450 / 0.0 0.0 / 0.0 0.0 / 0.0 0.0 / 0.0 0.0 / 0.0 0.0
				-0.12988280 0.92480470 4.51709000 / -0.02343750 0.02343750 1.00000000 / 254 249 249 255 / 0.00000000 0.00000000 0.00000000 0.00000000 / -0.64404310 0.40361020 / 0.0 0.0 / 0.0 0.0 / 0.0 0.0 / 0.0 0.0 / 0.0 0.0
				0.00000000 1.00000000 4.51709000 / 0.00781250 0.03515625 1.00000000 / 252 247 247 255 / 0.00000000 0.00000000 0.00000000 0.00000000 / -0.68832400 0.40361020 / 0.0 0.0 / 0.0 0.0 / 0.0 0.0 / 0.0 0.0 / 0.0 0.0
				0.00000000 1.02832000 4.51660200 / -0.00390625 0.03515625 1.00000000 / 253 248 248 255 / 0.00000000 0.00000000 0.00000000 0.00000000 / -0.70520020 0.40304560 / 0.0 0.0 / 0.0 0.0 / 0.0 0.0 / 0.0 0.0 / 0.0 0.0
				-0.15478520 0.93896490 4.51660200 / -0.03125000 0.01171875 1.00000000 / 254 249 249 255 / 0.00000000 0.00000000 0.00000000 0.00000000 / -0.65248110 0.40304560 / 0.0 0.0 / 0.0 0.0 / 0.0 0.0 / 0.0 0.0 / 0.0 0.0
				0.15478520 0.93896490 4.51660200 / 0.02734375 0.02343750 1.00000000 / 251 246 246 255 / 0.00000000 0.00000000 0.00000000 0.00000000 / -0.65248110 0.40304560 / 0.0 0.0 / 0.0 0.0 / 0.0 0.0 / 0.0 0.0 / 0.0 0.0
				-0.12988280 0.77441410 4.51709000 / -0.03125000 -0.01171875 1.00000000 / 254 249 249 255 / 0.00000000 0.00000000 0.00000000 0.00000000 / -0.55549620 0.40361020 / 0.0 0.0 / 0.0 0.0 / 0.0 0.0 / 0.0 0.0 / 0.0 0.0
				0.12988280 0.92480470 4.51709000 / 0.03125000 0.01171875 1.00000000 / 251 246 246 255 / 0.00000000 0.00000000 0.00000000 0.00000000 / -0.64404310 0.40361020 / 0.0 0.0 / 0.0 0.0 / 0.0 0.0 / 0.0 0.0 / 0.0 0.0
				-0.15478520 0.76025390 4.51660200 / -0.02734375 -0.02343750 1.00000000 / 253 249 249 255 / 0.00000000 0.00000000 0.00000000 0.00000000 / -0.54705810 0.40304560 / 0.0 0.0 / 0.0 0.0 / 0.0 0.0 / 0.0 0.0 / 0.0 0.0
				0.15478520 0.76025390 4.51660200 / 0.03125000 -0.01171875 1.00000000 / 251 246 246 255 / 0.00000000 0.00000000 0.00000000 0.00000000 / -0.54705810 0.40304560 / 0.0 0.0 / 0.0 0.0 / 0.0 0.0 / 0.0 0.0 / 0.0 0.0
				0.00000000 0.69970700 4.51709000 / -0.00781250 -0.03515625 1.00000000 / 253 248 248 255 / 0.00000000 0.00000000 0.00000000 0.00000000 / -0.51123050 0.40361020 / 0.0 0.0 / 0.0 0.0 / 0.0 0.0 / 0.0 0.0 / 0.0 0.0
				0.12988280 0.77441410 4.51709000 / 0.02343750 -0.02343750 1.00000000 / 252 247 247 255 / 0.00000000 0.00000000 0.00000000 0.00000000 / -0.55549620 0.40361020 / 0.0 0.0 / 0.0 0.0 / 0.0 0.0 / 0.0 0.0 / 0.0 0.0
				0.00000000 0.67089840 4.51660200 / 0.00390625 -0.03515625 1.00000000 / 252 247 247 255 / 0.00000000 0.00000000 0.00000000 0.00000000 / -0.49435420 0.40304560 / 0.0 0.0 / 0.0 0.0 / 0.0 0.0 / 0.0 0.0 / 0.0 0.0
				-0.02099609 0.86181640 4.68212900 / -0.75781250 0.65625000 0.00000000 / 179 174 174 255 / 0.00000000 0.00000000 0.00000000 0.00000000 / -0.60690310 0.50090030 / 0.0 0.0 / 0.0 0.0 / 0.0 0.0 / 0.0 0.0 / 0.0 0.0
				0.00000000 0.87402340 4.68212900 / 0.18750000 0.98046870 0.00000000 / 178 173 173 255 / 0.00000000 0.00000000 0.00000000 0.00000000 / -0.61404420 0.50090030 / 0.0 0.0 / 0.0 0.0 / 0.0 0.0 / 0.0 0.0 / 0.0 0.0
				0.00000000 0.87402340 4.63574200 / -0.18750000 0.98046870 0.00000000 / 178 173 173 255 / 0.00000000 0.00000000 0.00000000 0.00000000 / -0.61407470 0.47334290 / 0.0 0.0 / 0.0 0.0 / 0.0 0.0 / 0.0 0.0 / 0.0 0.0
				-0.02099609 0.86181640 4.63574200 / -0.94531250 0.32812500 0.00000000 / 180 175 175 255 / 0.00000000 0.00000000 0.00000000 0.00000000 / -0.60691830 0.47334290 / 0.0 0.0 / 0.0 0.0 / 0.0 0.0 / 0.0 0.0 / 0.0 0.0
				0.02099609 0.86181640 4.63574200 / 0.75781250 0.65625000 0.00000000 / 178 173 173 255 / 0.00000000 0.00000000 0.00000000 0.00000000 / -0.60691830 0.47334290 / 0.0 0.0 / 0.0 0.0 / 0.0 0.0 / 0.0 0.0 / 0.0 0.0
				-0.02099609 0.83740230 4.68212900 / -0.94531250 -0.32812500 0.00000000 / 180 175 175 255 / 0.00000000 0.00000000 0.00000000 0.00000000 / -0.59263610 0.50090030 / 0.0 0.0 / 0.0 0.0 / 0.0 0.0 / 0.0 0.0 / 0.0 0.0
				0.02099609 0.86181640 4.68212900 / 0.94531250 0.32812500 0.00000000 / 178 173 173 255 / 0.00000000 0.00000000 0.00000000 0.00000000 / -0.60690310 0.50090030 / 0.0 0.0 / 0.0 0.0 / 0.0 0.0 / 0.0 0.0 / 0.0 0.0
				-0.02099609 0.83740230 4.63574200 / -0.75781250 -0.65625000 0.00000000 / 178 173 173 255 / 0.00000000 0.00000000 0.00000000 0.00000000 / -0.59262080 0.47334290 / 0.0 0.0 / 0.0 0.0 / 0.0 0.0 / 0.0 0.0 / 0.0 0.0
				0.02099609 0.83740230 4.63574200 / 0.94531250 -0.32812500 0.00000000 / 177 172 172 255 / 0.00000000 0.00000000 0.00000000 0.00000000 / -0.59262080 0.47334290 / 0.0 0.0 / 0.0 0.0 / 0.0 0.0 / 0.0 0.0 / 0.0 0.0
				0.00000000 0.82568360 4.68212900 / -0.18750000 -0.98046870 0.00000000 / 176 170 170 255 / 0.00000000 0.00000000 0.00000000 0.00000000 / -0.58549500 0.50090030 / 0.0 0.0 / 0.0 0.0 / 0.0 0.0 / 0.0 0.0 / 0.0 0.0
				0.02099609 0.83740230 4.68212900 / 0.75781250 -0.65625000 0.00000000 / 175 170 170 255 / 0.00000000 0.00000000 0.00000000 0.00000000 / -0.59263610 0.50090030 / 0.0 0.0 / 0.0 0.0 / 0.0 0.0 / 0.0 0.0 / 0.0 0.0
				0.00000000 0.82568360 4.63574200 / 0.18750000 -0.98046870 0.00000000 / 174 169 169 255 / 0.00000000 0.00000000 0.00000000 0.00000000 / -0.58546440 0.47334290 / 0.0 0.0 / 0.0 0.0 / 0.0 0.0 / 0.0 0.0 / 0.0 0.0
				-0.00878906 0.85449220 4.68408200 / -0.08203125 0.08984375 0.99218750 / 0 0 0 255 / 0.00000000 0.00000000 0.00000000 0.00000000 / -0.60270690 0.50189210 / 0.0 0.0 / 0.0 0.0 / 0.0 0.0 / 0.0 0.0 / 0.0 0.0
				0.00000000 0.85986330 4.68408200 / 0.03515625 0.11718750 0.99218750 / 0 0 0 255 / 0.00000000 0.00000000 0.00000000 0.00000000 / -0.60565180 0.50189210 / 0.0 0.0 / 0.0 0.0 / 0.0 0.0 / 0.0 0.0 / 0.0 0.0
				0.00000000 0.87402340 4.68212900 / -0.01171875 0.11718750 0.99218750 / 0 0 0 255 / 0.00000000 0.00000000 0.00000000 0.00000000 / -0.61404420 0.50090030 / 0.0 0.0 / 0.0 0.0 / 0.0 0.0 / 0.0 0.0 / 0.0 0.0
				-0.02099609 0.86181640 4.68212900 / -0.10546870 0.04687500 0.99218750 / 0 0 0 255 / 0.00000000 0.00000000 0.00000000 0.00000000 / -0.60690310 0.50090030 / 0.0 0.0 / 0.0 0.0 / 0.0 0.0 / 0.0 0.0 / 0.0 0.0
				0.02099609 0.86181640 4.68212900 / 0.09375000 0.06640625 0.99218750 / 0 0 0 255 / 0.00000000 0.00000000 0.00000000 0.00000000 / -0.60690310 0.50090030 / 0.0 0.0 / 0.0 0.0 / 0.0 0.0 / 0.0 0.0 / 0.0 0.0
				-0.00878906 0.84472650 4.68408200 / -0.11718750 -0.02734375 0.99218750 / 0 0 0 255 / 0.00000000 0.00000000 0.00000000 0.00000000 / -0.59683230 0.50189210 / 0.0 0.0 / 0.0 0.0 / 0.0 0.0 / 0.0 0.0 / 0.0 0.0
				0.00878906 0.85449220 4.68408200 / 0.11718750 0.02734375 0.99218750 / 0 0 0 255 / 0.00000000 0.00000000 0.00000000 0.00000000 / -0.60270690 0.50189210 / 0.0 0.0 / 0.0 0.0 / 0.0 0.0 / 0.0 0.0 / 0.0 0.0
				-0.02099609 0.83740230 4.68212900 / -0.09375000 -0.06640625 0.99218750 / 0 0 0 255 / 0.00000000 0.00000000 0.00000000 0.00000000 / -0.59263610 0.50090030 / 0.0 0.0 / 0.0 0.0 / 0.0 0.0 / 0.0 0.0 / 0.0 0.0
				0.02099609 0.83740230 4.68212900 / 0.10546870 -0.04687500 0.99218750 / 0 0 0 255 / 0.00000000 0.00000000 0.00000000 0.00000000 / -0.59263610 0.50090030 / 0.0 0.0 / 0.0 0.0 / 0.0 0.0 / 0.0 0.0 / 0.0 0.0
				0.00000000 0.83984370 4.68408200 / -0.03515625 -0.11718750 0.99218750 / 0 0 0 255 / 0.00000000 0.00000000 0.00000000 0.00000000 / -0.59388730 0.50189210 / 0.0 0.0 / 0.0 0.0 / 0.0 0.0 / 0.0 0.0 / 0.0 0.0
				0.00878906 0.84472650 4.68408200 / 0.08203125 -0.08984375 0.99218750 / 0 0 0 255 / 0.00000000 0.00000000 0.00000000 0.00000000 / -0.59683230 0.50189210 / 0.0 0.0 / 0.0 0.0 / 0.0 0.0 / 0.0 0.0 / 0.0 0.0
				0.00000000 0.82568360 4.68212900 / 0.01171875 -0.11718750 0.99218750 / 0 0 0 255 / 0.00000000 0.00000000 0.00000000 0.00000000 / -0.58549500 0.50090030 / 0.0 0.0 / 0.0 0.0 / 0.0 0.0 / 0.0 0.0 / 0.0 0.0
				-0.00878906 0.85449220 4.71777300 / -0.75390630 0.65625000 0.00000000 / 0 0 0 255 / 0.00000000 0.00000000 0.00000000 0.00000000 / -0.60270690 0.52186580 / 0.0 0.0 / 0.0 0.0 / 0.0 0.0 / 0.0 0.0 / 0.0 0.0
				0.00000000 0.85986330 4.71777300 / 0.19140620 0.98046870 0.00000000 / 0 0 0 255 / 0.00000000 0.00000000 0.00000000 0.00000000 / -0.60565180 0.52186580 / 0.0 0.0 / 0.0 0.0 / 0.0 0.0 / 0.0 0.0 / 0.0 0.0
				0.00000000 0.85986330 4.68408200 / -0.19140620 0.98046870 0.00000000 / 0 0 0 255 / 0.00000000 0.00000000 0.00000000 0.00000000 / -0.60565180 0.50189210 / 0.0 0.0 / 0.0 0.0 / 0.0 0.0 / 0.0 0.0 / 0.0 0.0
				-0.00878906 0.85449220 4.68408200 / -0.94531250 0.32812500 0.00000000 / 0 0 0 255 / 0.00000000 0.00000000 0.00000000 0.00000000 / -0.60270690 0.50189210 / 0.0 0.0 / 0.0 0.0 / 0.0 0.0 / 0.0 0.0 / 0.0 0.0
				0.00878906 0.85449220 4.68408200 / 0.75390630 0.65625000 0.00000000 / 0 0 0 255 / 0.00000000 0.00000000 0.00000000 0.00000000 / -0.60270690 0.50189210 / 0.0 0.0 / 0.0 0.0 / 0.0 0.0 / 0.0 0.0 / 0.0 0.0
				-0.00878906 0.84472650 4.71777300 / -0.94531250 -0.32812500 0.00000000 / 0 0 0 255 / 0.00000000 0.00000000 0.00000000 0.00000000 / -0.59683230 0.52186580 / 0.0 0.0 / 0.0 0.0 / 0.0 0.0 / 0.0 0.0 / 0.0 0.0
				0.00878906 0.85449220 4.71777300 / 0.94531250 0.32812500 0.00000000 / 0 0 0 255 / 0.00000000 0.00000000 0.00000000 0.00000000 / -0.60270690 0.52186580 / 0.0 0.0 / 0.0 0.0 / 0.0 0.0 / 0.0 0.0 / 0.0 0.0
				-0.00878906 0.84472650 4.68408200 / -0.75390630 -0.65625000 0.00000000 / 0 0 0 255 / 0.00000000 0.00000000 0.00000000 0.00000000 / -0.59683230 0.50189210 / 0.0 0.0 / 0.0 0.0 / 0.0 0.0 / 0.0 0.0 / 0.0 0.0
				0.00878906 0.84472650 4.68408200 / 0.94531250 -0.32812500 0.00000000 / 0 0 0 255 / 0.00000000 0.00000000 0.00000000 0.00000000 / -0.59683230 0.50189210 / 0.0 0.0 / 0.0 0.0 / 0.0 0.0 / 0.0 0.0 / 0.0 0.0
				0.00000000 0.83984370 4.71777300 / -0.19140620 -0.98046870 0.00000000 / 0 0 0 255 / 0.00000000 0.00000000 0.00000000 0.00000000 / -0.59388730 0.52186580 / 0.0 0.0 / 0.0 0.0 / 0.0 0.0 / 0.0 0.0 / 0.0 0.0
				0.00878906 0.84472650 4.71777300 / 0.75390630 -0.65625000 0.00000000 / 0 0 0 255 / 0.00000000 0.00000000 0.00000000 0.00000000 / -0.59683230 0.52186580 / 0.0 0.0 / 0.0 0.0 / 0.0 0.0 / 0.0 0.0 / 0.0 0.0
				0.00000000 0.83984370 4.68408200 / 0.19140620 -0.98046870 0.00000000 / 0 0 0 255 / 0.00000000 0.00000000 0.00000000 0.00000000 / -0.59388730 0.50189210 / 0.0 0.0 / 0.0 0.0 / 0.0 0.0 / 0.0 0.0 / 0.0 0.0
				-0.02441406 0.86376950 4.72412100 / -0.27343750 0.19140620 -0.94140630 / 0 0 0 255 / 0.00000000 0.00000000 0.00000000 0.00000000 / -0.60804750 0.52565000 / 0.0 0.0 / 0.0 0.0 / 0.0 0.0 / 0.0 0.0 / 0.0 0.0
				0.00000000 0.87792970 4.72412100 / 0.02734375 0.33203120 -0.94140630 / 0 0 0 255 / 0.00000000 0.00000000 0.00000000 0.00000000 / -0.61633300 0.52565000 / 0.0 0.0 / 0.0 0.0 / 0.0 0.0 / 0.0 0.0 / 0.0 0.0
				0.00000000 0.85986330 4.71777300 / -0.11328120 0.33203120 -0.93750000 / 0 0 0 255 / 0.00000000 0.00000000 0.00000000 0.00000000 / -0.60565180 0.52186580 / 0.0 0.0 / 0.0 0.0 / 0.0 0.0 / 0.0 0.0 / 0.0 0.0
				-0.00878906 0.85449220 4.71777300 / -0.34375000 0.07031250 -0.93750000 / 0 0 0 255 / 0.00000000 0.00000000 0.00000000 0.00000000 / -0.60270690 0.52186580 / 0.0 0.0 / 0.0 0.0 / 0.0 0.0 / 0.0 0.0 / 0.0 0.0
				0.00878906 0.85449220 4.71777300 / 0.23046880 0.26171870 -0.93750000 / 0 0 0 255 / 0.00000000 0.00000000 0.00000000 0.00000000 / -0.60270690 0.52186580 / 0.0 0.0 / 0.0 0.0 / 0.0 0.0 / 0.0 0.0 / 0.0 0.0
				-0.02441406 0.83593750 4.72412100 / -0.30468750 -0.14062500 -0.94140630 / 0 0 0 255 / 0.00000000 0.00000000 0.00000000 0.00000000 / -0.59149170 0.52565000 / 0.0 0.0 / 0.0 0.0 / 0.0 0.0 / 0.0 0.0 / 0.0 0.0
				0.02441406 0.86376950 4.72412100 / 0.30468750 0.14062500 -0.94140630 / 0 0 0 255 / 0.00000000 0.00000000 0.00000000 0.00000000 / -0.60804750 0.52565000 / 0.0 0.0 / 0.0 0.0 / 0.0 0.0 / 0.0 0.0 / 0.0 0.0
				-0.00878906 0.84472650 4.71777300 / -0.23046880 -0.26562500 -0.93750000 / 0 0 0 255 / 0.00000000 0.00000000 0.00000000 0.00000000 / -0.59683230 0.52186580 / 0.0 0.0 / 0.0 0.0 / 0.0 0.0 / 0.0 0.0 / 0.0 0.0
				0.00878906 0.84472650 4.71777300 / 0.34375000 -0.07031250 -0.93750000 / 0 0 0 255 / 0.00000000 0.00000000 0.00000000 0.00000000 / -0.59683230 0.52186580 / 0.0 0.0 / 0.0 0.0 / 0.0 0.0 / 0.0 0.0 / 0.0 0.0
				0.00000000 0.82177730 4.72412100 / -0.02734375 -0.33593750 -0.94140630 / 0 0 0 255 / 0.00000000 0.00000000 0.00000000 0.00000000 / -0.58322140 0.52565000 / 0.0 0.0 / 0.0 0.0 / 0.0 0.0 / 0.0 0.0 / 0.0 0.0
				0.02441406 0.83593750 4.72412100 / 0.27734380 -0.19140620 -0.94140630 / 0 0 0 255 / 0.00000000 0.00000000 0.00000000 0.00000000 / -0.59149170 0.52565000 / 0.0 0.0 / 0.0 0.0 / 0.0 0.0 / 0.0 0.0 / 0.0 0.0
				0.00000000 0.83984370 4.71777300 / 0.11328120 -0.33203120 -0.93750000 / 0 0 0 255 / 0.00000000 0.00000000 0.00000000 0.00000000 / -0.59388730 0.52186580 / 0.0 0.0 / 0.0 0.0 / 0.0 0.0 / 0.0 0.0 / 0.0 0.0
				-0.02441406 0.86376950 4.87255900 / -0.75781250 0.65625000 0.00000000 / 174 169 169 255 / 0.00000000 0.00000000 0.00000000 0.00000000 / -0.60807800 0.61308290 / 0.0 0.0 / 0.0 0.0 / 0.0 0.0 / 0.0 0.0 / 0.0 0.0
				0.00000000 0.87792970 4.87255900 / 0.18750000 0.98046870 0.00000000 / 173 168 168 255 / 0.00000000 0.00000000 0.00000000 0.00000000 / -0.61637880 0.61308290 / 0.0 0.0 / 0.0 0.0 / 0.0 0.0 / 0.0 0.0 / 0.0 0.0
				0.00000000 0.87792970 4.72412100 / -0.18750000 0.98046870 0.00000000 / 173 168 168 255 / 0.00000000 0.00000000 0.00000000 0.00000000 / -0.61633300 0.52565000 / 0.0 0.0 / 0.0 0.0 / 0.0 0.0 / 0.0 0.0 / 0.0 0.0
				-0.02441406 0.86376950 4.72412100 / -0.94531250 0.32812500 0.00000000 / 175 170 170 255 / 0.00000000 0.00000000 0.00000000 0.00000000 / -0.60804750 0.52565000 / 0.0 0.0 / 0.0 0.0 / 0.0 0.0 / 0.0 0.0 / 0.0 0.0
				0.02441406 0.86376950 4.72412100 / 0.75390630 0.65625000 0.00000000 / 174 169 169 255 / 0.00000000 0.00000000 0.00000000 0.00000000 / -0.60804750 0.52565000 / 0.0 0.0 / 0.0 0.0 / 0.0 0.0 / 0.0 0.0 / 0.0 0.0
				-0.02441406 0.83544920 4.87255900 / -0.94531250 -0.32812500 0.00000000 / 176 171 171 255 / 0.00000000 0.00000000 0.00000000 0.00000000 / -0.59146120 0.61308290 / 0.0 0.0 / 0.0 0.0 / 0.0 0.0 / 0.0 0.0 / 0.0 0.0
				0.02441406 0.86376950 4.87255900 / 0.94531250 0.32812500 0.00000000 / 174 169 169 255 / 0.00000000 0.00000000 0.00000000 0.00000000 / -0.60807800 0.61308290 / 0.0 0.0 / 0.0 0.0 / 0.0 0.0 / 0.0 0.0 / 0.0 0.0
				-0.02441406 0.83593750 4.72412100 / -0.75390630 -0.65625000 0.00000000 / 176 171 171 255 / 0.00000000 0.00000000 0.00000000 0.00000000 / -0.59149170 0.52565000 / 0.0 0.0 / 0.0 0.0 / 0.0 0.0 / 0.0 0.0 / 0.0 0.0
				0.02441406 0.83593750 4.72412100 / 0.94531250 -0.32812500 0.00000000 / 174 169 169 255 / 0.00000000 0.00000000 0.00000000 0.00000000 / -0.59149170 0.52565000 / 0.0 0.0 / 0.0 0.0 / 0.0 0.0 / 0.0 0.0 / 0.0 0.0
				0.00000000 0.82177730 4.87255900 / -0.18750000 -0.98046870 0.00000000 / 175 170 170 255 / 0.00000000 0.00000000 0.00000000 0.00000000 / -0.58316040 0.61308290 / 0.0 0.0 / 0.0 0.0 / 0.0 0.0 / 0.0 0.0 / 0.0 0.0
				0.02441406 0.83544920 4.87255900 / 0.75781250 -0.65625000 0.00000000 / 174 169 169 255 / 0.00000000 0.00000000 0.00000000 0.00000000 / -0.59146120 0.61308290 / 0.0 0.0 / 0.0 0.0 / 0.0 0.0 / 0.0 0.0 / 0.0 0.0
				0.00000000 0.82177730 4.72412100 / 0.18750000 -0.98046870 0.00000000 / 174 169 169 255 / 0.00000000 0.00000000 0.00000000 0.00000000 / -0.58322140 0.52565000 / 0.0 0.0 / 0.0 0.0 / 0.0 0.0 / 0.0 0.0 / 0.0 0.0
				0.00000000 0.87402340 4.63574200 / 0.13281250 0.35937500 0.92187500 / 250 245 245 255 / 0.00000000 0.00000000 0.00000000 0.00000000 / -0.61407470 0.47334290 / 0.0 0.0 / 0.0 0.0 / 0.0 0.0 / 0.0 0.0 / 0.0 0.0
				0.02099609 0.86181640 4.63574200 / 0.31640630 0.18359380 0.92968750 / 249 244 244 255 / 0.00000000 0.00000000 0.00000000 0.00000000 / -0.60691830 0.47334290 / 0.0 0.0 / 0.0 0.0 / 0.0 0.0 / 0.0 0.0 / 0.0 0.0
				0.07128906 0.89111330 4.61279300 / 0.52343750 0.19921870 0.82812500 / 248 243 243 255 / 0.00000000 0.00000000 0.00000000 0.00000000 / -0.62408440 0.45991520 / 0.0 0.0 / 0.0 0.0 / 0.0 0.0 / 0.0 0.0 / 0.0 0.0
				0.02099609 0.83740230 4.63574200 / 0.31640630 -0.18359380 0.92968750 / 247 242 242 255 / 0.00000000 0.00000000 0.00000000 0.00000000 / -0.59262080 0.47334290 / 0.0 0.0 / 0.0 0.0 / 0.0 0.0 / 0.0 0.0 / 0.0 0.0
				0.00000000 0.93212890 4.61279300 / 0.07812500 0.56250000 0.82031250 / 249 244 244 255 / 0.00000000 0.00000000 0.00000000 0.00000000 / -0.64839170 0.45991520 / 0.0 0.0 / 0.0 0.0 / 0.0 0.0 / 0.0 0.0 / 0.0 0.0
				-0.02099609 0.86181640 4.63574200 / -0.24609380 0.29296880 0.92187500 / 251 246 246 255 / 0.00000000 0.00000000 0.00000000 0.00000000 / -0.60691830 0.47334290 / 0.0 0.0 / 0.0 0.0 / 0.0 0.0 / 0.0 0.0 / 0.0 0.0
				0.07128906 0.80859380 4.61279300 / 0.44921870 -0.37500000 0.81250000 / 245 240 240 255 / 0.00000000 0.00000000 0.00000000 0.00000000 / -0.57547000 0.45991520 / 0.0 0.0 / 0.0 0.0 / 0.0 0.0 / 0.0 0.0 / 0.0 0.0
				-0.07128906 0.89111330 4.61279300 / -0.44921870 0.35156250 0.82031250 / 248 243 243 255 / 0.00000000 0.00000000 0.00000000 0.00000000 / -0.62408440 0.45991520 / 0.0 0.0 / 0.0 0.0 / 0.0 0.0 / 0.0 0.0 / 0.0 0.0
				-0.02099609 0.83740230 4.63574200 / -0.37890620 -0.06640625 0.92187500 / 249 244 244 255 / 0.00000000 0.00000000 0.00000000 0.00000000 / -0.59262080 0.47334290 / 0.0 0.0 / 0.0 0.0 / 0.0 0.0 / 0.0 0.0 / 0.0 0.0
				0.10009770 0.90771480 4.57861300 / 0.75390630 0.33203120 0.56640620 / 244 239 239 255 / 0.00000000 0.00000000 0.00000000 0.00000000 / -0.63392640 0.43960570 / 0.0 0.0 / 0.0 0.0 / 0.0 0.0 / 0.0 0.0 / 0.0 0.0
				-0.07128906 0.80859380 4.61279300 / -0.52734370 -0.21093750 0.82031250 / 246 241 241 255 / 0.00000000 0.00000000 0.00000000 0.00000000 / -0.57547000 0.45991520 / 0.0 0.0 / 0.0 0.0 / 0.0 0.0 / 0.0 0.0 / 0.0 0.0
				0.00000000 0.82568360 4.63574200 / -0.13281250 -0.35937500 0.92187500 / 246 241 241 255 / 0.00000000 0.00000000 0.00000000 0.00000000 / -0.58546440 0.47334290 / 0.0 0.0 / 0.0 0.0 / 0.0 0.0 / 0.0 0.0 / 0.0 0.0
				0.00000000 0.96533200 4.57861300 / 0.08593750 0.82031250 0.56640620 / 245 240 240 255 / 0.00000000 0.00000000 0.00000000 0.00000000 / -0.66807560 0.43960570 / 0.0 0.0 / 0.0 0.0 / 0.0 0.0 / 0.0 0.0 / 0.0 0.0
				-0.10009770 0.90771480 4.57861300 / -0.66406250 0.48437500 0.56640620 / 243 238 238 255 / 0.00000000 0.00000000 0.00000000 0.00000000 / -0.63392640 0.43960570 / 0.0 0.0 / 0.0 0.0 / 0.0 0.0 / 0.0 0.0 / 0.0 0.0
				0.00000000 0.76708980 4.61279300 / -0.07812500 -0.56250000 0.82031250 / 244 239 239 255 / 0.00000000 0.00000000 0.00000000 0.00000000 / -0.55116270 0.45991520 / 0.0 0.0 / 0.0 0.0 / 0.0 0.0 / 0.0 0.0 / 0.0 0.0
				-0.10009770 0.79199220 4.57861300 / -0.75390630 -0.33203120 0.56640620 / 241 236 236 255 / 0.00000000 0.00000000 0.00000000 0.00000000 / -0.56562810 0.43960570 / 0.0 0.0 / 0.0 0.0 / 0.0 0.0 / 0.0 0.0 / 0.0 0.0
				0.00000000 0.73388670 4.57861300 / -0.08593750 -0.82031250 0.56640620 / 240 235 235 255 / 0.00000000 0.00000000 0.00000000 0.00000000 / -0.53146360 0.43960570 / 0.0 0.0 / 0.0 0.0 / 0.0 0.0 / 0.0 0.0 / 0.0 0.0
				0.10009770 0.79199220 4.57861300 / 0.66406250 -0.48437500 0.56640620 / 241 236 236 255 / 0.00000000 0.00000000 0.00000000 0.00000000 / -0.56562810 0.43960570 / 0.0 0.0 / 0.0 0.0 / 0.0 0.0 / 0.0 0.0 / 0.0 0.0
				-0.12988280 0.77441410 4.51709000 / -0.67968750 -0.55078120 0.48437500 / 238 233 233 255 / 0.00000000 0.00000000 0.00000000 0.00000000 / -0.55549620 0.40361020 / 0.0 0.0 / 0.0 0.0 / 0.0 0.0 / 0.0 0.0 / 0.0 0.0
				-0.12988280 0.92480470 4.51709000 / -0.81640630 0.31250000 0.48437500 / 240 235 235 255 / 0.00000000 0.00000000 0.00000000 0.00000000 / -0.64404310 0.40361020 / 0.0 0.0 / 0.0 0.0 / 0.0 0.0 / 0.0 0.0 / 0.0 0.0
				0.00000000 0.69970700 4.51709000 / 0.13671870 -0.86328130 0.48437500 / 237 232 232 255 / 0.00000000 0.00000000 0.00000000 0.00000000 / -0.51123050 0.40361020 / 0.0 0.0 / 0.0 0.0 / 0.0 0.0 / 0.0 0.0 / 0.0 0.0
				0.00000000 1.00000000 4.51709000 / -0.13671870 0.86328130 0.48437500 / 242 237 237 255 / 0.00000000 0.00000000 0.00000000 0.00000000 / -0.68832400 0.40361020 / 0.0 0.0 / 0.0 0.0 / 0.0 0.0 / 0.0 0.0 / 0.0 0.0
				0.12988280 0.77441410 4.51709000 / 0.81640630 -0.31250000 0.48437500 / 240 235 235 255 / 0.00000000 0.00000000 0.00000000 0.00000000 / -0.55549620 0.40361020 / 0.0 0.0 / 0.0 0.0 / 0.0 0.0 / 0.0 0.0 / 0.0 0.0
				0.12988280 0.92480470 4.51709000 / 0.67968750 0.55078120 0.48437500 / 242 237 237 255 / 0.00000000 0.00000000 0.00000000 0.00000000 / -0.64404310 0.40361020 / 0.0 0.0 / 0.0 0.0 / 0.0 0.0 / 0.0 0.0 / 0.0 0.0
			}
		}
	}
}
