Version 11 13
{
	Skinned 0
	Bounds 3
	{
		0.00024414 0.00024414 -0.02929688 0.20072790
		0.00024414 0.00024414 -0.02929688 0.20072790
		0.00000000 0.00023193 -0.04174805 0.17481779
		0.00000000 0.00024414 -0.04394531 0.18401870
	}
	Mtl 0
	{
		Prim 0
		{
			Idx 912
			{
				0 1 2 2 3 0 4 0 3 3 5 4 6 7 5
				5 8 6 9 10 8 8 11 9 12 9 11 11 13 12
				13 14 15 15 16 13 17 18 19 19 20 17 21 17 20
				20 22 21 23 21 22 22 24 23 25 23 24 24 26 25
				27 25 26 26 28 27 29 27 28 28 30 29 31 29 32
				32 33 31 34 31 33 33 35 34 36 34 35 35 37 36
				38 39 40 40 41 38 42 38 43 43 44 42 45 42 44
				44 46 45 47 48 49 49 50 47 51 47 50 50 52 51
				53 51 52 52 54 53 55 53 54 54 56 55 57 55 56
				56 58 57 59 57 58 58 60 59 61 59 60 60 62 61
				63 61 62 62 64 63 65 63 64 64 66 65 67 65 66
				66 68 67 69 70 71 71 72 69 73 69 72 72 74 73
				75 73 74 74 76 75 77 75 76 76 78 77 79 77 78
				78 80 79 81 79 80 80 82 81 83 81 82 82 84 83
				85 83 84 84 86 85 87 85 86 86 88 87 89 87 88
				88 90 89 91 92 93 93 94 91 95 91 94 94 96 95
				97 95 96 96 98 97 99 97 98 98 100 99 101 99 100
				100 102 101 103 101 102 102 104 103 105 103 104 104 106 105
				107 105 106 106 108 107 109 107 108 108 110 109 111 109 110
				110 112 111 113 114 115 115 116 113 117 113 116 116 118 117
				119 117 118 118 120 119 121 119 120 120 122 121 123 121 122
				122 124 123 125 123 124 124 126 125 127 125 126 126 128 127
				129 127 128 128 130 129 131 129 130 130 132 131 133 131 132
				132 134 133 135 133 134 134 136 135 137 138 139 139 140 137
				141 137 140 140 142 141 143 141 142 142 144 143 145 143 144
				144 146 145 147 145 146 146 148 147 149 147 148 148 150 149
				151 149 150 150 152 151 153 151 152 152 154 153 155 153 154
				154 156 155 157 155 156 156 158 157 159 157 158 158 160 159
				161 162 163 163 164 161 165 161 164 164 166 165 167 165 166
				166 168 167 169 167 168 168 170 169 171 169 170 170 172 171
				173 171 172 172 174 173 175 173 174 174 176 175 177 175 176
				176 178 177 179 177 178 178 180 179 181 179 180 180 182 181
				183 181 182 182 184 183 185 186 187 187 188 185 189 185 188
				188 190 189 191 189 190 190 192 191 193 191 192 192 194 193
				195 193 194 194 196 195 197 195 196 196 198 197 199 197 198
				198 200 199 201 199 200 200 202 201 203 201 202 202 204 203
				205 203 204 204 206 205 207 208 209 209 210 207 211 207 210
				210 212 211 213 211 212 212 214 213 215 213 214 214 216 215
				217 215 216 216 218 217 219 217 218 218 220 219 221 219 220
				220 222 221 223 221 222 222 224 223 225 223 224 224 226 225
				227 225 226 226 228 227 229 230 231 231 232 229 233 229 232
				232 234 233 235 233 234 234 236 235 237 235 236 236 238 237
				239 237 238 238 240 239 241 239 240 240 242 241 243 241 242
				242 244 243 245 243 244 244 246 245 247 245 246 246 248 247
				249 247 248 248 250 249 251 252 253 253 254 251 255 251 254
				254 256 255 257 255 256 256 258 257 259 257 258 258 260 259
				261 259 260 260 262 261 263 261 262 262 264 263 265 263 264
				264 266 265 267 265 266 266 268 267 269 267 268 268 270 269
				271 269 270 270 272 271 273 271 272 272 274 273 275 276 277
				277 278 275 279 275 278 278 280 279 281 279 280 280 282 281
				283 281 282 282 284 283 285 283 284 284 286 285 287 285 286
				286 288 287 289 287 288 288 290 289 291 289 290 290 292 291
				293 291 292 292 294 293 295 293 294 294 296 295 297 295 296
				296 298 297 299 300 301 301 302 299 303 299 302 302 304 303
				305 303 304 304 306 305 307 305 306 306 308 307 309 307 308
				308 310 309 311 309 310 310 312 311 313 311 312 312 314 313
				315 313 314 314 316 315 317 315 316 316 318 317 319 317 318
				318 320 319 321 319 320 320 322 321 323 324 325 323 325 326
				323 326 327 328 323 327 329 328 327 329 327 330 329 330 331
				329 331 332 333 329 332 333 332 334 333 334 335 333 335 336
				333 336 337 333 337 338 339 333 338 339 340 333
			}
			Verts 341
			{
				-0.03076172 -0.16259770 0.04345703 / -0.43359380 -0.90234380 0.00000000 / 150 150 150 255 / 0.0 0.0 0.0 0.0 / -0.77510070 0.76344300 / 0.0 0.0 / 0.0 0.0 / 0.0 0.0 / 0.0 0.0 / 0.0 0.0
				-0.05615234 -0.14599610 0.04345703 / -0.73828120 -0.67578120 0.00000000 / 163 163 163 255 / 0.0 0.0 0.0 0.0 / -0.62091060 0.76051330 / 0.0 0.0 / 0.0 0.0 / 0.0 0.0 / 0.0 0.0 / 0.0 0.0
				-0.05615234 -0.14599610 0.00195313 / -0.64453120 -0.76171880 0.00000000 / 176 176 176 255 / 0.0 0.0 0.0 0.0 / -0.62500000 0.54879760 / 0.0 0.0 / 0.0 0.0 / 0.0 0.0 / 0.0 0.0 / 0.0 0.0
				-0.03076172 -0.16259770 0.00195313 / -0.31250000 -0.94921880 0.00000000 / 176 176 176 255 / 0.0 0.0 0.0 0.0 / -0.77883910 0.55171210 / 0.0 0.0 / 0.0 0.0 / 0.0 0.0 / 0.0 0.0 / 0.0 0.0
				0.00000000 -0.16894530 0.04345703 / -0.06640625 -0.99609380 0.00000000 / 130 130 130 255 / 0.0 0.0 0.0 0.0 / -0.93525700 0.76617430 / 0.0 0.0 / 0.0 0.0 / 0.0 0.0 / 0.0 0.0 / 0.0 0.0
				0.00000000 -0.16894530 0.00195313 / 0.06640625 -0.99609380 0.00000000 / 176 176 176 255 / 0.0 0.0 0.0 0.0 / -0.93855290 0.55444340 / 0.0 0.0 / 0.0 0.0 / 0.0 0.0 / 0.0 0.0 / 0.0 0.0
				0.03125000 -0.16259770 0.04345703 / 0.31250000 -0.94921880 0.00000000 / 112 112 112 255 / 0.0 0.0 0.0 0.0 / -1.09544400 0.76852420 / 0.0 0.0 / 0.0 0.0 / 0.0 0.0 / 0.0 0.0 / 0.0 0.0
				0.00000000 -0.16894530 0.04345703 / -0.06640625 -0.99609380 0.00000000 / 112 112 112 255 / 0.0 0.0 0.0 0.0 / -0.93525700 0.76617430 / 0.0 0.0 / 0.0 0.0 / 0.0 0.0 / 0.0 0.0 / 0.0 0.0
				0.03125000 -0.16259770 0.00195313 / 0.43359380 -0.90234380 0.00000000 / 176 176 176 255 / 0.0 0.0 0.0 0.0 / -1.09823600 0.55677790 / 0.0 0.0 / 0.0 0.0 / 0.0 0.0 / 0.0 0.0 / 0.0 0.0
				0.05664062 -0.14599610 0.04345703 / 0.64453120 -0.76171880 0.00000000 / 102 102 102 255 / 0.0 0.0 0.0 0.0 / -1.24977100 0.77038570 / 0.0 0.0 / 0.0 0.0 / 0.0 0.0 / 0.0 0.0 / 0.0 0.0
				0.03125000 -0.16259770 0.04345703 / 0.31250000 -0.94921880 0.00000000 / 102 102 102 255 / 0.0 0.0 0.0 0.0 / -1.09544400 0.76852420 / 0.0 0.0 / 0.0 0.0 / 0.0 0.0 / 0.0 0.0 / 0.0 0.0
				0.05664062 -0.14599610 0.00195313 / 0.73828120 -0.67578120 0.00000000 / 176 176 176 255 / 0.0 0.0 0.0 0.0 / -1.25198400 0.55863950 / 0.0 0.0 / 0.0 0.0 / 0.0 0.0 / 0.0 0.0 / 0.0 0.0
				0.07373047 -0.12158200 0.04345703 / 0.88671870 -0.46093750 0.00000000 / 93 93 93 255 / 0.0 0.0 0.0 0.0 / -1.40228300 0.77177430 / 0.0 0.0 / 0.0 0.0 / 0.0 0.0 / 0.0 0.0 / 0.0 0.0
				0.07373047 -0.12158200 0.00195313 / 0.94140630 -0.33203120 0.00000000 / 176 176 176 255 / 0.0 0.0 0.0 0.0 / -1.40388500 0.56004330 / 0.0 0.0 / 0.0 0.0 / 0.0 0.0 / 0.0 0.0 / 0.0 0.0
				0.08007813 -0.09179687 0.00195313 / 1.00000000 -0.01562500 0.00000000 / 176 176 176 255 / 0.0 0.0 0.0 0.0 / -1.55926500 0.56079100 / 0.0 0.0 / 0.0 0.0 / 0.0 0.0 / 0.0 0.0 / 0.0 0.0
				0.08007813 -0.09179687 0.04345703 / 1.00000000 -0.05078125 0.00000000 / 90 90 90 255 / 0.0 0.0 0.0 0.0 / -1.55835000 0.77272030 / 0.0 0.0 / 0.0 0.0 / 0.0 0.0 / 0.0 0.0 / 0.0 0.0
				0.07373047 -0.12158200 0.04345703 / 0.88671870 -0.46093750 0.00000000 / 94 94 94 255 / 0.0 0.0 0.0 0.0 / -1.40228300 0.77177430 / 0.0 0.0 / 0.0 0.0 / 0.0 0.0 / 0.0 0.0 / 0.0 0.0
				-0.07324219 -0.12158200 0.00195313 / -0.88671870 -0.46093750 0.00000000 / 176 176 176 255 / 0.0 0.0 0.0 0.0 / -0.47294620 0.54568480 / 0.0 0.0 / 0.0 0.0 / 0.0 0.0 / 0.0 0.0 / 0.0 0.0
				-0.05615234 -0.14599610 0.00195313 / -0.64453120 -0.76171880 0.00000000 / 168 168 168 255 / 0.0 0.0 0.0 0.0 / -0.62500000 0.54879760 / 0.0 0.0 / 0.0 0.0 / 0.0 0.0 / 0.0 0.0 / 0.0 0.0
				-0.05615234 -0.14599610 0.04345703 / -0.73828120 -0.67578120 0.00000000 / 164 164 164 255 / 0.0 0.0 0.0 0.0 / -0.62091060 0.76051330 / 0.0 0.0 / 0.0 0.0 / 0.0 0.0 / 0.0 0.0 / 0.0 0.0
				-0.07324219 -0.12158200 0.04345703 / -0.94140630 -0.33203120 0.00000000 / 171 171 171 255 / 0.0 0.0 0.0 0.0 / -0.46861270 0.75738530 / 0.0 0.0 / 0.0 0.0 / 0.0 0.0 / 0.0 0.0 / 0.0 0.0
				-0.07958985 -0.09179687 0.00195313 / -1.00000000 -0.05078125 0.00000000 / 176 176 176 255 / 0.0 0.0 0.0 0.0 / -0.31730650 0.54235840 / 0.0 0.0 / 0.0 0.0 / 0.0 0.0 / 0.0 0.0 / 0.0 0.0
				-0.07958985 -0.09179687 0.04345703 / -1.00000000 -0.01562500 0.00000000 / 174 174 174 255 / 0.0 0.0 0.0 0.0 / -0.31283570 0.75405880 / 0.0 0.0 / 0.0 0.0 / 0.0 0.0 / 0.0 0.0 / 0.0 0.0
				-0.07958985 0.09228516 0.00195313 / -1.00000000 0.01562500 0.00000000 / 176 176 176 255 / 0.0 0.0 0.0 0.0 / 0.61660760 0.52233890 / 0.0 0.0 / 0.0 0.0 / 0.0 0.0 / 0.0 0.0 / 0.0 0.0
				-0.07958985 0.09228516 0.04345703 / -1.00000000 0.05078125 0.00000000 / 173 173 173 255 / 0.0 0.0 0.0 0.0 / 0.62112430 0.73403930 / 0.0 0.0 / 0.0 0.0 / 0.0 0.0 / 0.0 0.0 / 0.0 0.0
				-0.07324219 0.12207030 0.00195313 / -0.94140630 0.33203120 0.00000000 / 176 176 176 255 / 0.0 0.0 0.0 0.0 / 0.77233890 0.51893620 / 0.0 0.0 / 0.0 0.0 / 0.0 0.0 / 0.0 0.0 / 0.0 0.0
				-0.07324219 0.12207030 0.04345703 / -0.88671870 0.45703120 0.00000000 / 171 171 171 255 / 0.0 0.0 0.0 0.0 / 0.77680970 0.73065190 / 0.0 0.0 / 0.0 0.0 / 0.0 0.0 / 0.0 0.0 / 0.0 0.0
				-0.05615234 0.14648440 0.00195313 / -0.73828120 0.67578120 0.00000000 / 176 176 176 255 / 0.0 0.0 0.0 0.0 / 0.92459110 0.51568600 / 0.0 0.0 / 0.0 0.0 / 0.0 0.0 / 0.0 0.0 / 0.0 0.0
				-0.05615234 0.14648440 0.04345703 / -0.64453120 0.76171880 0.00000000 / 164 164 164 255 / 0.0 0.0 0.0 0.0 / 0.92890930 0.72740170 / 0.0 0.0 / 0.0 0.0 / 0.0 0.0 / 0.0 0.0 / 0.0 0.0
				-0.03076172 0.16308590 0.00195313 / -0.43359380 0.90234380 0.00000000 / 176 176 176 255 / 0.0 0.0 0.0 0.0 / 1.07873500 0.51255800 / 0.0 0.0 / 0.0 0.0 / 0.0 0.0 / 0.0 0.0 / 0.0 0.0
				-0.03076172 0.16308590 0.04345703 / -0.31250000 0.94921880 0.00000000 / 150 150 150 255 / 0.0 0.0 0.0 0.0 / 1.08277900 0.72427370 / 0.0 0.0 / 0.0 0.0 / 0.0 0.0 / 0.0 0.0 / 0.0 0.0
				0.00000000 0.16943360 0.00195313 / -0.06640625 0.99609380 0.00000000 / 176 176 176 255 / 0.0 0.0 0.0 0.0 / 1.23884600 0.50955200 / 0.0 0.0 / 0.0 0.0 / 0.0 0.0 / 0.0 0.0 / 0.0 0.0
				-0.03076172 0.16308590 0.04345703 / -0.31250000 0.94921880 0.00000000 / 149 149 149 255 / 0.0 0.0 0.0 0.0 / 1.08277900 0.72427370 / 0.0 0.0 / 0.0 0.0 / 0.0 0.0 / 0.0 0.0 / 0.0 0.0
				0.00000000 0.16943360 0.04345703 / 0.06640625 0.99609380 0.00000000 / 125 125 125 255 / 0.0 0.0 0.0 0.0 / 1.24252300 0.72128290 / 0.0 0.0 / 0.0 0.0 / 0.0 0.0 / 0.0 0.0 / 0.0 0.0
				0.03125000 0.16308590 0.00195313 / 0.31250000 0.94921880 0.00000000 / 176 176 176 255 / 0.0 0.0 0.0 0.0 / 1.39901700 0.50688170 / 0.0 0.0 / 0.0 0.0 / 0.0 0.0 / 0.0 0.0 / 0.0 0.0
				0.03125000 0.16308590 0.04345703 / 0.43359380 0.90234380 0.00000000 / 110 110 110 255 / 0.0 0.0 0.0 0.0 / 1.40222200 0.71862790 / 0.0 0.0 / 0.0 0.0 / 0.0 0.0 / 0.0 0.0 / 0.0 0.0
				0.05664062 0.14648440 0.00195313 / 0.64453120 0.76171880 0.00000000 / 176 176 176 255 / 0.0 0.0 0.0 0.0 / 1.55329900 0.50468450 / 0.0 0.0 / 0.0 0.0 / 0.0 0.0 / 0.0 0.0 / 0.0 0.0
				0.05664062 0.14648440 0.04345703 / 0.73828120 0.67578120 0.00000000 / 110 110 110 255 / 0.0 0.0 0.0 0.0 / 1.55598500 0.71643060 / 0.0 0.0 / 0.0 0.0 / 0.0 0.0 / 0.0 0.0 / 0.0 0.0
				0.07373047 0.12207030 0.00195313 / 0.88671870 0.45703120 0.00000000 / 176 176 176 255 / 0.0 0.0 0.0 0.0 / 1.70579500 0.50292970 / 0.0 0.0 / 0.0 0.0 / 0.0 0.0 / 0.0 0.0 / 0.0 0.0
				0.05664062 0.14648440 0.00195313 / 0.64453120 0.76171880 0.00000000 / 184 184 184 255 / 0.0 0.0 0.0 0.0 / 1.55329900 0.50468450 / 0.0 0.0 / 0.0 0.0 / 0.0 0.0 / 0.0 0.0 / 0.0 0.0
				0.05664062 0.14648440 0.04345703 / 0.73828120 0.67578120 0.00000000 / 100 100 100 255 / 0.0 0.0 0.0 0.0 / 1.55598500 0.71643060 / 0.0 0.0 / 0.0 0.0 / 0.0 0.0 / 0.0 0.0 / 0.0 0.0
				0.07373047 0.12207030 0.04345703 / 0.94140630 0.33203120 0.00000000 / 91 91 91 255 / 0.0 0.0 0.0 0.0 / 1.70790100 0.71466060 / 0.0 0.0 / 0.0 0.0 / 0.0 0.0 / 0.0 0.0 / 0.0 0.0
				0.08007813 0.09228516 0.00195313 / 1.00000000 0.05078125 0.00000000 / 176 176 176 255 / 0.0 0.0 0.0 0.0 / 1.86184700 0.50160220 / 0.0 0.0 / 0.0 0.0 / 0.0 0.0 / 0.0 0.0 / 0.0 0.0
				0.07373047 0.12207030 0.04345703 / 0.94140630 0.33203120 0.00000000 / 92 92 92 255 / 0.0 0.0 0.0 0.0 / 1.70790100 0.71466060 / 0.0 0.0 / 0.0 0.0 / 0.0 0.0 / 0.0 0.0 / 0.0 0.0
				0.08007813 0.09228516 0.04345703 / 1.00000000 0.01562500 0.00000000 / 89 89 89 255 / 0.0 0.0 0.0 0.0 / 1.86337300 0.71321110 / 0.0 0.0 / 0.0 0.0 / 0.0 0.0 / 0.0 0.0 / 0.0 0.0
				0.08007813 -0.09179687 0.00195313 / 1.00000000 -0.01562500 0.00000000 / 176 176 176 255 / 0.0 0.0 0.0 0.0 / 2.79629500 0.49630740 / 0.0 0.0 / 0.0 0.0 / 0.0 0.0 / 0.0 0.0 / 0.0 0.0
				0.08007813 -0.09179687 0.04345703 / 1.00000000 -0.05078125 0.00000000 / 90 90 90 255 / 0.0 0.0 0.0 0.0 / 2.79715000 0.70892330 / 0.0 0.0 / 0.0 0.0 / 0.0 0.0 / 0.0 0.0 / 0.0 0.0
				-0.07519531 -0.08056641 -0.02636719 / -0.49609370 -0.86718750 -0.03515625 / 213 213 213 255 / 0.0 0.0 0.0 0.0 / 0.01301575 0.88436890 / 0.0 0.0 / 0.0 0.0 / 0.0 0.0 / 0.0 0.0 / 0.0 0.0
				-0.07519531 -0.08056641 0.00341797 / -0.50000000 -0.86718750 0.00000000 / 176 176 176 255 / 0.0 0.0 0.0 0.0 / 0.01301575 0.98600770 / 0.0 0.0 / 0.0 0.0 / 0.0 0.0 / 0.0 0.0 / 0.0 0.0
				-0.07910156 -0.07861328 0.00341797 / -0.50000000 -0.86718750 0.00000000 / 176 176 176 255 / 0.0 0.0 0.0 0.0 / 0.00000000 0.98600770 / 0.0 0.0 / 0.0 0.0 / 0.0 0.0 / 0.0 0.0 / 0.0 0.0
				-0.07910156 -0.07861328 -0.02685547 / -0.49218750 -0.86718750 -0.07031250 / 213 213 213 255 / 0.0 0.0 0.0 0.0 / 0.00000000 0.88436890 / 0.0 0.0 / 0.0 0.0 / 0.0 0.0 / 0.0 0.0 / 0.0 0.0
				-0.06884766 -0.08056641 -0.05419922 / -0.46093750 -0.87109370 -0.17187500 / 213 213 213 255 / 0.0 0.0 0.0 0.0 / 0.01301575 0.78704840 / 0.0 0.0 / 0.0 0.0 / 0.0 0.0 / 0.0 0.0 / 0.0 0.0
				-0.07226562 -0.07861328 -0.05615234 / -0.43359380 -0.87109370 -0.23437500 / 213 213 213 255 / 0.0 0.0 0.0 0.0 / 0.00000000 0.78704840 / 0.0 0.0 / 0.0 0.0 / 0.0 0.0 / 0.0 0.0 / 0.0 0.0
				-0.05224610 -0.08056641 -0.07714844 / -0.35937500 -0.86718750 -0.33984380 / 213 213 213 255 / 0.0 0.0 0.0 0.0 / 0.01301575 0.69084160 / 0.0 0.0 / 0.0 0.0 / 0.0 0.0 / 0.0 0.0 / 0.0 0.0
				-0.05468750 -0.07861328 -0.08007813 / -0.31640630 -0.87109370 -0.37890620 / 213 213 213 255 / 0.0 0.0 0.0 0.0 / 0.00000000 0.69084160 / 0.0 0.0 / 0.0 0.0 / 0.0 0.0 / 0.0 0.0 / 0.0 0.0
				-0.02832031 -0.08056641 -0.09228516 / -0.21093750 -0.87109370 -0.44531250 / 213 213 213 255 / 0.0 0.0 0.0 0.0 / 0.01301575 0.59344480 / 0.0 0.0 / 0.0 0.0 / 0.0 0.0 / 0.0 0.0 / 0.0 0.0
				-0.02978515 -0.07861328 -0.09619141 / -0.15625000 -0.87109370 -0.46875000 / 213 213 213 255 / 0.0 0.0 0.0 0.0 / 0.00000000 0.59344480 / 0.0 0.0 / 0.0 0.0 / 0.0 0.0 / 0.0 0.0 / 0.0 0.0
				0.00000000 -0.08056641 -0.09814453 / -0.03515625 -0.87109370 -0.49218750 / 213 213 213 255 / 0.0 0.0 0.0 0.0 / 0.01301575 0.49453730 / 0.0 0.0 / 0.0 0.0 / 0.0 0.0 / 0.0 0.0 / 0.0 0.0
				0.00000000 -0.07861328 -0.10205080 / 0.03125000 -0.87109370 -0.49218750 / 213 213 213 255 / 0.0 0.0 0.0 0.0 / 0.00000000 0.49453730 / 0.0 0.0 / 0.0 0.0 / 0.0 0.0 / 0.0 0.0 / 0.0 0.0
				0.02832031 -0.08056641 -0.09228516 / 0.15234370 -0.87109370 -0.46875000 / 213 213 213 255 / 0.0 0.0 0.0 0.0 / 0.01301575 0.39562990 / 0.0 0.0 / 0.0 0.0 / 0.0 0.0 / 0.0 0.0 / 0.0 0.0
				0.02978515 -0.07861328 -0.09619141 / 0.21093750 -0.87109370 -0.44531250 / 213 213 213 255 / 0.0 0.0 0.0 0.0 / 0.00000000 0.39562990 / 0.0 0.0 / 0.0 0.0 / 0.0 0.0 / 0.0 0.0 / 0.0 0.0
				0.05273437 -0.08056641 -0.07714844 / 0.31250000 -0.87109370 -0.38281250 / 213 213 213 255 / 0.0 0.0 0.0 0.0 / 0.01301575 0.29823300 / 0.0 0.0 / 0.0 0.0 / 0.0 0.0 / 0.0 0.0 / 0.0 0.0
				0.05517578 -0.07861328 -0.08007813 / 0.35937500 -0.87109370 -0.33984380 / 213 213 213 255 / 0.0 0.0 0.0 0.0 / 0.00000000 0.29823300 / 0.0 0.0 / 0.0 0.0 / 0.0 0.0 / 0.0 0.0 / 0.0 0.0
				0.06933594 -0.08056641 -0.05419922 / 0.43359380 -0.87109370 -0.23437500 / 213 213 213 255 / 0.0 0.0 0.0 0.0 / 0.01301575 0.20201110 / 0.0 0.0 / 0.0 0.0 / 0.0 0.0 / 0.0 0.0 / 0.0 0.0
				0.07275391 -0.07861328 -0.05615234 / 0.46093750 -0.87109370 -0.17187500 / 213 213 213 255 / 0.0 0.0 0.0 0.0 / 0.00000000 0.20201110 / 0.0 0.0 / 0.0 0.0 / 0.0 0.0 / 0.0 0.0 / 0.0 0.0
				0.07568359 -0.08056641 -0.02636719 / 0.49218750 -0.86718750 -0.07031250 / 213 213 213 255 / 0.0 0.0 0.0 0.0 / 0.01301575 0.10469050 / 0.0 0.0 / 0.0 0.0 / 0.0 0.0 / 0.0 0.0 / 0.0 0.0
				0.07910156 -0.07861328 -0.02685547 / 0.49609370 -0.86718750 -0.03515625 / 213 213 213 255 / 0.0 0.0 0.0 0.0 / 0.00000000 0.10469050 / 0.0 0.0 / 0.0 0.0 / 0.0 0.0 / 0.0 0.0 / 0.0 0.0
				0.07568359 -0.08056641 0.00439453 / 0.50000000 -0.86718750 0.00000000 / 176 176 176 255 / 0.0 0.0 0.0 0.0 / 0.01301575 0.00000000 / 0.0 0.0 / 0.0 0.0 / 0.0 0.0 / 0.0 0.0 / 0.0 0.0
				0.07910156 -0.07861328 0.00439453 / 0.50000000 -0.86718750 0.00000000 / 176 176 176 255 / 0.0 0.0 0.0 0.0 / 0.00000000 0.00000000 / 0.0 0.0 / 0.0 0.0 / 0.0 0.0 / 0.0 0.0 / 0.0 0.0
				-0.07519531 -0.07617188 -0.02636719 / 0.99609380 0.00000000 0.07031250 / 213 213 213 255 / 0.0 0.0 0.0 0.0 / 0.02604675 0.88436890 / 0.0 0.0 / 0.0 0.0 / 0.0 0.0 / 0.0 0.0 / 0.0 0.0
				-0.07519531 -0.07617188 0.00341797 / 1.00000000 0.00000000 0.00000000 / 176 176 176 255 / 0.0 0.0 0.0 0.0 / 0.02604675 0.98600770 / 0.0 0.0 / 0.0 0.0 / 0.0 0.0 / 0.0 0.0 / 0.0 0.0
				-0.07519531 -0.08056641 0.00341797 / 1.00000000 0.00000000 0.00000000 / 176 176 176 255 / 0.0 0.0 0.0 0.0 / 0.01301575 0.98600770 / 0.0 0.0 / 0.0 0.0 / 0.0 0.0 / 0.0 0.0 / 0.0 0.0
				-0.07519531 -0.08056641 -0.02636719 / 0.98828130 0.00000000 0.14453130 / 213 213 213 255 / 0.0 0.0 0.0 0.0 / 0.01301575 0.88436890 / 0.0 0.0 / 0.0 0.0 / 0.0 0.0 / 0.0 0.0 / 0.0 0.0
				-0.06884766 -0.07617188 -0.05419922 / 0.93750000 0.00000000 0.34765630 / 213 213 213 255 / 0.0 0.0 0.0 0.0 / 0.02604675 0.78704840 / 0.0 0.0 / 0.0 0.0 / 0.0 0.0 / 0.0 0.0 / 0.0 0.0
				-0.06884766 -0.08056641 -0.05419922 / 0.87890620 0.00000000 0.47656250 / 213 213 213 255 / 0.0 0.0 0.0 0.0 / 0.01301575 0.78704840 / 0.0 0.0 / 0.0 0.0 / 0.0 0.0 / 0.0 0.0 / 0.0 0.0
				-0.05224610 -0.07617188 -0.07714844 / 0.72656250 0.00000000 0.68750000 / 213 213 213 255 / 0.0 0.0 0.0 0.0 / 0.02604675 0.69084160 / 0.0 0.0 / 0.0 0.0 / 0.0 0.0 / 0.0 0.0 / 0.0 0.0
				-0.05224610 -0.08056641 -0.07714844 / 0.63671870 0.00000000 0.77343750 / 213 213 213 255 / 0.0 0.0 0.0 0.0 / 0.01301575 0.69084160 / 0.0 0.0 / 0.0 0.0 / 0.0 0.0 / 0.0 0.0 / 0.0 0.0
				-0.02832031 -0.07617188 -0.09228516 / 0.42968750 0.00000000 0.90234380 / 213 213 213 255 / 0.0 0.0 0.0 0.0 / 0.02604675 0.59344480 / 0.0 0.0 / 0.0 0.0 / 0.0 0.0 / 0.0 0.0 / 0.0 0.0
				-0.02832031 -0.08056641 -0.09228516 / 0.31250000 0.00000000 0.94921880 / 213 213 213 255 / 0.0 0.0 0.0 0.0 / 0.01301575 0.59344480 / 0.0 0.0 / 0.0 0.0 / 0.0 0.0 / 0.0 0.0 / 0.0 0.0
				0.00000000 -0.07617188 -0.09814453 / 0.06640625 0.00000000 0.99609380 / 213 213 213 255 / 0.0 0.0 0.0 0.0 / 0.02604675 0.49453730 / 0.0 0.0 / 0.0 0.0 / 0.0 0.0 / 0.0 0.0 / 0.0 0.0
				0.00000000 -0.08056641 -0.09814453 / -0.06640625 0.00000000 0.99609380 / 213 213 213 255 / 0.0 0.0 0.0 0.0 / 0.01301575 0.49453730 / 0.0 0.0 / 0.0 0.0 / 0.0 0.0 / 0.0 0.0 / 0.0 0.0
				0.02832031 -0.07617188 -0.09228516 / -0.31250000 0.00000000 0.94921880 / 213 213 213 255 / 0.0 0.0 0.0 0.0 / 0.02604675 0.39562990 / 0.0 0.0 / 0.0 0.0 / 0.0 0.0 / 0.0 0.0 / 0.0 0.0
				0.02832031 -0.08056641 -0.09228516 / -0.42968750 0.00000000 0.90234380 / 213 213 213 255 / 0.0 0.0 0.0 0.0 / 0.01301575 0.39562990 / 0.0 0.0 / 0.0 0.0 / 0.0 0.0 / 0.0 0.0 / 0.0 0.0
				0.05273437 -0.07617188 -0.07714844 / -0.63671870 0.00000000 0.77343750 / 213 213 213 255 / 0.0 0.0 0.0 0.0 / 0.02604675 0.29823300 / 0.0 0.0 / 0.0 0.0 / 0.0 0.0 / 0.0 0.0 / 0.0 0.0
				0.05273437 -0.08056641 -0.07714844 / -0.72656250 0.00000000 0.68750000 / 213 213 213 255 / 0.0 0.0 0.0 0.0 / 0.01301575 0.29823300 / 0.0 0.0 / 0.0 0.0 / 0.0 0.0 / 0.0 0.0 / 0.0 0.0
				0.06933594 -0.07617188 -0.05419922 / -0.87890620 0.00000000 0.47656250 / 213 213 213 255 / 0.0 0.0 0.0 0.0 / 0.02604675 0.20201110 / 0.0 0.0 / 0.0 0.0 / 0.0 0.0 / 0.0 0.0 / 0.0 0.0
				0.06933594 -0.08056641 -0.05419922 / -0.93750000 0.00000000 0.34765630 / 213 213 213 255 / 0.0 0.0 0.0 0.0 / 0.01301575 0.20201110 / 0.0 0.0 / 0.0 0.0 / 0.0 0.0 / 0.0 0.0 / 0.0 0.0
				0.07568359 -0.07617188 -0.02636719 / -0.98828130 0.00000000 0.14062500 / 213 213 213 255 / 0.0 0.0 0.0 0.0 / 0.02604675 0.10469050 / 0.0 0.0 / 0.0 0.0 / 0.0 0.0 / 0.0 0.0 / 0.0 0.0
				0.07568359 -0.08056641 -0.02636719 / -0.99609380 0.00000000 0.07031250 / 213 213 213 255 / 0.0 0.0 0.0 0.0 / 0.01301575 0.10469050 / 0.0 0.0 / 0.0 0.0 / 0.0 0.0 / 0.0 0.0 / 0.0 0.0
				0.07568359 -0.07617188 0.00439453 / -1.00000000 0.00000000 0.00000000 / 176 176 176 255 / 0.0 0.0 0.0 0.0 / 0.02604675 0.00000000 / 0.0 0.0 / 0.0 0.0 / 0.0 0.0 / 0.0 0.0 / 0.0 0.0
				0.07568359 -0.08056641 0.00439453 / -1.00000000 0.00000000 0.00000000 / 176 176 176 255 / 0.0 0.0 0.0 0.0 / 0.01301575 0.00000000 / 0.0 0.0 / 0.0 0.0 / 0.0 0.0 / 0.0 0.0 / 0.0 0.0
				-0.07910156 -0.07861328 -0.02685547 / -0.49609370 0.86718750 -0.03515625 / 213 213 213 255 / 0.0 0.0 0.0 0.0 / 0.03906250 0.88436890 / 0.0 0.0 / 0.0 0.0 / 0.0 0.0 / 0.0 0.0 / 0.0 0.0
				-0.07910156 -0.07861328 0.00341797 / -0.50000000 0.86718750 0.00000000 / 176 176 176 255 / 0.0 0.0 0.0 0.0 / 0.03906250 0.98600770 / 0.0 0.0 / 0.0 0.0 / 0.0 0.0 / 0.0 0.0 / 0.0 0.0
				-0.07519531 -0.07617188 0.00341797 / -0.50000000 0.86718750 0.00000000 / 176 176 176 255 / 0.0 0.0 0.0 0.0 / 0.02604675 0.98600770 / 0.0 0.0 / 0.0 0.0 / 0.0 0.0 / 0.0 0.0 / 0.0 0.0
				-0.07519531 -0.07617188 -0.02636719 / -0.49218750 0.86718750 -0.07031250 / 213 213 213 255 / 0.0 0.0 0.0 0.0 / 0.02604675 0.88436890 / 0.0 0.0 / 0.0 0.0 / 0.0 0.0 / 0.0 0.0 / 0.0 0.0
				-0.07226562 -0.07861328 -0.05615234 / -0.46093750 0.87109370 -0.17187500 / 213 213 213 255 / 0.0 0.0 0.0 0.0 / 0.03906250 0.78704840 / 0.0 0.0 / 0.0 0.0 / 0.0 0.0 / 0.0 0.0 / 0.0 0.0
				-0.06884766 -0.07617188 -0.05419922 / -0.43359380 0.87109370 -0.23437500 / 213 213 213 255 / 0.0 0.0 0.0 0.0 / 0.02604675 0.78704840 / 0.0 0.0 / 0.0 0.0 / 0.0 0.0 / 0.0 0.0 / 0.0 0.0
				-0.05468750 -0.07861328 -0.08007813 / -0.35937500 0.87109370 -0.33984380 / 213 213 213 255 / 0.0 0.0 0.0 0.0 / 0.03906250 0.69084160 / 0.0 0.0 / 0.0 0.0 / 0.0 0.0 / 0.0 0.0 / 0.0 0.0
				-0.05224610 -0.07617188 -0.07714844 / -0.31250000 0.87109370 -0.38281250 / 213 213 213 255 / 0.0 0.0 0.0 0.0 / 0.02604675 0.69084160 / 0.0 0.0 / 0.0 0.0 / 0.0 0.0 / 0.0 0.0 / 0.0 0.0
				-0.02978515 -0.07861328 -0.09619141 / -0.21093750 0.87109370 -0.44531250 / 213 213 213 255 / 0.0 0.0 0.0 0.0 / 0.03906250 0.59344480 / 0.0 0.0 / 0.0 0.0 / 0.0 0.0 / 0.0 0.0 / 0.0 0.0
				-0.02832031 -0.07617188 -0.09228516 / -0.15234370 0.87109370 -0.46875000 / 213 213 213 255 / 0.0 0.0 0.0 0.0 / 0.02604675 0.59344480 / 0.0 0.0 / 0.0 0.0 / 0.0 0.0 / 0.0 0.0 / 0.0 0.0
				0.00000000 -0.07861328 -0.10205080 / -0.03125000 0.87109370 -0.49218750 / 213 213 213 255 / 0.0 0.0 0.0 0.0 / 0.03906250 0.49453730 / 0.0 0.0 / 0.0 0.0 / 0.0 0.0 / 0.0 0.0 / 0.0 0.0
				0.00000000 -0.07617188 -0.09814453 / 0.03515625 0.87109370 -0.49218750 / 213 213 213 255 / 0.0 0.0 0.0 0.0 / 0.02604675 0.49453730 / 0.0 0.0 / 0.0 0.0 / 0.0 0.0 / 0.0 0.0 / 0.0 0.0
				0.02978515 -0.07861328 -0.09619141 / 0.15625000 0.87109370 -0.46875000 / 213 213 213 255 / 0.0 0.0 0.0 0.0 / 0.03906250 0.39562990 / 0.0 0.0 / 0.0 0.0 / 0.0 0.0 / 0.0 0.0 / 0.0 0.0
				0.02832031 -0.07617188 -0.09228516 / 0.21093750 0.87109370 -0.44531250 / 213 213 213 255 / 0.0 0.0 0.0 0.0 / 0.02604675 0.39562990 / 0.0 0.0 / 0.0 0.0 / 0.0 0.0 / 0.0 0.0 / 0.0 0.0
				0.05517578 -0.07861328 -0.08007813 / 0.31640630 0.87109370 -0.37890620 / 213 213 213 255 / 0.0 0.0 0.0 0.0 / 0.03906250 0.29823300 / 0.0 0.0 / 0.0 0.0 / 0.0 0.0 / 0.0 0.0 / 0.0 0.0
				0.05273437 -0.07617188 -0.07714844 / 0.35937500 0.86718750 -0.33984380 / 213 213 213 255 / 0.0 0.0 0.0 0.0 / 0.02604675 0.29823300 / 0.0 0.0 / 0.0 0.0 / 0.0 0.0 / 0.0 0.0 / 0.0 0.0
				0.07275391 -0.07861328 -0.05615234 / 0.43359380 0.87109370 -0.23437500 / 213 213 213 255 / 0.0 0.0 0.0 0.0 / 0.03906250 0.20201110 / 0.0 0.0 / 0.0 0.0 / 0.0 0.0 / 0.0 0.0 / 0.0 0.0
				0.06933594 -0.07617188 -0.05419922 / 0.46093750 0.87109370 -0.17187500 / 213 213 213 255 / 0.0 0.0 0.0 0.0 / 0.02604675 0.20201110 / 0.0 0.0 / 0.0 0.0 / 0.0 0.0 / 0.0 0.0 / 0.0 0.0
				0.07910156 -0.07861328 -0.02685547 / 0.49218750 0.86718750 -0.07031250 / 213 213 213 255 / 0.0 0.0 0.0 0.0 / 0.03906250 0.10469050 / 0.0 0.0 / 0.0 0.0 / 0.0 0.0 / 0.0 0.0 / 0.0 0.0
				0.07568359 -0.07617188 -0.02636719 / 0.49609370 0.86718750 -0.03515625 / 213 213 213 255 / 0.0 0.0 0.0 0.0 / 0.02604675 0.10469050 / 0.0 0.0 / 0.0 0.0 / 0.0 0.0 / 0.0 0.0 / 0.0 0.0
				0.07910156 -0.07861328 0.00439453 / 0.50000000 0.86718750 0.00000000 / 176 176 176 255 / 0.0 0.0 0.0 0.0 / 0.03906250 0.00000000 / 0.0 0.0 / 0.0 0.0 / 0.0 0.0 / 0.0 0.0 / 0.0 0.0
				0.07568359 -0.07617188 0.00439453 / 0.50000000 0.86718750 0.00000000 / 176 176 176 255 / 0.0 0.0 0.0 0.0 / 0.02604675 0.00000000 / 0.0 0.0 / 0.0 0.0 / 0.0 0.0 / 0.0 0.0 / 0.0 0.0
				-0.03515625 0.15625000 -0.02050781 / -0.86718750 0.49609370 -0.03906250 / 213 213 213 255 / 0.0 0.0 0.0 0.0 / 0.01301575 0.93760680 / 0.0 0.0 / 0.0 0.0 / 0.0 0.0 / 0.0 0.0 / 0.0 0.0
				-0.03515625 0.15625000 0.00097656 / -0.86718750 0.50000000 0.00000000 / 176 176 176 255 / 0.0 0.0 0.0 0.0 / 0.01301575 0.98600770 / 0.0 0.0 / 0.0 0.0 / 0.0 0.0 / 0.0 0.0 / 0.0 0.0
				-0.03271484 0.16015630 0.00097656 / -0.86718750 0.50000000 0.00000000 / 176 176 176 255 / 0.0 0.0 0.0 0.0 / 0.00000000 0.98600770 / 0.0 0.0 / 0.0 0.0 / 0.0 0.0 / 0.0 0.0 / 0.0 0.0
				-0.03271484 0.16015630 -0.02099609 / -0.86718750 0.49218750 -0.07031250 / 213 213 213 255 / 0.0 0.0 0.0 0.0 / 0.00000000 0.93760680 / 0.0 0.0 / 0.0 0.0 / 0.0 0.0 / 0.0 0.0 / 0.0 0.0
				-0.03515625 0.15087890 -0.04882813 / -0.86718750 0.46875000 -0.15625000 / 213 213 213 255 / 0.0 0.0 0.0 0.0 / 0.01301575 0.87321470 / 0.0 0.0 / 0.0 0.0 / 0.0 0.0 / 0.0 0.0 / 0.0 0.0
				-0.03271484 0.15429690 -0.05029297 / -0.87109370 0.44140630 -0.21875000 / 213 213 213 255 / 0.0 0.0 0.0 0.0 / 0.00000000 0.87321470 / 0.0 0.0 / 0.0 0.0 / 0.0 0.0 / 0.0 0.0 / 0.0 0.0
				-0.03515625 0.13574220 -0.07128906 / -0.87109370 0.37109380 -0.32421880 / 213 213 213 255 / 0.0 0.0 0.0 0.0 / 0.01301575 0.81100470 / 0.0 0.0 / 0.0 0.0 / 0.0 0.0 / 0.0 0.0 / 0.0 0.0
				-0.03271484 0.13818360 -0.07421875 / -0.87109370 0.32812500 -0.37109380 / 213 213 213 255 / 0.0 0.0 0.0 0.0 / 0.00000000 0.81100470 / 0.0 0.0 / 0.0 0.0 / 0.0 0.0 / 0.0 0.0 / 0.0 0.0
				-0.03515625 0.11279300 -0.08642578 / -0.87109370 0.21875000 -0.44140630 / 213 213 213 255 / 0.0 0.0 0.0 0.0 / 0.01301575 0.74880980 / 0.0 0.0 / 0.0 0.0 / 0.0 0.0 / 0.0 0.0 / 0.0 0.0
				-0.03271484 0.11425780 -0.09033203 / -0.87109370 0.16015630 -0.46875000 / 213 213 213 255 / 0.0 0.0 0.0 0.0 / 0.00000000 0.74880980 / 0.0 0.0 / 0.0 0.0 / 0.0 0.0 / 0.0 0.0 / 0.0 0.0
				-0.03515625 0.08496094 -0.09228516 / -0.86718750 0.02343750 -0.50000000 / 213 213 213 255 / 0.0 0.0 0.0 0.0 / 0.01301575 0.68441770 / 0.0 0.0 / 0.0 0.0 / 0.0 0.0 / 0.0 0.0 / 0.0 0.0
				-0.03271484 0.08544922 -0.09619141 / -0.86718750 0.00781250 -0.50000000 / 213 213 213 255 / 0.0 0.0 0.0 0.0 / 0.00000000 0.68441770 / 0.0 0.0 / 0.0 0.0 / 0.0 0.0 / 0.0 0.0 / 0.0 0.0
				-0.03515625 -0.08544922 -0.09228516 / -0.86718750 -0.00781250 -0.50000000 / 213 213 213 255 / 0.0 0.0 0.0 0.0 / 0.01301575 0.30363460 / 0.0 0.0 / 0.0 0.0 / 0.0 0.0 / 0.0 0.0 / 0.0 0.0
				-0.03271484 -0.08544922 -0.09619141 / -0.86718750 -0.02343750 -0.50000000 / 213 213 213 255 / 0.0 0.0 0.0 0.0 / 0.00000000 0.30363460 / 0.0 0.0 / 0.0 0.0 / 0.0 0.0 / 0.0 0.0 / 0.0 0.0
				-0.03515625 -0.11328120 -0.08642578 / -0.87109370 -0.15625000 -0.46875000 / 213 213 213 255 / 0.0 0.0 0.0 0.0 / 0.01301575 0.23924250 / 0.0 0.0 / 0.0 0.0 / 0.0 0.0 / 0.0 0.0 / 0.0 0.0
				-0.03271484 -0.11474610 -0.09033203 / -0.87109370 -0.21875000 -0.44140630 / 213 213 213 255 / 0.0 0.0 0.0 0.0 / 0.00000000 0.23924250 / 0.0 0.0 / 0.0 0.0 / 0.0 0.0 / 0.0 0.0 / 0.0 0.0
				-0.03515625 -0.13574220 -0.07128906 / -0.86718750 -0.32421880 -0.37109380 / 213 213 213 255 / 0.0 0.0 0.0 0.0 / 0.01301575 0.17703250 / 0.0 0.0 / 0.0 0.0 / 0.0 0.0 / 0.0 0.0 / 0.0 0.0
				-0.03271484 -0.13867190 -0.07421875 / -0.87109370 -0.37109380 -0.32812500 / 213 213 213 255 / 0.0 0.0 0.0 0.0 / 0.00000000 0.17703250 / 0.0 0.0 / 0.0 0.0 / 0.0 0.0 / 0.0 0.0 / 0.0 0.0
				-0.03515625 -0.15087890 -0.04882813 / -0.87109370 -0.44140630 -0.21875000 / 213 213 213 255 / 0.0 0.0 0.0 0.0 / 0.01301575 0.11482240 / 0.0 0.0 / 0.0 0.0 / 0.0 0.0 / 0.0 0.0 / 0.0 0.0
				-0.03271484 -0.15478520 -0.05029297 / -0.87109370 -0.46484380 -0.16015630 / 213 213 213 255 / 0.0 0.0 0.0 0.0 / 0.00000000 0.11482240 / 0.0 0.0 / 0.0 0.0 / 0.0 0.0 / 0.0 0.0 / 0.0 0.0
				-0.03515625 -0.15673830 -0.02050781 / -0.86718750 -0.49218750 -0.07031250 / 213 213 213 255 / 0.0 0.0 0.0 0.0 / 0.01301575 0.05043030 / 0.0 0.0 / 0.0 0.0 / 0.0 0.0 / 0.0 0.0 / 0.0 0.0
				-0.03271484 -0.16064450 -0.02099609 / -0.86718750 -0.49609370 -0.03906250 / 213 213 213 255 / 0.0 0.0 0.0 0.0 / 0.00000000 0.05043030 / 0.0 0.0 / 0.0 0.0 / 0.0 0.0 / 0.0 0.0 / 0.0 0.0
				-0.03515625 -0.15673830 0.00195313 / -0.86718750 -0.50000000 0.00000000 / 176 176 176 255 / 0.0 0.0 0.0 0.0 / 0.01301575 0.00000000 / 0.0 0.0 / 0.0 0.0 / 0.0 0.0 / 0.0 0.0 / 0.0 0.0
				-0.03271484 -0.16064450 0.00195313 / -0.86718750 -0.50000000 0.00000000 / 176 176 176 255 / 0.0 0.0 0.0 0.0 / 0.00000000 0.00000000 / 0.0 0.0 / 0.0 0.0 / 0.0 0.0 / 0.0 0.0 / 0.0 0.0
				-0.03076172 0.15625000 -0.02050781 / 0.00000000 -0.99609380 0.07812500 / 213 213 213 255 / 0.0 0.0 0.0 0.0 / 0.02604675 0.93760680 / 0.0 0.0 / 0.0 0.0 / 0.0 0.0 / 0.0 0.0 / 0.0 0.0
				-0.03076172 0.15625000 0.00097656 / 0.00000000 -1.00000000 0.00000000 / 176 176 176 255 / 0.0 0.0 0.0 0.0 / 0.02604675 0.98600770 / 0.0 0.0 / 0.0 0.0 / 0.0 0.0 / 0.0 0.0 / 0.0 0.0
				-0.03515625 0.15625000 0.00097656 / 0.00000000 -1.00000000 0.00000000 / 176 176 176 255 / 0.0 0.0 0.0 0.0 / 0.01301575 0.98600770 / 0.0 0.0 / 0.0 0.0 / 0.0 0.0 / 0.0 0.0 / 0.0 0.0
				-0.03515625 0.15625000 -0.02050781 / 0.00000000 -0.98828130 0.14453130 / 213 213 213 255 / 0.0 0.0 0.0 0.0 / 0.01301575 0.93760680 / 0.0 0.0 / 0.0 0.0 / 0.0 0.0 / 0.0 0.0 / 0.0 0.0
				-0.03076172 0.15087890 -0.04882813 / 0.00000000 -0.94531250 0.32031250 / 213 213 213 255 / 0.0 0.0 0.0 0.0 / 0.02604675 0.87321470 / 0.0 0.0 / 0.0 0.0 / 0.0 0.0 / 0.0 0.0 / 0.0 0.0
				-0.03515625 0.15087890 -0.04882813 / 0.00000000 -0.89453130 0.44531250 / 213 213 213 255 / 0.0 0.0 0.0 0.0 / 0.01301575 0.87321470 / 0.0 0.0 / 0.0 0.0 / 0.0 0.0 / 0.0 0.0 / 0.0 0.0
				-0.03076172 0.13574220 -0.07128906 / 0.00000000 -0.75000000 0.66015630 / 213 213 213 255 / 0.0 0.0 0.0 0.0 / 0.02604675 0.81100470 / 0.0 0.0 / 0.0 0.0 / 0.0 0.0 / 0.0 0.0 / 0.0 0.0
				-0.03515625 0.13574220 -0.07128906 / 0.00000000 -0.66015630 0.75000000 / 213 213 213 255 / 0.0 0.0 0.0 0.0 / 0.01301575 0.81100470 / 0.0 0.0 / 0.0 0.0 / 0.0 0.0 / 0.0 0.0 / 0.0 0.0
				-0.03076172 0.11279300 -0.08642578 / 0.00000000 -0.44531250 0.89453130 / 213 213 213 255 / 0.0 0.0 0.0 0.0 / 0.02604675 0.74880980 / 0.0 0.0 / 0.0 0.0 / 0.0 0.0 / 0.0 0.0 / 0.0 0.0
				-0.03515625 0.11279300 -0.08642578 / 0.00000000 -0.32031250 0.94531250 / 213 213 213 255 / 0.0 0.0 0.0 0.0 / 0.01301575 0.74880980 / 0.0 0.0 / 0.0 0.0 / 0.0 0.0 / 0.0 0.0 / 0.0 0.0
				-0.03076172 0.08496094 -0.09228516 / 0.00000000 -0.05078125 1.00000000 / 213 213 213 255 / 0.0 0.0 0.0 0.0 / 0.02604675 0.68441770 / 0.0 0.0 / 0.0 0.0 / 0.0 0.0 / 0.0 0.0 / 0.0 0.0
				-0.03515625 0.08496094 -0.09228516 / 0.00000000 -0.01562500 1.00000000 / 213 213 213 255 / 0.0 0.0 0.0 0.0 / 0.01301575 0.68441770 / 0.0 0.0 / 0.0 0.0 / 0.0 0.0 / 0.0 0.0 / 0.0 0.0
				-0.03076172 -0.08544922 -0.09228516 / 0.00000000 0.01562500 1.00000000 / 213 213 213 255 / 0.0 0.0 0.0 0.0 / 0.02604675 0.30363460 / 0.0 0.0 / 0.0 0.0 / 0.0 0.0 / 0.0 0.0 / 0.0 0.0
				-0.03515625 -0.08544922 -0.09228516 / 0.00000000 0.05078125 1.00000000 / 213 213 213 255 / 0.0 0.0 0.0 0.0 / 0.01301575 0.30363460 / 0.0 0.0 / 0.0 0.0 / 0.0 0.0 / 0.0 0.0 / 0.0 0.0
				-0.03076172 -0.11328120 -0.08642578 / 0.00000000 0.32031250 0.94531250 / 213 213 213 255 / 0.0 0.0 0.0 0.0 / 0.02604675 0.23924250 / 0.0 0.0 / 0.0 0.0 / 0.0 0.0 / 0.0 0.0 / 0.0 0.0
				-0.03515625 -0.11328120 -0.08642578 / 0.00000000 0.44531250 0.89453130 / 213 213 213 255 / 0.0 0.0 0.0 0.0 / 0.01301575 0.23924250 / 0.0 0.0 / 0.0 0.0 / 0.0 0.0 / 0.0 0.0 / 0.0 0.0
				-0.03076172 -0.13574220 -0.07128906 / 0.00000000 0.66015630 0.75000000 / 213 213 213 255 / 0.0 0.0 0.0 0.0 / 0.02604675 0.17703250 / 0.0 0.0 / 0.0 0.0 / 0.0 0.0 / 0.0 0.0 / 0.0 0.0
				-0.03515625 -0.13574220 -0.07128906 / 0.00000000 0.75000000 0.66015630 / 213 213 213 255 / 0.0 0.0 0.0 0.0 / 0.01301575 0.17703250 / 0.0 0.0 / 0.0 0.0 / 0.0 0.0 / 0.0 0.0 / 0.0 0.0
				-0.03076172 -0.15087890 -0.04882813 / 0.00000000 0.89453130 0.44140630 / 213 213 213 255 / 0.0 0.0 0.0 0.0 / 0.02604675 0.11482240 / 0.0 0.0 / 0.0 0.0 / 0.0 0.0 / 0.0 0.0 / 0.0 0.0
				-0.03515625 -0.15087890 -0.04882813 / 0.00000000 0.94531250 0.32031250 / 213 213 213 255 / 0.0 0.0 0.0 0.0 / 0.01301575 0.11482240 / 0.0 0.0 / 0.0 0.0 / 0.0 0.0 / 0.0 0.0 / 0.0 0.0
				-0.03076172 -0.15673830 -0.02050781 / 0.00000000 0.98828130 0.14453130 / 213 213 213 255 / 0.0 0.0 0.0 0.0 / 0.02604675 0.05043030 / 0.0 0.0 / 0.0 0.0 / 0.0 0.0 / 0.0 0.0 / 0.0 0.0
				-0.03515625 -0.15673830 -0.02050781 / 0.00000000 0.99609380 0.07812500 / 213 213 213 255 / 0.0 0.0 0.0 0.0 / 0.01301575 0.05043030 / 0.0 0.0 / 0.0 0.0 / 0.0 0.0 / 0.0 0.0 / 0.0 0.0
				-0.03076172 -0.15673830 0.00195313 / 0.00000000 1.00000000 0.00000000 / 176 176 176 255 / 0.0 0.0 0.0 0.0 / 0.02604675 0.00000000 / 0.0 0.0 / 0.0 0.0 / 0.0 0.0 / 0.0 0.0 / 0.0 0.0
				-0.03515625 -0.15673830 0.00195313 / 0.00000000 1.00000000 0.00000000 / 176 176 176 255 / 0.0 0.0 0.0 0.0 / 0.01301575 0.00000000 / 0.0 0.0 / 0.0 0.0 / 0.0 0.0 / 0.0 0.0 / 0.0 0.0
				-0.03271484 0.16015630 -0.02099609 / 0.86718750 0.49609370 -0.03906250 / 213 213 213 255 / 0.0 0.0 0.0 0.0 / 0.03906250 0.93760680 / 0.0 0.0 / 0.0 0.0 / 0.0 0.0 / 0.0 0.0 / 0.0 0.0
				-0.03271484 0.16015630 0.00097656 / 0.86718750 0.50000000 0.00000000 / 176 176 176 255 / 0.0 0.0 0.0 0.0 / 0.03906250 0.98600770 / 0.0 0.0 / 0.0 0.0 / 0.0 0.0 / 0.0 0.0 / 0.0 0.0
				-0.03076172 0.15625000 0.00097656 / 0.86718750 0.50000000 0.00000000 / 176 176 176 255 / 0.0 0.0 0.0 0.0 / 0.02604675 0.98600770 / 0.0 0.0 / 0.0 0.0 / 0.0 0.0 / 0.0 0.0 / 0.0 0.0
				-0.03076172 0.15625000 -0.02050781 / 0.86718750 0.49218750 -0.07421875 / 213 213 213 255 / 0.0 0.0 0.0 0.0 / 0.02604675 0.93760680 / 0.0 0.0 / 0.0 0.0 / 0.0 0.0 / 0.0 0.0 / 0.0 0.0
				-0.03271484 0.15429690 -0.05029297 / 0.86718750 0.46875000 -0.16015630 / 213 213 213 255 / 0.0 0.0 0.0 0.0 / 0.03906250 0.87321470 / 0.0 0.0 / 0.0 0.0 / 0.0 0.0 / 0.0 0.0 / 0.0 0.0
				-0.03076172 0.15087890 -0.04882813 / 0.87109370 0.44140630 -0.21875000 / 213 213 213 255 / 0.0 0.0 0.0 0.0 / 0.02604675 0.87321470 / 0.0 0.0 / 0.0 0.0 / 0.0 0.0 / 0.0 0.0 / 0.0 0.0
				-0.03271484 0.13818360 -0.07421875 / 0.87109370 0.37109380 -0.32812500 / 213 213 213 255 / 0.0 0.0 0.0 0.0 / 0.03906250 0.81100470 / 0.0 0.0 / 0.0 0.0 / 0.0 0.0 / 0.0 0.0 / 0.0 0.0
				-0.03076172 0.13574220 -0.07128906 / 0.87109370 0.32421880 -0.37109380 / 213 213 213 255 / 0.0 0.0 0.0 0.0 / 0.02604675 0.81100470 / 0.0 0.0 / 0.0 0.0 / 0.0 0.0 / 0.0 0.0 / 0.0 0.0
				-0.03271484 0.11425780 -0.09033203 / 0.87109370 0.21875000 -0.44140630 / 213 213 213 255 / 0.0 0.0 0.0 0.0 / 0.03906250 0.74880980 / 0.0 0.0 / 0.0 0.0 / 0.0 0.0 / 0.0 0.0 / 0.0 0.0
				-0.03076172 0.11279300 -0.08642578 / 0.87109370 0.15625000 -0.46875000 / 213 213 213 255 / 0.0 0.0 0.0 0.0 / 0.02604675 0.74880980 / 0.0 0.0 / 0.0 0.0 / 0.0 0.0 / 0.0 0.0 / 0.0 0.0
				-0.03271484 0.08544922 -0.09619141 / 0.86718750 0.02343750 -0.50000000 / 213 213 213 255 / 0.0 0.0 0.0 0.0 / 0.03906250 0.68441770 / 0.0 0.0 / 0.0 0.0 / 0.0 0.0 / 0.0 0.0 / 0.0 0.0
				-0.03076172 0.08496094 -0.09228516 / 0.86718750 0.00781250 -0.50000000 / 213 213 213 255 / 0.0 0.0 0.0 0.0 / 0.02604675 0.68441770 / 0.0 0.0 / 0.0 0.0 / 0.0 0.0 / 0.0 0.0 / 0.0 0.0
				-0.03271484 -0.08544922 -0.09619141 / 0.86718750 -0.00781250 -0.50000000 / 213 213 213 255 / 0.0 0.0 0.0 0.0 / 0.03906250 0.30363460 / 0.0 0.0 / 0.0 0.0 / 0.0 0.0 / 0.0 0.0 / 0.0 0.0
				-0.03076172 -0.08544922 -0.09228516 / 0.86718750 -0.02343750 -0.50000000 / 213 213 213 255 / 0.0 0.0 0.0 0.0 / 0.02604675 0.30363460 / 0.0 0.0 / 0.0 0.0 / 0.0 0.0 / 0.0 0.0 / 0.0 0.0
				-0.03271484 -0.11474610 -0.09033203 / 0.87109370 -0.16015630 -0.46875000 / 213 213 213 255 / 0.0 0.0 0.0 0.0 / 0.03906250 0.23924250 / 0.0 0.0 / 0.0 0.0 / 0.0 0.0 / 0.0 0.0 / 0.0 0.0
				-0.03076172 -0.11328120 -0.08642578 / 0.87109370 -0.21875000 -0.44140630 / 213 213 213 255 / 0.0 0.0 0.0 0.0 / 0.02604675 0.23924250 / 0.0 0.0 / 0.0 0.0 / 0.0 0.0 / 0.0 0.0 / 0.0 0.0
				-0.03271484 -0.13867190 -0.07421875 / 0.87109370 -0.32812500 -0.37109380 / 213 213 213 255 / 0.0 0.0 0.0 0.0 / 0.03906250 0.17703250 / 0.0 0.0 / 0.0 0.0 / 0.0 0.0 / 0.0 0.0 / 0.0 0.0
				-0.03076172 -0.13574220 -0.07128906 / 0.87109370 -0.37109380 -0.32421880 / 213 213 213 255 / 0.0 0.0 0.0 0.0 / 0.02604675 0.17703250 / 0.0 0.0 / 0.0 0.0 / 0.0 0.0 / 0.0 0.0 / 0.0 0.0
				-0.03271484 -0.15478520 -0.05029297 / 0.87109370 -0.44140630 -0.21875000 / 213 213 213 255 / 0.0 0.0 0.0 0.0 / 0.03906250 0.11482240 / 0.0 0.0 / 0.0 0.0 / 0.0 0.0 / 0.0 0.0 / 0.0 0.0
				-0.03076172 -0.15087890 -0.04882813 / 0.87109370 -0.46484380 -0.15625000 / 213 213 213 255 / 0.0 0.0 0.0 0.0 / 0.02604675 0.11482240 / 0.0 0.0 / 0.0 0.0 / 0.0 0.0 / 0.0 0.0 / 0.0 0.0
				-0.03271484 -0.16064450 -0.02099609 / 0.86718750 -0.49218750 -0.07031250 / 213 213 213 255 / 0.0 0.0 0.0 0.0 / 0.03906250 0.05043030 / 0.0 0.0 / 0.0 0.0 / 0.0 0.0 / 0.0 0.0 / 0.0 0.0
				-0.03076172 -0.15673830 -0.02050781 / 0.86718750 -0.49609370 -0.03906250 / 213 213 213 255 / 0.0 0.0 0.0 0.0 / 0.02604675 0.05043030 / 0.0 0.0 / 0.0 0.0 / 0.0 0.0 / 0.0 0.0 / 0.0 0.0
				-0.03271484 -0.16064450 0.00195313 / 0.86718750 -0.50000000 0.00000000 / 176 176 176 255 / 0.0 0.0 0.0 0.0 / 0.03906250 0.00000000 / 0.0 0.0 / 0.0 0.0 / 0.0 0.0 / 0.0 0.0 / 0.0 0.0
				-0.03076172 -0.15673830 0.00195313 / 0.86718750 -0.50000000 0.00000000 / 176 176 176 255 / 0.0 0.0 0.0 0.0 / 0.02604675 0.00000000 / 0.0 0.0 / 0.0 0.0 / 0.0 0.0 / 0.0 0.0 / 0.0 0.0
				-0.07519531 0.07666016 -0.02636719 / -0.49609370 -0.86718750 -0.03515625 / 213 213 213 255 / 0.0 0.0 0.0 0.0 / 0.01301575 0.88436890 / 0.0 0.0 / 0.0 0.0 / 0.0 0.0 / 0.0 0.0 / 0.0 0.0
				-0.07519531 0.07666016 0.00341797 / -0.50000000 -0.86718750 0.00000000 / 176 176 176 255 / 0.0 0.0 0.0 0.0 / 0.01301575 0.98600770 / 0.0 0.0 / 0.0 0.0 / 0.0 0.0 / 0.0 0.0 / 0.0 0.0
				-0.07910156 0.07861328 0.00341797 / -0.50000000 -0.86718750 0.00000000 / 176 176 176 255 / 0.0 0.0 0.0 0.0 / 0.00000000 0.98600770 / 0.0 0.0 / 0.0 0.0 / 0.0 0.0 / 0.0 0.0 / 0.0 0.0
				-0.07910156 0.07861328 -0.02685547 / -0.49218750 -0.86718750 -0.07031250 / 213 213 213 255 / 0.0 0.0 0.0 0.0 / 0.00000000 0.88436890 / 0.0 0.0 / 0.0 0.0 / 0.0 0.0 / 0.0 0.0 / 0.0 0.0
				-0.06884766 0.07666016 -0.05419922 / -0.46093750 -0.87109370 -0.17187500 / 213 213 213 255 / 0.0 0.0 0.0 0.0 / 0.01301575 0.78704840 / 0.0 0.0 / 0.0 0.0 / 0.0 0.0 / 0.0 0.0 / 0.0 0.0
				-0.07226562 0.07861328 -0.05615234 / -0.43359380 -0.87109370 -0.23437500 / 213 213 213 255 / 0.0 0.0 0.0 0.0 / 0.00000000 0.78704840 / 0.0 0.0 / 0.0 0.0 / 0.0 0.0 / 0.0 0.0 / 0.0 0.0
				-0.05224610 0.07666016 -0.07714844 / -0.35937500 -0.86718750 -0.33984380 / 213 213 213 255 / 0.0 0.0 0.0 0.0 / 0.01301575 0.69084160 / 0.0 0.0 / 0.0 0.0 / 0.0 0.0 / 0.0 0.0 / 0.0 0.0
				-0.05468750 0.07861328 -0.08007813 / -0.31640630 -0.87109370 -0.37890620 / 213 213 213 255 / 0.0 0.0 0.0 0.0 / 0.00000000 0.69084160 / 0.0 0.0 / 0.0 0.0 / 0.0 0.0 / 0.0 0.0 / 0.0 0.0
				-0.02832031 0.07666016 -0.09228516 / -0.21093750 -0.87109370 -0.44531250 / 213 213 213 255 / 0.0 0.0 0.0 0.0 / 0.01301575 0.59344480 / 0.0 0.0 / 0.0 0.0 / 0.0 0.0 / 0.0 0.0 / 0.0 0.0
				-0.02978515 0.07861328 -0.09619141 / -0.15625000 -0.87109370 -0.46875000 / 213 213 213 255 / 0.0 0.0 0.0 0.0 / 0.00000000 0.59344480 / 0.0 0.0 / 0.0 0.0 / 0.0 0.0 / 0.0 0.0 / 0.0 0.0
				0.00000000 0.07666016 -0.09814453 / -0.03515625 -0.87109370 -0.49218750 / 213 213 213 255 / 0.0 0.0 0.0 0.0 / 0.01301575 0.49453730 / 0.0 0.0 / 0.0 0.0 / 0.0 0.0 / 0.0 0.0 / 0.0 0.0
				0.00000000 0.07861328 -0.10205080 / 0.03125000 -0.87109370 -0.49218750 / 213 213 213 255 / 0.0 0.0 0.0 0.0 / 0.00000000 0.49453730 / 0.0 0.0 / 0.0 0.0 / 0.0 0.0 / 0.0 0.0 / 0.0 0.0
				0.02832031 0.07666016 -0.09228516 / 0.15234370 -0.87109370 -0.46875000 / 213 213 213 255 / 0.0 0.0 0.0 0.0 / 0.01301575 0.39562990 / 0.0 0.0 / 0.0 0.0 / 0.0 0.0 / 0.0 0.0 / 0.0 0.0
				0.02978515 0.07861328 -0.09619141 / 0.21093750 -0.87109370 -0.44531250 / 213 213 213 255 / 0.0 0.0 0.0 0.0 / 0.00000000 0.39562990 / 0.0 0.0 / 0.0 0.0 / 0.0 0.0 / 0.0 0.0 / 0.0 0.0
				0.05273437 0.07666016 -0.07714844 / 0.31250000 -0.87109370 -0.38281250 / 213 213 213 255 / 0.0 0.0 0.0 0.0 / 0.01301575 0.29823300 / 0.0 0.0 / 0.0 0.0 / 0.0 0.0 / 0.0 0.0 / 0.0 0.0
				0.05517578 0.07861328 -0.08007813 / 0.35937500 -0.87109370 -0.33984380 / 213 213 213 255 / 0.0 0.0 0.0 0.0 / 0.00000000 0.29823300 / 0.0 0.0 / 0.0 0.0 / 0.0 0.0 / 0.0 0.0 / 0.0 0.0
				0.06933594 0.07666016 -0.05419922 / 0.43359380 -0.87109370 -0.23437500 / 213 213 213 255 / 0.0 0.0 0.0 0.0 / 0.01301575 0.20201110 / 0.0 0.0 / 0.0 0.0 / 0.0 0.0 / 0.0 0.0 / 0.0 0.0
				0.07275391 0.07861328 -0.05615234 / 0.46093750 -0.87109370 -0.17187500 / 213 213 213 255 / 0.0 0.0 0.0 0.0 / 0.00000000 0.20201110 / 0.0 0.0 / 0.0 0.0 / 0.0 0.0 / 0.0 0.0 / 0.0 0.0
				0.07568359 0.07666016 -0.02636719 / 0.49218750 -0.86718750 -0.07031250 / 213 213 213 255 / 0.0 0.0 0.0 0.0 / 0.01301575 0.10469050 / 0.0 0.0 / 0.0 0.0 / 0.0 0.0 / 0.0 0.0 / 0.0 0.0
				0.07910156 0.07861328 -0.02685547 / 0.49609370 -0.86718750 -0.03515625 / 213 213 213 255 / 0.0 0.0 0.0 0.0 / 0.00000000 0.10469050 / 0.0 0.0 / 0.0 0.0 / 0.0 0.0 / 0.0 0.0 / 0.0 0.0
				0.07568359 0.07666016 0.00439453 / 0.50000000 -0.86718750 0.00000000 / 176 176 176 255 / 0.0 0.0 0.0 0.0 / 0.01301575 0.00000000 / 0.0 0.0 / 0.0 0.0 / 0.0 0.0 / 0.0 0.0 / 0.0 0.0
				0.07910156 0.07861328 0.00439453 / 0.50000000 -0.86718750 0.00000000 / 176 176 176 255 / 0.0 0.0 0.0 0.0 / 0.00000000 0.00000000 / 0.0 0.0 / 0.0 0.0 / 0.0 0.0 / 0.0 0.0 / 0.0 0.0
				-0.07519531 0.08105468 -0.02636719 / 0.99609380 0.00000000 0.07031250 / 213 213 213 255 / 0.0 0.0 0.0 0.0 / 0.02604675 0.88436890 / 0.0 0.0 / 0.0 0.0 / 0.0 0.0 / 0.0 0.0 / 0.0 0.0
				-0.07519531 0.08105468 0.00341797 / 1.00000000 0.00000000 0.00000000 / 176 176 176 255 / 0.0 0.0 0.0 0.0 / 0.02604675 0.98600770 / 0.0 0.0 / 0.0 0.0 / 0.0 0.0 / 0.0 0.0 / 0.0 0.0
				-0.07519531 0.07666016 0.00341797 / 1.00000000 0.00000000 0.00000000 / 176 176 176 255 / 0.0 0.0 0.0 0.0 / 0.01301575 0.98600770 / 0.0 0.0 / 0.0 0.0 / 0.0 0.0 / 0.0 0.0 / 0.0 0.0
				-0.07519531 0.07666016 -0.02636719 / 0.98828130 0.00000000 0.14453130 / 213 213 213 255 / 0.0 0.0 0.0 0.0 / 0.01301575 0.88436890 / 0.0 0.0 / 0.0 0.0 / 0.0 0.0 / 0.0 0.0 / 0.0 0.0
				-0.06884766 0.08105468 -0.05419922 / 0.93750000 0.00000000 0.34765630 / 213 213 213 255 / 0.0 0.0 0.0 0.0 / 0.02604675 0.78704840 / 0.0 0.0 / 0.0 0.0 / 0.0 0.0 / 0.0 0.0 / 0.0 0.0
				-0.06884766 0.07666016 -0.05419922 / 0.87890620 0.00000000 0.47656250 / 213 213 213 255 / 0.0 0.0 0.0 0.0 / 0.01301575 0.78704840 / 0.0 0.0 / 0.0 0.0 / 0.0 0.0 / 0.0 0.0 / 0.0 0.0
				-0.05224610 0.08105468 -0.07714844 / 0.72656250 0.00000000 0.68750000 / 213 213 213 255 / 0.0 0.0 0.0 0.0 / 0.02604675 0.69084160 / 0.0 0.0 / 0.0 0.0 / 0.0 0.0 / 0.0 0.0 / 0.0 0.0
				-0.05224610 0.07666016 -0.07714844 / 0.63671870 0.00000000 0.77343750 / 213 213 213 255 / 0.0 0.0 0.0 0.0 / 0.01301575 0.69084160 / 0.0 0.0 / 0.0 0.0 / 0.0 0.0 / 0.0 0.0 / 0.0 0.0
				-0.02832031 0.08105468 -0.09228516 / 0.42968750 0.00000000 0.90234380 / 213 213 213 255 / 0.0 0.0 0.0 0.0 / 0.02604675 0.59344480 / 0.0 0.0 / 0.0 0.0 / 0.0 0.0 / 0.0 0.0 / 0.0 0.0
				-0.02832031 0.07666016 -0.09228516 / 0.31250000 0.00000000 0.94921880 / 213 213 213 255 / 0.0 0.0 0.0 0.0 / 0.01301575 0.59344480 / 0.0 0.0 / 0.0 0.0 / 0.0 0.0 / 0.0 0.0 / 0.0 0.0
				0.00000000 0.08105468 -0.09814453 / 0.06640625 0.00000000 0.99609380 / 213 213 213 255 / 0.0 0.0 0.0 0.0 / 0.02604675 0.49453730 / 0.0 0.0 / 0.0 0.0 / 0.0 0.0 / 0.0 0.0 / 0.0 0.0
				0.00000000 0.07666016 -0.09814453 / -0.06640625 0.00000000 0.99609380 / 213 213 213 255 / 0.0 0.0 0.0 0.0 / 0.01301575 0.49453730 / 0.0 0.0 / 0.0 0.0 / 0.0 0.0 / 0.0 0.0 / 0.0 0.0
				0.02832031 0.08105468 -0.09228516 / -0.31250000 0.00000000 0.94921880 / 213 213 213 255 / 0.0 0.0 0.0 0.0 / 0.02604675 0.39562990 / 0.0 0.0 / 0.0 0.0 / 0.0 0.0 / 0.0 0.0 / 0.0 0.0
				0.02832031 0.07666016 -0.09228516 / -0.42968750 0.00000000 0.90234380 / 213 213 213 255 / 0.0 0.0 0.0 0.0 / 0.01301575 0.39562990 / 0.0 0.0 / 0.0 0.0 / 0.0 0.0 / 0.0 0.0 / 0.0 0.0
				0.05273437 0.08105468 -0.07714844 / -0.63671870 0.00000000 0.77343750 / 213 213 213 255 / 0.0 0.0 0.0 0.0 / 0.02604675 0.29823300 / 0.0 0.0 / 0.0 0.0 / 0.0 0.0 / 0.0 0.0 / 0.0 0.0
				0.05273437 0.07666016 -0.07714844 / -0.72656250 0.00000000 0.68750000 / 213 213 213 255 / 0.0 0.0 0.0 0.0 / 0.01301575 0.29823300 / 0.0 0.0 / 0.0 0.0 / 0.0 0.0 / 0.0 0.0 / 0.0 0.0
				0.06933594 0.08105468 -0.05419922 / -0.87890620 0.00000000 0.47656250 / 213 213 213 255 / 0.0 0.0 0.0 0.0 / 0.02604675 0.20201110 / 0.0 0.0 / 0.0 0.0 / 0.0 0.0 / 0.0 0.0 / 0.0 0.0
				0.06933594 0.07666016 -0.05419922 / -0.93750000 0.00000000 0.34765630 / 213 213 213 255 / 0.0 0.0 0.0 0.0 / 0.01301575 0.20201110 / 0.0 0.0 / 0.0 0.0 / 0.0 0.0 / 0.0 0.0 / 0.0 0.0
				0.07568359 0.08105468 -0.02636719 / -0.98828130 0.00000000 0.14062500 / 213 213 213 255 / 0.0 0.0 0.0 0.0 / 0.02604675 0.10469050 / 0.0 0.0 / 0.0 0.0 / 0.0 0.0 / 0.0 0.0 / 0.0 0.0
				0.07568359 0.07666016 -0.02636719 / -0.99609380 0.00000000 0.07031250 / 213 213 213 255 / 0.0 0.0 0.0 0.0 / 0.01301575 0.10469050 / 0.0 0.0 / 0.0 0.0 / 0.0 0.0 / 0.0 0.0 / 0.0 0.0
				0.07568359 0.08105468 0.00439453 / -1.00000000 0.00000000 0.00000000 / 176 176 176 255 / 0.0 0.0 0.0 0.0 / 0.02604675 0.00000000 / 0.0 0.0 / 0.0 0.0 / 0.0 0.0 / 0.0 0.0 / 0.0 0.0
				0.07568359 0.07666016 0.00439453 / -1.00000000 0.00000000 0.00000000 / 176 176 176 255 / 0.0 0.0 0.0 0.0 / 0.01301575 0.00000000 / 0.0 0.0 / 0.0 0.0 / 0.0 0.0 / 0.0 0.0 / 0.0 0.0
				-0.07910156 0.07861328 -0.02685547 / -0.49609370 0.86718750 -0.03515625 / 213 213 213 255 / 0.0 0.0 0.0 0.0 / 0.03906250 0.88436890 / 0.0 0.0 / 0.0 0.0 / 0.0 0.0 / 0.0 0.0 / 0.0 0.0
				-0.07910156 0.07861328 0.00341797 / -0.50000000 0.86718750 0.00000000 / 176 176 176 255 / 0.0 0.0 0.0 0.0 / 0.03906250 0.98600770 / 0.0 0.0 / 0.0 0.0 / 0.0 0.0 / 0.0 0.0 / 0.0 0.0
				-0.07519531 0.08105468 0.00341797 / -0.50000000 0.86718750 0.00000000 / 176 176 176 255 / 0.0 0.0 0.0 0.0 / 0.02604675 0.98600770 / 0.0 0.0 / 0.0 0.0 / 0.0 0.0 / 0.0 0.0 / 0.0 0.0
				-0.07519531 0.08105468 -0.02636719 / -0.49218750 0.86718750 -0.07031250 / 213 213 213 255 / 0.0 0.0 0.0 0.0 / 0.02604675 0.88436890 / 0.0 0.0 / 0.0 0.0 / 0.0 0.0 / 0.0 0.0 / 0.0 0.0
				-0.07226562 0.07861328 -0.05615234 / -0.46093750 0.87109370 -0.17187500 / 213 213 213 255 / 0.0 0.0 0.0 0.0 / 0.03906250 0.78704840 / 0.0 0.0 / 0.0 0.0 / 0.0 0.0 / 0.0 0.0 / 0.0 0.0
				-0.06884766 0.08105468 -0.05419922 / -0.43359380 0.87109370 -0.23437500 / 213 213 213 255 / 0.0 0.0 0.0 0.0 / 0.02604675 0.78704840 / 0.0 0.0 / 0.0 0.0 / 0.0 0.0 / 0.0 0.0 / 0.0 0.0
				-0.05468750 0.07861328 -0.08007813 / -0.35937500 0.87109370 -0.33984380 / 213 213 213 255 / 0.0 0.0 0.0 0.0 / 0.03906250 0.69084160 / 0.0 0.0 / 0.0 0.0 / 0.0 0.0 / 0.0 0.0 / 0.0 0.0
				-0.05224610 0.08105468 -0.07714844 / -0.31250000 0.87109370 -0.38281250 / 213 213 213 255 / 0.0 0.0 0.0 0.0 / 0.02604675 0.69084160 / 0.0 0.0 / 0.0 0.0 / 0.0 0.0 / 0.0 0.0 / 0.0 0.0
				-0.02978515 0.07861328 -0.09619141 / -0.21093750 0.87109370 -0.44531250 / 213 213 213 255 / 0.0 0.0 0.0 0.0 / 0.03906250 0.59344480 / 0.0 0.0 / 0.0 0.0 / 0.0 0.0 / 0.0 0.0 / 0.0 0.0
				-0.02832031 0.08105468 -0.09228516 / -0.15234370 0.87109370 -0.46875000 / 213 213 213 255 / 0.0 0.0 0.0 0.0 / 0.02604675 0.59344480 / 0.0 0.0 / 0.0 0.0 / 0.0 0.0 / 0.0 0.0 / 0.0 0.0
				0.00000000 0.07861328 -0.10205080 / -0.03125000 0.87109370 -0.49218750 / 213 213 213 255 / 0.0 0.0 0.0 0.0 / 0.03906250 0.49453730 / 0.0 0.0 / 0.0 0.0 / 0.0 0.0 / 0.0 0.0 / 0.0 0.0
				0.00000000 0.08105468 -0.09814453 / 0.03515625 0.87109370 -0.49218750 / 213 213 213 255 / 0.0 0.0 0.0 0.0 / 0.02604675 0.49453730 / 0.0 0.0 / 0.0 0.0 / 0.0 0.0 / 0.0 0.0 / 0.0 0.0
				0.02978515 0.07861328 -0.09619141 / 0.15625000 0.87109370 -0.46875000 / 213 213 213 255 / 0.0 0.0 0.0 0.0 / 0.03906250 0.39562990 / 0.0 0.0 / 0.0 0.0 / 0.0 0.0 / 0.0 0.0 / 0.0 0.0
				0.02832031 0.08105468 -0.09228516 / 0.21093750 0.87109370 -0.44531250 / 213 213 213 255 / 0.0 0.0 0.0 0.0 / 0.02604675 0.39562990 / 0.0 0.0 / 0.0 0.0 / 0.0 0.0 / 0.0 0.0 / 0.0 0.0
				0.05517578 0.07861328 -0.08007813 / 0.31640630 0.87109370 -0.37890620 / 213 213 213 255 / 0.0 0.0 0.0 0.0 / 0.03906250 0.29823300 / 0.0 0.0 / 0.0 0.0 / 0.0 0.0 / 0.0 0.0 / 0.0 0.0
				0.05273437 0.08105468 -0.07714844 / 0.35937500 0.86718750 -0.33984380 / 213 213 213 255 / 0.0 0.0 0.0 0.0 / 0.02604675 0.29823300 / 0.0 0.0 / 0.0 0.0 / 0.0 0.0 / 0.0 0.0 / 0.0 0.0
				0.07275391 0.07861328 -0.05615234 / 0.43359380 0.87109370 -0.23437500 / 213 213 213 255 / 0.0 0.0 0.0 0.0 / 0.03906250 0.20201110 / 0.0 0.0 / 0.0 0.0 / 0.0 0.0 / 0.0 0.0 / 0.0 0.0
				0.06933594 0.08105468 -0.05419922 / 0.46093750 0.87109370 -0.17187500 / 213 213 213 255 / 0.0 0.0 0.0 0.0 / 0.02604675 0.20201110 / 0.0 0.0 / 0.0 0.0 / 0.0 0.0 / 0.0 0.0 / 0.0 0.0
				0.07910156 0.07861328 -0.02685547 / 0.49218750 0.86718750 -0.07031250 / 213 213 213 255 / 0.0 0.0 0.0 0.0 / 0.03906250 0.10469050 / 0.0 0.0 / 0.0 0.0 / 0.0 0.0 / 0.0 0.0 / 0.0 0.0
				0.07568359 0.08105468 -0.02636719 / 0.49609370 0.86718750 -0.03515625 / 213 213 213 255 / 0.0 0.0 0.0 0.0 / 0.02604675 0.10469050 / 0.0 0.0 / 0.0 0.0 / 0.0 0.0 / 0.0 0.0 / 0.0 0.0
				0.07910156 0.07861328 0.00439453 / 0.50000000 0.86718750 0.00000000 / 176 176 176 255 / 0.0 0.0 0.0 0.0 / 0.03906250 0.00000000 / 0.0 0.0 / 0.0 0.0 / 0.0 0.0 / 0.0 0.0 / 0.0 0.0
				0.07568359 0.08105468 0.00439453 / 0.50000000 0.86718750 0.00000000 / 176 176 176 255 / 0.0 0.0 0.0 0.0 / 0.02604675 0.00000000 / 0.0 0.0 / 0.0 0.0 / 0.0 0.0 / 0.0 0.0 / 0.0 0.0
				0.03027344 0.15625000 -0.02050781 / -0.86718750 0.49609370 -0.03906250 / 213 213 213 255 / 0.0 0.0 0.0 0.0 / 0.01301575 0.93760680 / 0.0 0.0 / 0.0 0.0 / 0.0 0.0 / 0.0 0.0 / 0.0 0.0
				0.03027344 0.15625000 0.00097656 / -0.86718750 0.50000000 0.00000000 / 176 176 176 255 / 0.0 0.0 0.0 0.0 / 0.01301575 0.98600770 / 0.0 0.0 / 0.0 0.0 / 0.0 0.0 / 0.0 0.0 / 0.0 0.0
				0.03222656 0.16015630 0.00097656 / -0.86718750 0.50000000 0.00000000 / 176 176 176 255 / 0.0 0.0 0.0 0.0 / 0.00000000 0.98600770 / 0.0 0.0 / 0.0 0.0 / 0.0 0.0 / 0.0 0.0 / 0.0 0.0
				0.03222656 0.16015630 -0.02099609 / -0.86718750 0.49218750 -0.07031250 / 213 213 213 255 / 0.0 0.0 0.0 0.0 / 0.00000000 0.93760680 / 0.0 0.0 / 0.0 0.0 / 0.0 0.0 / 0.0 0.0 / 0.0 0.0
				0.03027344 0.15087890 -0.04882813 / -0.86718750 0.46875000 -0.15625000 / 213 213 213 255 / 0.0 0.0 0.0 0.0 / 0.01301575 0.87321470 / 0.0 0.0 / 0.0 0.0 / 0.0 0.0 / 0.0 0.0 / 0.0 0.0
				0.03222656 0.15429690 -0.05029297 / -0.87109370 0.44140630 -0.21875000 / 213 213 213 255 / 0.0 0.0 0.0 0.0 / 0.00000000 0.87321470 / 0.0 0.0 / 0.0 0.0 / 0.0 0.0 / 0.0 0.0 / 0.0 0.0
				0.03027344 0.13574220 -0.07128906 / -0.87109370 0.37109380 -0.32421880 / 213 213 213 255 / 0.0 0.0 0.0 0.0 / 0.01301575 0.81100470 / 0.0 0.0 / 0.0 0.0 / 0.0 0.0 / 0.0 0.0 / 0.0 0.0
				0.03222656 0.13818360 -0.07421875 / -0.87109370 0.32812500 -0.37109380 / 213 213 213 255 / 0.0 0.0 0.0 0.0 / 0.00000000 0.81100470 / 0.0 0.0 / 0.0 0.0 / 0.0 0.0 / 0.0 0.0 / 0.0 0.0
				0.03027344 0.11279300 -0.08642578 / -0.87109370 0.21875000 -0.44140630 / 213 213 213 255 / 0.0 0.0 0.0 0.0 / 0.01301575 0.74880980 / 0.0 0.0 / 0.0 0.0 / 0.0 0.0 / 0.0 0.0 / 0.0 0.0
				0.03222656 0.11425780 -0.09033203 / -0.87109370 0.16015630 -0.46875000 / 213 213 213 255 / 0.0 0.0 0.0 0.0 / 0.00000000 0.74880980 / 0.0 0.0 / 0.0 0.0 / 0.0 0.0 / 0.0 0.0 / 0.0 0.0
				0.03027344 0.08496094 -0.09228516 / -0.86718750 0.02343750 -0.50000000 / 213 213 213 255 / 0.0 0.0 0.0 0.0 / 0.01301575 0.68441770 / 0.0 0.0 / 0.0 0.0 / 0.0 0.0 / 0.0 0.0 / 0.0 0.0
				0.03222656 0.08544922 -0.09619141 / -0.86718750 0.00781250 -0.50000000 / 213 213 213 255 / 0.0 0.0 0.0 0.0 / 0.00000000 0.68441770 / 0.0 0.0 / 0.0 0.0 / 0.0 0.0 / 0.0 0.0 / 0.0 0.0
				0.03027344 -0.08544922 -0.09228516 / -0.86718750 -0.00781250 -0.50000000 / 213 213 213 255 / 0.0 0.0 0.0 0.0 / 0.01301575 0.30363460 / 0.0 0.0 / 0.0 0.0 / 0.0 0.0 / 0.0 0.0 / 0.0 0.0
				0.03222656 -0.08544922 -0.09619141 / -0.86718750 -0.02343750 -0.50000000 / 213 213 213 255 / 0.0 0.0 0.0 0.0 / 0.00000000 0.30363460 / 0.0 0.0 / 0.0 0.0 / 0.0 0.0 / 0.0 0.0 / 0.0 0.0
				0.03027344 -0.11328120 -0.08642578 / -0.87109370 -0.15625000 -0.46875000 / 213 213 213 255 / 0.0 0.0 0.0 0.0 / 0.01301575 0.23924250 / 0.0 0.0 / 0.0 0.0 / 0.0 0.0 / 0.0 0.0 / 0.0 0.0
				0.03222656 -0.11474610 -0.09033203 / -0.87109370 -0.21875000 -0.44140630 / 213 213 213 255 / 0.0 0.0 0.0 0.0 / 0.00000000 0.23924250 / 0.0 0.0 / 0.0 0.0 / 0.0 0.0 / 0.0 0.0 / 0.0 0.0
				0.03027344 -0.13574220 -0.07128906 / -0.86718750 -0.32421880 -0.37109380 / 213 213 213 255 / 0.0 0.0 0.0 0.0 / 0.01301575 0.17703250 / 0.0 0.0 / 0.0 0.0 / 0.0 0.0 / 0.0 0.0 / 0.0 0.0
				0.03222656 -0.13867190 -0.07421875 / -0.87109370 -0.37109380 -0.32812500 / 213 213 213 255 / 0.0 0.0 0.0 0.0 / 0.00000000 0.17703250 / 0.0 0.0 / 0.0 0.0 / 0.0 0.0 / 0.0 0.0 / 0.0 0.0
				0.03027344 -0.15087890 -0.04882813 / -0.87109370 -0.44140630 -0.21875000 / 213 213 213 255 / 0.0 0.0 0.0 0.0 / 0.01301575 0.11482240 / 0.0 0.0 / 0.0 0.0 / 0.0 0.0 / 0.0 0.0 / 0.0 0.0
				0.03222656 -0.15478520 -0.05029297 / -0.87109370 -0.46484380 -0.16015630 / 213 213 213 255 / 0.0 0.0 0.0 0.0 / 0.00000000 0.11482240 / 0.0 0.0 / 0.0 0.0 / 0.0 0.0 / 0.0 0.0 / 0.0 0.0
				0.03027344 -0.15673830 -0.02050781 / -0.86718750 -0.49218750 -0.07031250 / 213 213 213 255 / 0.0 0.0 0.0 0.0 / 0.01301575 0.05043030 / 0.0 0.0 / 0.0 0.0 / 0.0 0.0 / 0.0 0.0 / 0.0 0.0
				0.03222656 -0.16064450 -0.02099609 / -0.86718750 -0.49609370 -0.03906250 / 213 213 213 255 / 0.0 0.0 0.0 0.0 / 0.00000000 0.05043030 / 0.0 0.0 / 0.0 0.0 / 0.0 0.0 / 0.0 0.0 / 0.0 0.0
				0.03027344 -0.15673830 0.00195313 / -0.86718750 -0.50000000 0.00000000 / 176 176 176 255 / 0.0 0.0 0.0 0.0 / 0.01301575 0.00000000 / 0.0 0.0 / 0.0 0.0 / 0.0 0.0 / 0.0 0.0 / 0.0 0.0
				0.03222656 -0.16064450 0.00195313 / -0.86718750 -0.50000000 0.00000000 / 176 176 176 255 / 0.0 0.0 0.0 0.0 / 0.00000000 0.00000000 / 0.0 0.0 / 0.0 0.0 / 0.0 0.0 / 0.0 0.0 / 0.0 0.0
				0.03466797 0.15625000 -0.02050781 / 0.00000000 -0.99609380 0.07812500 / 213 213 213 255 / 0.0 0.0 0.0 0.0 / 0.02604675 0.93760680 / 0.0 0.0 / 0.0 0.0 / 0.0 0.0 / 0.0 0.0 / 0.0 0.0
				0.03466797 0.15625000 0.00097656 / 0.00000000 -1.00000000 0.00000000 / 176 176 176 255 / 0.0 0.0 0.0 0.0 / 0.02604675 0.98600770 / 0.0 0.0 / 0.0 0.0 / 0.0 0.0 / 0.0 0.0 / 0.0 0.0
				0.03027344 0.15625000 0.00097656 / 0.00000000 -1.00000000 0.00000000 / 176 176 176 255 / 0.0 0.0 0.0 0.0 / 0.01301575 0.98600770 / 0.0 0.0 / 0.0 0.0 / 0.0 0.0 / 0.0 0.0 / 0.0 0.0
				0.03027344 0.15625000 -0.02050781 / 0.00000000 -0.98828130 0.14453130 / 213 213 213 255 / 0.0 0.0 0.0 0.0 / 0.01301575 0.93760680 / 0.0 0.0 / 0.0 0.0 / 0.0 0.0 / 0.0 0.0 / 0.0 0.0
				0.03466797 0.15087890 -0.04882813 / 0.00000000 -0.94531250 0.32031250 / 213 213 213 255 / 0.0 0.0 0.0 0.0 / 0.02604675 0.87321470 / 0.0 0.0 / 0.0 0.0 / 0.0 0.0 / 0.0 0.0 / 0.0 0.0
				0.03027344 0.15087890 -0.04882813 / 0.00000000 -0.89453130 0.44531250 / 213 213 213 255 / 0.0 0.0 0.0 0.0 / 0.01301575 0.87321470 / 0.0 0.0 / 0.0 0.0 / 0.0 0.0 / 0.0 0.0 / 0.0 0.0
				0.03466797 0.13574220 -0.07128906 / 0.00000000 -0.75000000 0.66015630 / 213 213 213 255 / 0.0 0.0 0.0 0.0 / 0.02604675 0.81100470 / 0.0 0.0 / 0.0 0.0 / 0.0 0.0 / 0.0 0.0 / 0.0 0.0
				0.03027344 0.13574220 -0.07128906 / 0.00000000 -0.66015630 0.75000000 / 213 213 213 255 / 0.0 0.0 0.0 0.0 / 0.01301575 0.81100470 / 0.0 0.0 / 0.0 0.0 / 0.0 0.0 / 0.0 0.0 / 0.0 0.0
				0.03466797 0.11279300 -0.08642578 / 0.00000000 -0.44531250 0.89453130 / 213 213 213 255 / 0.0 0.0 0.0 0.0 / 0.02604675 0.74880980 / 0.0 0.0 / 0.0 0.0 / 0.0 0.0 / 0.0 0.0 / 0.0 0.0
				0.03027344 0.11279300 -0.08642578 / 0.00000000 -0.32031250 0.94531250 / 213 213 213 255 / 0.0 0.0 0.0 0.0 / 0.01301575 0.74880980 / 0.0 0.0 / 0.0 0.0 / 0.0 0.0 / 0.0 0.0 / 0.0 0.0
				0.03466797 0.08496094 -0.09228516 / 0.00000000 -0.05078125 1.00000000 / 213 213 213 255 / 0.0 0.0 0.0 0.0 / 0.02604675 0.68441770 / 0.0 0.0 / 0.0 0.0 / 0.0 0.0 / 0.0 0.0 / 0.0 0.0
				0.03027344 0.08496094 -0.09228516 / 0.00000000 -0.01562500 1.00000000 / 213 213 213 255 / 0.0 0.0 0.0 0.0 / 0.01301575 0.68441770 / 0.0 0.0 / 0.0 0.0 / 0.0 0.0 / 0.0 0.0 / 0.0 0.0
				0.03466797 -0.08544922 -0.09228516 / 0.00000000 0.01562500 1.00000000 / 213 213 213 255 / 0.0 0.0 0.0 0.0 / 0.02604675 0.30363460 / 0.0 0.0 / 0.0 0.0 / 0.0 0.0 / 0.0 0.0 / 0.0 0.0
				0.03027344 -0.08544922 -0.09228516 / 0.00000000 0.05078125 1.00000000 / 213 213 213 255 / 0.0 0.0 0.0 0.0 / 0.01301575 0.30363460 / 0.0 0.0 / 0.0 0.0 / 0.0 0.0 / 0.0 0.0 / 0.0 0.0
				0.03466797 -0.11328120 -0.08642578 / 0.00000000 0.32031250 0.94531250 / 213 213 213 255 / 0.0 0.0 0.0 0.0 / 0.02604675 0.23924250 / 0.0 0.0 / 0.0 0.0 / 0.0 0.0 / 0.0 0.0 / 0.0 0.0
				0.03027344 -0.11328120 -0.08642578 / 0.00000000 0.44531250 0.89453130 / 213 213 213 255 / 0.0 0.0 0.0 0.0 / 0.01301575 0.23924250 / 0.0 0.0 / 0.0 0.0 / 0.0 0.0 / 0.0 0.0 / 0.0 0.0
				0.03466797 -0.13574220 -0.07128906 / 0.00000000 0.66015630 0.75000000 / 213 213 213 255 / 0.0 0.0 0.0 0.0 / 0.02604675 0.17703250 / 0.0 0.0 / 0.0 0.0 / 0.0 0.0 / 0.0 0.0 / 0.0 0.0
				0.03027344 -0.13574220 -0.07128906 / 0.00000000 0.75000000 0.66015630 / 213 213 213 255 / 0.0 0.0 0.0 0.0 / 0.01301575 0.17703250 / 0.0 0.0 / 0.0 0.0 / 0.0 0.0 / 0.0 0.0 / 0.0 0.0
				0.03466797 -0.15087890 -0.04882813 / 0.00000000 0.89453130 0.44140630 / 213 213 213 255 / 0.0 0.0 0.0 0.0 / 0.02604675 0.11482240 / 0.0 0.0 / 0.0 0.0 / 0.0 0.0 / 0.0 0.0 / 0.0 0.0
				0.03027344 -0.15087890 -0.04882813 / 0.00000000 0.94531250 0.32031250 / 213 213 213 255 / 0.0 0.0 0.0 0.0 / 0.01301575 0.11482240 / 0.0 0.0 / 0.0 0.0 / 0.0 0.0 / 0.0 0.0 / 0.0 0.0
				0.03466797 -0.15673830 -0.02050781 / 0.00000000 0.98828130 0.14453130 / 213 213 213 255 / 0.0 0.0 0.0 0.0 / 0.02604675 0.05043030 / 0.0 0.0 / 0.0 0.0 / 0.0 0.0 / 0.0 0.0 / 0.0 0.0
				0.03027344 -0.15673830 -0.02050781 / 0.00000000 0.99609380 0.07812500 / 213 213 213 255 / 0.0 0.0 0.0 0.0 / 0.01301575 0.05043030 / 0.0 0.0 / 0.0 0.0 / 0.0 0.0 / 0.0 0.0 / 0.0 0.0
				0.03466797 -0.15673830 0.00195313 / 0.00000000 1.00000000 0.00000000 / 176 176 176 255 / 0.0 0.0 0.0 0.0 / 0.02604675 0.00000000 / 0.0 0.0 / 0.0 0.0 / 0.0 0.0 / 0.0 0.0 / 0.0 0.0
				0.03027344 -0.15673830 0.00195313 / 0.00000000 1.00000000 0.00000000 / 176 176 176 255 / 0.0 0.0 0.0 0.0 / 0.01301575 0.00000000 / 0.0 0.0 / 0.0 0.0 / 0.0 0.0 / 0.0 0.0 / 0.0 0.0
				0.03222656 0.16015630 -0.02099609 / 0.86718750 0.49609370 -0.03906250 / 213 213 213 255 / 0.0 0.0 0.0 0.0 / 0.03906250 0.93760680 / 0.0 0.0 / 0.0 0.0 / 0.0 0.0 / 0.0 0.0 / 0.0 0.0
				0.03222656 0.16015630 0.00097656 / 0.86718750 0.50000000 0.00000000 / 176 176 176 255 / 0.0 0.0 0.0 0.0 / 0.03906250 0.98600770 / 0.0 0.0 / 0.0 0.0 / 0.0 0.0 / 0.0 0.0 / 0.0 0.0
				0.03466797 0.15625000 0.00097656 / 0.86718750 0.50000000 0.00000000 / 176 176 176 255 / 0.0 0.0 0.0 0.0 / 0.02604675 0.98600770 / 0.0 0.0 / 0.0 0.0 / 0.0 0.0 / 0.0 0.0 / 0.0 0.0
				0.03466797 0.15625000 -0.02050781 / 0.86718750 0.49218750 -0.07031250 / 213 213 213 255 / 0.0 0.0 0.0 0.0 / 0.02604675 0.93760680 / 0.0 0.0 / 0.0 0.0 / 0.0 0.0 / 0.0 0.0 / 0.0 0.0
				0.03222656 0.15429690 -0.05029297 / 0.87109370 0.46875000 -0.16015630 / 213 213 213 255 / 0.0 0.0 0.0 0.0 / 0.03906250 0.87321470 / 0.0 0.0 / 0.0 0.0 / 0.0 0.0 / 0.0 0.0 / 0.0 0.0
				0.03466797 0.15087890 -0.04882813 / 0.87109370 0.44140630 -0.21875000 / 213 213 213 255 / 0.0 0.0 0.0 0.0 / 0.02604675 0.87321470 / 0.0 0.0 / 0.0 0.0 / 0.0 0.0 / 0.0 0.0 / 0.0 0.0
				0.03222656 0.13818360 -0.07421875 / 0.87109370 0.37109380 -0.32812500 / 213 213 213 255 / 0.0 0.0 0.0 0.0 / 0.03906250 0.81100470 / 0.0 0.0 / 0.0 0.0 / 0.0 0.0 / 0.0 0.0 / 0.0 0.0
				0.03466797 0.13574220 -0.07128906 / 0.87109370 0.32421880 -0.37109380 / 213 213 213 255 / 0.0 0.0 0.0 0.0 / 0.02604675 0.81100470 / 0.0 0.0 / 0.0 0.0 / 0.0 0.0 / 0.0 0.0 / 0.0 0.0
				0.03222656 0.11425780 -0.09033203 / 0.87109370 0.21875000 -0.44140630 / 213 213 213 255 / 0.0 0.0 0.0 0.0 / 0.03906250 0.74880980 / 0.0 0.0 / 0.0 0.0 / 0.0 0.0 / 0.0 0.0 / 0.0 0.0
				0.03466797 0.11279300 -0.08642578 / 0.87109370 0.15625000 -0.46875000 / 213 213 213 255 / 0.0 0.0 0.0 0.0 / 0.02604675 0.74880980 / 0.0 0.0 / 0.0 0.0 / 0.0 0.0 / 0.0 0.0 / 0.0 0.0
				0.03222656 0.08544922 -0.09619141 / 0.86718750 0.02343750 -0.49609370 / 213 213 213 255 / 0.0 0.0 0.0 0.0 / 0.03906250 0.68441770 / 0.0 0.0 / 0.0 0.0 / 0.0 0.0 / 0.0 0.0 / 0.0 0.0
				0.03466797 0.08496094 -0.09228516 / 0.86718750 0.00781250 -0.50000000 / 213 213 213 255 / 0.0 0.0 0.0 0.0 / 0.02604675 0.68441770 / 0.0 0.0 / 0.0 0.0 / 0.0 0.0 / 0.0 0.0 / 0.0 0.0
				0.03222656 -0.08544922 -0.09619141 / 0.86718750 -0.00781250 -0.50000000 / 213 213 213 255 / 0.0 0.0 0.0 0.0 / 0.03906250 0.30363460 / 0.0 0.0 / 0.0 0.0 / 0.0 0.0 / 0.0 0.0 / 0.0 0.0
				0.03466797 -0.08544922 -0.09228516 / 0.86718750 -0.02343750 -0.49609370 / 213 213 213 255 / 0.0 0.0 0.0 0.0 / 0.02604675 0.30363460 / 0.0 0.0 / 0.0 0.0 / 0.0 0.0 / 0.0 0.0 / 0.0 0.0
				0.03222656 -0.11474610 -0.09033203 / 0.87109370 -0.16015630 -0.46875000 / 213 213 213 255 / 0.0 0.0 0.0 0.0 / 0.03906250 0.23924250 / 0.0 0.0 / 0.0 0.0 / 0.0 0.0 / 0.0 0.0 / 0.0 0.0
				0.03466797 -0.11328120 -0.08642578 / 0.87109370 -0.21875000 -0.44140630 / 213 213 213 255 / 0.0 0.0 0.0 0.0 / 0.02604675 0.23924250 / 0.0 0.0 / 0.0 0.0 / 0.0 0.0 / 0.0 0.0 / 0.0 0.0
				0.03222656 -0.13867190 -0.07421875 / 0.87109370 -0.32812500 -0.37109380 / 213 213 213 255 / 0.0 0.0 0.0 0.0 / 0.03906250 0.17703250 / 0.0 0.0 / 0.0 0.0 / 0.0 0.0 / 0.0 0.0 / 0.0 0.0
				0.03466797 -0.13574220 -0.07128906 / 0.87109370 -0.37109380 -0.32421880 / 213 213 213 255 / 0.0 0.0 0.0 0.0 / 0.02604675 0.17703250 / 0.0 0.0 / 0.0 0.0 / 0.0 0.0 / 0.0 0.0 / 0.0 0.0
				0.03222656 -0.15478520 -0.05029297 / 0.87109370 -0.44140630 -0.21875000 / 213 213 213 255 / 0.0 0.0 0.0 0.0 / 0.03906250 0.11482240 / 0.0 0.0 / 0.0 0.0 / 0.0 0.0 / 0.0 0.0 / 0.0 0.0
				0.03466797 -0.15087890 -0.04882813 / 0.87109370 -0.46484380 -0.15625000 / 213 213 213 255 / 0.0 0.0 0.0 0.0 / 0.02604675 0.11482240 / 0.0 0.0 / 0.0 0.0 / 0.0 0.0 / 0.0 0.0 / 0.0 0.0
				0.03222656 -0.16064450 -0.02099609 / 0.86718750 -0.49218750 -0.07031250 / 213 213 213 255 / 0.0 0.0 0.0 0.0 / 0.03906250 0.05043030 / 0.0 0.0 / 0.0 0.0 / 0.0 0.0 / 0.0 0.0 / 0.0 0.0
				0.03466797 -0.15673830 -0.02050781 / 0.86718750 -0.49609370 -0.03906250 / 213 213 213 255 / 0.0 0.0 0.0 0.0 / 0.02604675 0.05043030 / 0.0 0.0 / 0.0 0.0 / 0.0 0.0 / 0.0 0.0 / 0.0 0.0
				0.03222656 -0.16064450 0.00195313 / 0.86718750 -0.50000000 0.00000000 / 176 176 176 255 / 0.0 0.0 0.0 0.0 / 0.03906250 0.00000000 / 0.0 0.0 / 0.0 0.0 / 0.0 0.0 / 0.0 0.0 / 0.0 0.0
				0.03466797 -0.15673830 0.00195313 / 0.86718750 -0.50000000 0.00000000 / 176 176 176 255 / 0.0 0.0 0.0 0.0 / 0.02604675 0.00000000 / 0.0 0.0 / 0.0 0.0 / 0.0 0.0 / 0.0 0.0 / 0.0 0.0
				0.05664062 -0.14599610 0.00195313 / 0.00000000 0.00000000 -1.00000000 / 183 183 183 255 / 0.0 0.0 0.0 0.0 / 0.85243230 0.06683350 / 0.0 0.0 / 0.0 0.0 / 0.0 0.0 / 0.0 0.0 / 0.0 0.0
				0.03125000 -0.16259770 0.00195313 / 0.00000000 0.00000000 -1.00000000 / 183 183 183 255 / 0.0 0.0 0.0 0.0 / 0.69335940 0.01794434 / 0.0 0.0 / 0.0 0.0 / 0.0 0.0 / 0.0 0.0 / 0.0 0.0
				0.00000000 -0.16894530 0.00195313 / 0.00000000 0.00000000 -1.00000000 / 183 183 183 255 / 0.0 0.0 0.0 0.0 / 0.50000000 0.00000000 / 0.0 0.0 / 0.0 0.0 / 0.0 0.0 / 0.0 0.0 / 0.0 0.0
				-0.03076172 -0.16259770 0.00195313 / 0.00000000 0.00000000 -1.00000000 / 183 183 183 255 / 0.0 0.0 0.0 0.0 / 0.30664060 0.01794434 / 0.0 0.0 / 0.0 0.0 / 0.0 0.0 / 0.0 0.0 / 0.0 0.0
				-0.05615234 -0.14599610 0.00195313 / 0.00000000 0.00000000 -1.00000000 / 183 183 183 255 / 0.0 0.0 0.0 0.0 / 0.14756770 0.06683350 / 0.0 0.0 / 0.0 0.0 / 0.0 0.0 / 0.0 0.0 / 0.0 0.0
				0.07373047 -0.12158200 0.00195313 / 0.00000000 0.00000000 -1.00000000 / 183 183 183 255 / 0.0 0.0 0.0 0.0 / 0.96028140 0.13932800 / 0.0 0.0 / 0.0 0.0 / 0.0 0.0 / 0.0 0.0 / 0.0 0.0
				0.08007813 -0.09179687 0.00195313 / 0.00000000 0.00000000 -1.00000000 / 183 183 183 255 / 0.0 0.0 0.0 0.0 / 1.00000000 0.22805790 / 0.0 0.0 / 0.0 0.0 / 0.0 0.0 / 0.0 0.0 / 0.0 0.0
				-0.07324219 -0.12158200 0.00195313 / 0.00000000 0.00000000 -1.00000000 / 183 183 183 255 / 0.0 0.0 0.0 0.0 / 0.03971863 0.13932800 / 0.0 0.0 / 0.0 0.0 / 0.0 0.0 / 0.0 0.0 / 0.0 0.0
				-0.07958985 -0.09179687 0.00195313 / 0.00000000 0.00000000 -1.00000000 / 183 183 183 255 / 0.0 0.0 0.0 0.0 / 0.00000000 0.22805790 / 0.0 0.0 / 0.0 0.0 / 0.0 0.0 / 0.0 0.0 / 0.0 0.0
				-0.07958985 0.09228516 0.00195313 / 0.00000000 0.00000000 -1.00000000 / 183 183 183 255 / 0.0 0.0 0.0 0.0 / 0.00000000 0.77194220 / 0.0 0.0 / 0.0 0.0 / 0.0 0.0 / 0.0 0.0 / 0.0 0.0
				0.08007813 0.09228516 0.00195313 / 0.00000000 0.00000000 -1.00000000 / 183 183 183 255 / 0.0 0.0 0.0 0.0 / 1.00000000 0.77194220 / 0.0 0.0 / 0.0 0.0 / 0.0 0.0 / 0.0 0.0 / 0.0 0.0
				-0.07324219 0.12207030 0.00195313 / 0.00000000 0.00000000 -1.00000000 / 183 183 183 255 / 0.0 0.0 0.0 0.0 / 0.03971863 0.86067200 / 0.0 0.0 / 0.0 0.0 / 0.0 0.0 / 0.0 0.0 / 0.0 0.0
				-0.05615234 0.14648440 0.00195313 / 0.00000000 0.00000000 -1.00000000 / 183 183 183 255 / 0.0 0.0 0.0 0.0 / 0.14756770 0.93316650 / 0.0 0.0 / 0.0 0.0 / 0.0 0.0 / 0.0 0.0 / 0.0 0.0
				-0.03076172 0.16308590 0.00195313 / 0.00000000 0.00000000 -1.00000000 / 183 183 183 255 / 0.0 0.0 0.0 0.0 / 0.30664060 0.98205570 / 0.0 0.0 / 0.0 0.0 / 0.0 0.0 / 0.0 0.0 / 0.0 0.0
				0.00000000 0.16943360 0.00195313 / 0.00000000 0.00000000 -1.00000000 / 183 183 183 255 / 0.0 0.0 0.0 0.0 / 0.50000000 1.00000000 / 0.0 0.0 / 0.0 0.0 / 0.0 0.0 / 0.0 0.0 / 0.0 0.0
				0.03125000 0.16308590 0.00195313 / 0.00000000 0.00000000 -1.00000000 / 183 183 183 255 / 0.0 0.0 0.0 0.0 / 0.69335940 0.98205570 / 0.0 0.0 / 0.0 0.0 / 0.0 0.0 / 0.0 0.0 / 0.0 0.0
				0.05664062 0.14648440 0.00195313 / 0.00000000 0.00000000 -1.00000000 / 183 183 183 255 / 0.0 0.0 0.0 0.0 / 0.85243230 0.93316650 / 0.0 0.0 / 0.0 0.0 / 0.0 0.0 / 0.0 0.0 / 0.0 0.0
				0.07373047 0.12207030 0.00195313 / 0.00000000 0.00000000 -1.00000000 / 183 183 183 255 / 0.0 0.0 0.0 0.0 / 0.96028140 0.86067200 / 0.0 0.0 / 0.0 0.0 / 0.0 0.0 / 0.0 0.0 / 0.0 0.0
			}
		}
	}
	Mtl 1
	{
		Prim 0
		{
			Idx 396
			{
				0 1 2 2 1 3 2 4 0 5 0 4 3 6 2
				4 7 5 8 5 7 9 6 3 3 10 9 7 11 8
				12 8 11 13 9 10 10 14 13 15 6 9 2 6 15
				16 9 13 9 16 15 17 13 14 14 18 17 13 19 16
				19 13 17 20 15 16 21 17 18 18 22 21 17 23 19
				21 23 17 24 16 19 16 24 20 25 19 23 19 25 24
				23 26 25 21 26 23 27 24 25 28 25 26 25 28 27
				26 29 28 21 29 26 24 27 30 30 20 24 31 27 28
				32 28 29 28 32 31 29 33 32 21 33 29 27 31 34
				34 30 27 21 35 33 36 32 33 33 35 36 21 37 35
				37 21 22 22 38 37 35 37 39 39 37 38 39 36 35
				38 40 39 41 39 40 36 39 41 40 42 41 32 36 43
				41 43 36 43 31 32 44 41 42 43 41 44 42 45 44
				31 43 46 44 46 43 46 34 31 47 44 45 45 48 47
				49 46 44 44 47 49 50 47 48 49 47 50 48 51 50
				46 49 52 52 34 46 50 53 49 52 49 53 54 50 51
				53 50 54 51 55 54 34 52 56 56 30 34 57 54 55
				55 58 57 54 59 53 59 54 57 53 60 52 60 53 59
				56 52 60 57 61 59 59 62 60 62 59 61 60 63 56
				63 60 62 30 56 64 64 56 63 64 20 30 62 65 63
				20 64 66 66 15 20 15 66 2 63 67 64 66 64 67
				67 63 65 2 66 68 67 68 66 68 4 2 68 67 69
				65 69 67 4 68 70 69 70 68 70 7 4 69 65 71
				7 70 72 72 11 7 70 69 73 73 72 70 71 73 69
				11 72 74 72 73 74 73 71 74 11 74 12 58 12 74
				74 57 58 61 57 74 71 75 74 75 61 74 75 71 65
				61 75 62 65 62 75
			}
			Verts 76
			{
				-0.0649414 -0.1104004 0.0046387 / -0.9418299 -0.33609 0 / 244 251 255 255 / 0 0 0 0 / 0.0955353 0.1356201 / 0 0 / 0 0 / 0 0 / 0 0 / 0 0
				-0.070044 -0.0862793 0.0046387 / -0.9997253 -0.0234368 0 / 244 251 255 255 / 0 0 0 0 / 0.0345001 0.2315369 / 0 0 / 0 0 / 0 0 / 0 0 / 0 0
				-0.070044 -0.0862793 -0.0180908 / -0.9868518 -0.0234329 -0.1599203 / 244 251 255 255 / 0 0 0 0 / 0.1365204 0.2497101 / 0 0 / 0 0 / 0 0 / 0 0 / 0 0
				-0.070044 0.0867432 0.0046387 / -0.9997252 0.023439 0 / 244 251 255 255 / 0 0 0 0 / 0.0345001 0.7398072 / 0 0 / 0 0 / 0 0 / 0 0 / 0 0
				-0.0649414 -0.1104004 -0.0180908 / -0.8833578 -0.4494664 -0.1328871 / 244 251 255 255 / 0 0 0 0 / 0.1759949 0.1628113 / 0 0 / 0 0 / 0 0 / 0 0 / 0 0
				-0.0496338 -0.132666 0.0046387 / -0.7469803 -0.6648462 0 / 244 251 255 255 / 0 0 0 0 / 0.2018738 0.056488 / 0 0 / 0 0 / 0 0 / 0 0 / 0 0
				-0.070044 0.0867432 -0.0180908 / -0.9868515 0.0234039 -0.1599256 / 244 251 255 255 / 0 0 0 0 / 0.1195984 0.7257538 / 0 0 / 0 0 / 0 0 / 0 0 / 0 0
				-0.0496338 -0.132666 -0.0180908 / -0.6602063 -0.7461507 -0.0859473 / 244 251 255 255 / 0 0 0 0 / 0.2660065 0.0973206 / 0 0 / 0 0 / 0 0 / 0 0 / 0 0
				-0.0273682 -0.1475097 0.0046387 / -0.4409429 -0.8975352 0 / 244 251 255 255 / 0 0 0 0 / 0.3414307 0.0063782 / 0 0 / 0 0 / 0 0 / 0 0 / 0 0
				-0.0649414 0.1108642 -0.0180908 / -0.9317828 0.3314157 -0.1481369 / 244 251 255 255 / 0 0 0 0 / 0.1552887 0.8026123 / 0 0 / 0 0 / 0 0 / 0 0 / 0 0
				-0.0649414 0.1108642 0.0046387 / -0.8888762 0.4581475 0 / 244 251 255 255 / 0 0 0 0 / 0.0955353 0.8357239 / 0 0 / 0 0 / 0 0 / 0 0 / 0 0
				-0.0273682 -0.1475097 -0.0180908 / -0.3359738 -0.9414741 -0.0273534 / 244 251 255 255 / 0 0 0 0 / 0.3797912 0.0569763 / 0 0 / 0 0 / 0 0 / 0 0 / 0 0
				0 -0.1530762 0.0046387 / -0.0664901 -0.9977871 0 / 244 251 255 255 / 0 0 0 0 / 0.5 -0.0103912 / 0 0 / 0 0 / 0 0 / 0 0 / 0 0
				-0.0496338 0.1331299 -0.0180908 / -0.7463502 0.6564993 -0.1094083 / 244 251 255 255 / 0 0 0 0 / 0.2398682 0.8729248 / 0 0 / 0 0 / 0 0 / 0 0 / 0 0
				-0.0496338 0.1331299 0.0046387 / -0.6565845 0.7542526 0 / 244 251 255 255 / 0 0 0 0 / 0.2018738 0.9148559 / 0 0 / 0 0 / 0 0 / 0 0 / 0 0
				-0.0603027 0.0867432 -0.0528809 / -0.9062951 0.0234941 -0.4219919 / 244 251 255 255 / 0 0 0 0 / 0.2533722 0.7131043 / 0 0 / 0 0 / 0 0 / 0 0 / 0 0
				-0.0561279 0.1108642 -0.0505615 / -0.7881399 0.3901821 -0.4760184 / 244 251 255 255 / 0 0 0 0 / 0.268692 0.7780609 / 0 0 / 0 0 / 0 0 / 0 0 / 0 0
				-0.0273682 0.1479736 -0.0180908 / -0.4496291 0.8914887 -0.0555105 / 244 251 255 255 / 0 0 0 0 / 0.3558197 0.9180908 / 0 0 / 0 0 / 0 0 / 0 0 / 0 0
				-0.0273682 0.1479736 0.0046387 / -0.3197628 0.9474975 0 / 244 251 255 255 / 0 0 0 0 / 0.3414307 0.9649811 / 0 0 / 0 0 / 0 0 / 0 0 / 0 0
				-0.0431397 0.1331299 -0.0426758 / -0.6046635 0.6943979 -0.3901199 / 244 251 255 255 / 0 0 0 0 / 0.3163757 0.8414307 / 0 0 / 0 0 / 0 0 / 0 0 / 0 0
				-0.03479 0.0867432 -0.0783936 / -0.5750864 0.0235231 -0.8177543 / 244 251 255 255 / 0 0 0 0 / 0.3737183 0.7071381 / 0 0 / 0 0 / 0 0 / 0 0 / 0 0
				0 0.15354 -0.0180908 / -0.0312648 0.9967483 -0.0742649 / 244 251 255 255 / 0 0 0 0 / 0.4903565 0.9345398 / 0 0 / 0 0 / 0 0 / 0 0 / 0 0
				0 0.15354 0.0046387 / 0.0664901 0.9977871 0 / 244 251 255 255 / 0 0 0 0 / 0.5 0.9817352 / 0 0 / 0 0 / 0 0 / 0 0 / 0 0
				-0.0236572 0.1479736 -0.031543 / -0.3554657 0.898438 -0.2577856 / 244 251 255 255 / 0 0 0 0 / 0.3903046 0.8960876 / 0 0 / 0 0 / 0 0 / 0 0 / 0 0
				-0.0324707 0.1108642 -0.0742188 / -0.4456715 0.3909323 -0.8053254 / 244 251 255 255 / 0 0 0 0 / 0.3756256 0.7597961 / 0 0 / 0 0 / 0 0 / 0 0 / 0 0
				-0.024585 0.1331299 -0.0612305 / -0.3278682 0.6947832 -0.6401396 / 244 251 255 255 / 0 0 0 0 / 0.3964234 0.8192597 / 0 0 / 0 0 / 0 0 / 0 0 / 0 0
				-0.0134522 0.1479736 -0.041748 / -0.1795679 0.8978271 -0.402072 / 244 251 255 255 / 0 0 0 0 / 0.4360809 0.8795166 / 0 0 / 0 0 / 0 0 / 0 0 / 0 0
				0 0.1108642 -0.0830322 / 0.0156189 0.3901102 -0.9206358 / 244 251 255 255 / 0 0 0 0 / 0.4874115 0.7515869 / 0 0 / 0 0 / 0 0 / 0 0 / 0 0
				0 0.1331299 -0.0677246 / 0.0351168 0.6948606 -0.7182866 / 244 251 255 255 / 0 0 0 0 / 0.4846496 0.8081971 / 0 0 / 0 0 / 0 0 / 0 0 / 0 0
				0 0.1479736 -0.045459 / 0.0468596 0.8980775 -0.4373339 / 244 251 255 255 / 0 0 0 0 / 0.4891358 0.8707275 / 0 0 / 0 0 / 0 0 / 0 0 / 0 0
				0 0.0867432 -0.0881348 / -0.0897511 0.0234707 -0.9956877 / 244 251 255 255 / 0 0 0 0 / 0.4945679 0.7057648 / 0 0 / 0 0 / 0 0 / 0 0 / 0 0
				0.0324707 0.1108642 -0.0742188 / 0.4760081 0.3901739 -0.7881501 / 244 251 255 255 / 0 0 0 0 / 0.6031952 0.754425 / 0 0 / 0 0 / 0 0 / 0 0 / 0 0
				0.0250488 0.1331299 -0.0612305 / 0.3901165 0.6943932 -0.6046711 / 244 251 255 255 / 0 0 0 0 / 0.5768127 0.8105316 / 0 0 / 0 0 / 0 0 / 0 0 / 0 0
				0.013916 0.1479736 -0.041748 / 0.2578139 0.8984317 -0.3554609 / 244 251 255 255 / 0 0 0 0 / 0.5441589 0.871994 / 0 0 / 0 0 / 0 0 / 0 0 / 0 0
				0.0352539 0.0867432 -0.0783936 / 0.4219832 0.0235122 -0.9062987 / 244 251 255 255 / 0 0 0 0 / 0.6196594 0.7088013 / 0 0 / 0 0 / 0 0 / 0 0 / 0 0
				0.0236572 0.1479736 -0.031543 / 0.402054 0.8978336 -0.1795759 / 244 251 255 255 / 0 0 0 0 / 0.5927887 0.8857422 / 0 0 / 0 0 / 0 0 / 0 0 / 0 0
				0.0431397 0.1331299 -0.0426758 / 0.640126 0.6947871 -0.3278866 / 244 251 255 255 / 0 0 0 0 / 0.6654205 0.8303833 / 0 0 / 0 0 / 0 0 / 0 0 / 0 0
				0.0273682 0.1479736 -0.0180908 / 0.3359672 0.9414766 -0.0273466 / 244 251 255 255 / 0 0 0 0 / 0.6209259 0.9146576 / 0 0 / 0 0 / 0 0 / 0 0 / 0 0
				0.0273682 0.1479736 0.0046387 / 0.4409227 0.8975451 0 / 244 251 255 255 / 0 0 0 0 / 0.6585693 0.9649811 / 0 0 / 0 0 / 0 0 / 0 0 / 0 0
				0.0500977 0.1331299 -0.0180908 / 0.6602061 0.7461507 -0.0859479 / 244 251 255 255 / 0 0 0 0 / 0.7350464 0.8760834 / 0 0 / 0 0 / 0 0 / 0 0 / 0 0
				0.0500977 0.1331299 0.0046387 / 0.7469789 0.6648477 0 / 244 251 255 255 / 0 0 0 0 / 0.7981262 0.9148559 / 0 0 / 0 0 / 0 0 / 0 0 / 0 0
				0.0649414 0.1108642 -0.0180908 / 0.883351 0.4494778 -0.1328936 / 244 251 255 255 / 0 0 0 0 / 0.8274841 0.8135223 / 0 0 / 0 0 / 0 0 / 0 0 / 0 0
				0.0649414 0.1108642 0.0046387 / 0.9418331 0.3360811 0 / 244 251 255 255 / 0 0 0 0 / 0.9044647 0.8357239 / 0 0 / 0 0 / 0 0 / 0 0 / 0 0
				0.0565918 0.1108642 -0.0505615 / 0.8053216 0.3909197 -0.4456893 / 244 251 255 255 / 0 0 0 0 / 0.7189636 0.7714538 / 0 0 / 0 0 / 0 0 / 0 0 / 0 0
				0.070044 0.0867432 -0.0180908 / 0.9809964 0.0313127 -0.191483 / 244 251 255 255 / 0 0 0 0 / 0.8750763 0.7344971 / 0 0 / 0 0 / 0 0 / 0 0 / 0 0
				0.070044 0.0867432 0.0046387 / 0.999931 0.0117509 0 / 244 251 255 255 / 0 0 0 0 / 0.9654999 0.7398072 / 0 0 / 0 0 / 0 0 / 0 0 / 0 0
				0.0607666 0.0867432 -0.0528809 / 0.8177468 0.0235292 -0.575097 / 244 251 255 255 / 0 0 0 0 / 0.7475586 0.7171325 / 0 0 / 0 0 / 0 0 / 0 0 / 0 0
				0.070044 -0.0862793 -0.0180908 / 0.9924431 -0.0195601 -0.1211368 / 244 251 255 255 / 0 0 0 0 / 0.9177551 0.2604675 / 0 0 / 0 0 / 0 0 / 0 0 / 0 0
				0.070044 -0.0862793 0.0046387 / 0.9989024 -0.0468404 0 / 244 251 255 255 / 0 0 0 0 / 0.9654999 0.2315369 / 0 0 / 0 0 / 0 0 / 0 0 / 0 0
				0.0607666 -0.0862793 -0.0528809 / 0.9063171 -0.0234855 -0.4219451 / 244 251 255 255 / 0 0 0 0 / 0.770813 0.2662506 / 0 0 / 0 0 / 0 0 / 0 0 / 0 0
				0.0649414 -0.1104004 -0.0180908 / 0.9317815 -0.3314243 -0.1481257 / 244 251 255 255 / 0 0 0 0 / 0.8576813 0.1741486 / 0 0 / 0 0 / 0 0 / 0 0 / 0 0
				0.0649414 -0.1104004 0.0046387 / 0.8888894 -0.4581218 0 / 244 251 255 255 / 0 0 0 0 / 0.9044647 0.1356201 / 0 0 / 0 0 / 0 0 / 0 0 / 0 0
				0.0352539 -0.0862793 -0.0783936 / 0.5750843 -0.0235472 -0.8177552 / 244 251 255 255 / 0 0 0 0 / 0.6407623 0.2672577 / 0 0 / 0 0 / 0 0 / 0 0 / 0 0
				0.0565918 -0.1104004 -0.0505615 / 0.7896225 -0.3908853 -0.4729744 / 244 251 255 255 / 0 0 0 0 / 0.7438202 0.1989441 / 0 0 / 0 0 / 0 0 / 0 0 / 0 0
				0.0500977 -0.132666 -0.0180908 / 0.7463659 -0.656481 -0.1094101 / 244 251 255 255 / 0 0 0 0 / 0.766037 0.1018372 / 0 0 / 0 0 / 0 0 / 0 0 / 0 0
				0.0500977 -0.132666 0.0046387 / 0.6565906 -0.7542472 0 / 244 251 255 255 / 0 0 0 0 / 0.7981262 0.056488 / 0 0 / 0 0 / 0 0 / 0 0 / 0 0
				0 -0.0862793 -0.0881348 / 0.0897453 -0.0235007 -0.9956875 / 244 251 255 255 / 0 0 0 0 / 0.5128937 0.265976 / 0 0 / 0 0 / 0 0 / 0 0 / 0 0
				0.0273682 -0.1475097 -0.0180908 / 0.4496417 -0.8915297 -0.0547464 / 244 251 255 255 / 0 0 0 0 / 0.6486816 0.0548859 / 0 0 / 0 0 / 0 0 / 0 0 / 0 0
				0.0273682 -0.1475097 0.0046387 / 0.3197291 -0.9475089 0 / 244 251 255 255 / 0 0 0 0 / 0.6585693 0.0063782 / 0 0 / 0 0 / 0 0 / 0 0 / 0 0
				0.0431397 -0.132666 -0.0426758 / 0.6046715 -0.6943984 -0.3901066 / 244 251 255 255 / 0 0 0 0 / 0.6911011 0.1336212 / 0 0 / 0 0 / 0 0 / 0 0 / 0 0
				0.0324707 -0.1104004 -0.0742188 / 0.4456857 -0.3909189 -0.8053241 / 244 251 255 255 / 0 0 0 0 / 0.6309051 0.2133179 / 0 0 / 0 0 / 0 0 / 0 0 / 0 0
				0.0236572 -0.1475097 -0.031543 / 0.3554616 -0.8984346 -0.2578029 / 244 251 255 255 / 0 0 0 0 / 0.617157 0.076416 / 0 0 / 0 0 / 0 0 / 0 0 / 0 0
				0.0250488 -0.132666 -0.0612305 / 0.3278876 -0.6947801 -0.6401329 / 244 251 255 255 / 0 0 0 0 / 0.6071472 0.1527557 / 0 0 / 0 0 / 0 0 / 0 0 / 0 0
				0 -0.1104004 -0.0830322 / -0.01558 -0.3900833 -0.9206477 / 244 251 255 255 / 0 0 0 0 / 0.5161743 0.2188568 / 0 0 / 0 0 / 0 0 / 0 0 / 0 0
				-0.03479 -0.0862793 -0.0783936 / -0.4219763 -0.0235152 -0.9063018 / 244 251 255 255 / 0 0 0 0 / 0.3847351 0.2636871 / 0 0 / 0 0 / 0 0 / 0 0 / 0 0
				0 -0.132666 -0.0677246 / -0.0350984 -0.6948671 -0.7182812 / 244 251 255 255 / 0 0 0 0 / 0.5177612 0.1612549 / 0 0 / 0 0 / 0 0 / 0 0 / 0 0
				-0.0603027 -0.0862793 -0.0528809 / -0.817748 -0.0235353 -0.5750949 / 244 251 255 255 / 0 0 0 0 / 0.2572021 0.2596741 / 0 0 / 0 0 / 0 0 / 0 0 / 0 0
				-0.0324707 -0.1104004 -0.0742188 / -0.4729867 -0.3909026 -0.7896067 / 244 251 255 255 / 0 0 0 0 / 0.4008942 0.2166595 / 0 0 / 0 0 / 0 0 / 0 0 / 0 0
				-0.0561279 -0.1104004 -0.0505615 / -0.8053248 -0.390933 -0.4456718 / 244 251 255 255 / 0 0 0 0 / 0.2868195 0.203598 / 0 0 / 0 0 / 0 0 / 0 0 / 0 0
				-0.024585 -0.132666 -0.0612305 / -0.3901206 -0.6943966 -0.6046645 / 244 251 255 255 / 0 0 0 0 / 0.4267273 0.1593475 / 0 0 / 0 0 / 0 0 / 0 0 / 0 0
				-0.0431397 -0.132666 -0.0426758 / -0.6401395 -0.6947834 -0.327868 / 244 251 255 255 / 0 0 0 0 / 0.3381348 0.1422119 / 0 0 / 0 0 / 0 0 / 0 0 / 0 0
				0 -0.1475097 -0.045459 / -0.0468554 -0.8980821 -0.4373246 / 244 251 255 255 / 0 0 0 0 / 0.5137329 0.0983276 / 0 0 / 0 0 / 0 0 / 0 0 / 0 0
				-0.0236572 -0.1475097 -0.031543 / -0.4023295 -0.898457 -0.1758007 / 244 251 255 255 / 0 0 0 0 / 0.4085693 0.0847931 / 0 0 / 0 0 / 0 0 / 0 0 / 0 0
				-0.0134522 -0.1475097 -0.041748 / -0.2577861 -0.8984381 -0.355465 / 244 251 255 255 / 0 0 0 0 / 0.4577789 0.0971069 / 0 0 / 0 0 / 0 0 / 0 0 / 0 0
				0 -0.1530762 -0.0180908 / 0.0312707 -0.9967483 -0.0742636 / 244 251 255 255 / 0 0 0 0 / 0.5121307 0.0357666 / 0 0 / 0 0 / 0 0 / 0 0 / 0 0
				0.013916 -0.1475097 -0.041748 / 0.1757861 -0.8984549 -0.4023409 / 244 251 255 255 / 0 0 0 0 / 0.5690155 0.0910645 / 0 0 / 0 0 / 0 0 / 0 0 / 0 0
			}
		}
	}
	Mtl 2
	{
		Prim 0
		{
			Idx 396
			{
				0 1 2 2 1 3 2 4 0 5 0 4 3 6 2
				4 7 5 8 5 7 9 6 3 3 10 9 7 11 8
				12 8 11 13 9 10 10 14 13 15 6 9 2 6 15
				16 9 13 9 16 15 17 13 14 14 18 17 13 19 16
				19 13 17 20 15 16 21 17 18 18 22 21 17 23 19
				21 23 17 24 16 19 16 24 20 25 19 23 19 25 24
				23 26 25 21 26 23 27 24 25 28 25 26 25 28 27
				26 29 28 21 29 26 24 27 30 30 20 24 31 27 28
				32 28 29 28 32 31 29 33 32 21 33 29 27 31 34
				34 30 27 21 35 33 36 32 33 33 35 36 21 37 35
				37 21 22 22 38 37 35 37 39 39 37 38 39 36 35
				38 40 39 41 39 40 36 39 41 40 42 41 32 36 43
				41 43 36 43 31 32 44 41 42 43 41 44 42 45 44
				31 43 46 44 46 43 46 34 31 47 44 45 45 48 47
				49 46 44 44 47 49 50 47 48 49 47 50 48 51 50
				46 49 52 52 34 46 50 53 49 52 49 53 54 50 51
				53 50 54 51 55 54 34 52 56 56 30 34 57 54 55
				55 58 57 54 59 53 59 54 57 53 60 52 60 53 59
				56 52 60 57 61 59 59 62 60 62 59 61 60 63 56
				63 60 62 30 56 64 64 56 63 64 20 30 62 65 63
				20 64 66 66 15 20 15 66 2 63 67 64 66 64 67
				67 63 65 2 66 68 67 68 66 68 4 2 68 67 69
				65 69 67 4 68 70 69 70 68 70 7 4 69 65 71
				7 70 72 72 11 7 70 69 73 73 72 70 71 73 69
				11 72 74 72 73 74 73 71 74 11 74 12 58 12 74
				74 57 58 61 57 74 71 75 74 75 61 74 75 71 65
				61 75 62 65 62 75
			}
			Verts 76
			{
				-0.06835937 -0.11621090 0.00488281 / -0.94140630 -0.33593750 0.00000000 / 244 251 255 127 / 0.0 0.0 0.0 0.0 / 0.09553528 0.13562010 / 0.0 0.0 / 0.0 0.0 / 0.0 0.0 / 0.0 0.0 / 0.0 0.0
				-0.07373047 -0.09082031 0.00488281 / -1.00000000 -0.02343750 0.00000000 / 244 251 255 127 / 0.0 0.0 0.0 0.0 / 0.03450012 0.23153690 / 0.0 0.0 / 0.0 0.0 / 0.0 0.0 / 0.0 0.0 / 0.0 0.0
				-0.07373047 -0.09082031 -0.01904297 / -0.98828130 -0.02343750 -0.16015630 / 244 251 255 127 / 0.0 0.0 0.0 0.0 / 0.13652040 0.24971010 / 0.0 0.0 / 0.0 0.0 / 0.0 0.0 / 0.0 0.0 / 0.0 0.0
				-0.07373047 0.09130859 0.00488281 / -1.00000000 0.02343750 0.00000000 / 244 251 255 127 / 0.0 0.0 0.0 0.0 / 0.03450012 0.73980720 / 0.0 0.0 / 0.0 0.0 / 0.0 0.0 / 0.0 0.0 / 0.0 0.0
				-0.06835937 -0.11621090 -0.01904297 / -0.88281250 -0.44921870 -0.13281250 / 244 251 255 127 / 0.0 0.0 0.0 0.0 / 0.17599490 0.16281130 / 0.0 0.0 / 0.0 0.0 / 0.0 0.0 / 0.0 0.0 / 0.0 0.0
				-0.05224610 -0.13964840 0.00488281 / -0.74609370 -0.66406250 0.00000000 / 244 251 255 127 / 0.0 0.0 0.0 0.0 / 0.20187380 0.05648804 / 0.0 0.0 / 0.0 0.0 / 0.0 0.0 / 0.0 0.0 / 0.0 0.0
				-0.07373047 0.09130859 -0.01904297 / -0.98828130 0.02343750 -0.16015630 / 244 251 255 127 / 0.0 0.0 0.0 0.0 / 0.11959840 0.72575380 / 0.0 0.0 / 0.0 0.0 / 0.0 0.0 / 0.0 0.0 / 0.0 0.0
				-0.05224610 -0.13964840 -0.01904297 / -0.66015630 -0.74609370 -0.08593750 / 244 251 255 127 / 0.0 0.0 0.0 0.0 / 0.26600650 0.09732056 / 0.0 0.0 / 0.0 0.0 / 0.0 0.0 / 0.0 0.0 / 0.0 0.0
				-0.02880859 -0.15527340 0.00488281 / -0.44140630 -0.89843750 0.00000000 / 244 251 255 127 / 0.0 0.0 0.0 0.0 / 0.34143070 0.00637817 / 0.0 0.0 / 0.0 0.0 / 0.0 0.0 / 0.0 0.0 / 0.0 0.0
				-0.06835937 0.11669920 -0.01904297 / -0.93359370 0.33203120 -0.14843750 / 244 251 255 127 / 0.0 0.0 0.0 0.0 / 0.15528870 0.80261230 / 0.0 0.0 / 0.0 0.0 / 0.0 0.0 / 0.0 0.0 / 0.0 0.0
				-0.06835937 0.11669920 0.00488281 / -0.88671870 0.45703120 0.00000000 / 244 251 255 127 / 0.0 0.0 0.0 0.0 / 0.09553528 0.83572390 / 0.0 0.0 / 0.0 0.0 / 0.0 0.0 / 0.0 0.0 / 0.0 0.0
				-0.02880859 -0.15527340 -0.01904297 / -0.33593750 -0.94140630 -0.02734375 / 244 251 255 127 / 0.0 0.0 0.0 0.0 / 0.37979120 0.05697632 / 0.0 0.0 / 0.0 0.0 / 0.0 0.0 / 0.0 0.0 / 0.0 0.0
				0.00000000 -0.16113280 0.00488281 / -0.06640625 -0.99609380 0.00000000 / 244 251 255 127 / 0.0 0.0 0.0 0.0 / 0.50000000 -0.01039124 / 0.0 0.0 / 0.0 0.0 / 0.0 0.0 / 0.0 0.0 / 0.0 0.0
				-0.05224610 0.14013670 -0.01904297 / -0.74609370 0.65625000 -0.10937500 / 244 251 255 127 / 0.0 0.0 0.0 0.0 / 0.23986820 0.87292480 / 0.0 0.0 / 0.0 0.0 / 0.0 0.0 / 0.0 0.0 / 0.0 0.0
				-0.05224610 0.14013670 0.00488281 / -0.65625000 0.75390630 0.00000000 / 244 251 255 127 / 0.0 0.0 0.0 0.0 / 0.20187380 0.91485590 / 0.0 0.0 / 0.0 0.0 / 0.0 0.0 / 0.0 0.0 / 0.0 0.0
				-0.06347657 0.09130859 -0.05566406 / -0.90625000 0.02343750 -0.42187500 / 244 251 255 127 / 0.0 0.0 0.0 0.0 / 0.25337220 0.71310430 / 0.0 0.0 / 0.0 0.0 / 0.0 0.0 / 0.0 0.0 / 0.0 0.0
				-0.05908203 0.11669920 -0.05322266 / -0.78906250 0.39062500 -0.47656250 / 244 251 255 127 / 0.0 0.0 0.0 0.0 / 0.26869200 0.77806090 / 0.0 0.0 / 0.0 0.0 / 0.0 0.0 / 0.0 0.0 / 0.0 0.0
				-0.02880859 0.15576170 -0.01904297 / -0.44921870 0.89062500 -0.05468750 / 244 251 255 127 / 0.0 0.0 0.0 0.0 / 0.35581970 0.91809080 / 0.0 0.0 / 0.0 0.0 / 0.0 0.0 / 0.0 0.0 / 0.0 0.0
				-0.02880859 0.15576170 0.00488281 / -0.32031250 0.94921880 0.00000000 / 244 251 255 127 / 0.0 0.0 0.0 0.0 / 0.34143070 0.96498110 / 0.0 0.0 / 0.0 0.0 / 0.0 0.0 / 0.0 0.0 / 0.0 0.0
				-0.04541016 0.14013670 -0.04492187 / -0.60546880 0.69531250 -0.39062500 / 244 251 255 127 / 0.0 0.0 0.0 0.0 / 0.31637570 0.84143070 / 0.0 0.0 / 0.0 0.0 / 0.0 0.0 / 0.0 0.0 / 0.0 0.0
				-0.03662109 0.09130859 -0.08251953 / -0.57421870 0.02343750 -0.81640630 / 244 251 255 127 / 0.0 0.0 0.0 0.0 / 0.37371830 0.70713810 / 0.0 0.0 / 0.0 0.0 / 0.0 0.0 / 0.0 0.0 / 0.0 0.0
				0.00000000 0.16162110 -0.01904297 / -0.03125000 0.99609380 -0.07421875 / 244 251 255 127 / 0.0 0.0 0.0 0.0 / 0.49035650 0.93453980 / 0.0 0.0 / 0.0 0.0 / 0.0 0.0 / 0.0 0.0 / 0.0 0.0
				0.00000000 0.16162110 0.00488281 / 0.06640625 0.99609380 0.00000000 / 244 251 255 127 / 0.0 0.0 0.0 0.0 / 0.50000000 0.98173520 / 0.0 0.0 / 0.0 0.0 / 0.0 0.0 / 0.0 0.0 / 0.0 0.0
				-0.02490234 0.15576170 -0.03320312 / -0.35546870 0.89843750 -0.25781250 / 244 251 255 127 / 0.0 0.0 0.0 0.0 / 0.39030460 0.89608760 / 0.0 0.0 / 0.0 0.0 / 0.0 0.0 / 0.0 0.0 / 0.0 0.0
				-0.03417969 0.11669920 -0.07812500 / -0.44531250 0.39062500 -0.80468750 / 244 251 255 127 / 0.0 0.0 0.0 0.0 / 0.37562560 0.75979610 / 0.0 0.0 / 0.0 0.0 / 0.0 0.0 / 0.0 0.0 / 0.0 0.0
				-0.02587891 0.14013670 -0.06445312 / -0.32812500 0.69531250 -0.64062500 / 244 251 255 127 / 0.0 0.0 0.0 0.0 / 0.39642340 0.81925970 / 0.0 0.0 / 0.0 0.0 / 0.0 0.0 / 0.0 0.0 / 0.0 0.0
				-0.01416016 0.15576170 -0.04394531 / -0.17968750 0.89843750 -0.40234370 / 244 251 255 127 / 0.0 0.0 0.0 0.0 / 0.43608090 0.87951660 / 0.0 0.0 / 0.0 0.0 / 0.0 0.0 / 0.0 0.0 / 0.0 0.0
				0.00000000 0.11669920 -0.08740234 / 0.01562500 0.39062500 -0.92187500 / 244 251 255 127 / 0.0 0.0 0.0 0.0 / 0.48741150 0.75158690 / 0.0 0.0 / 0.0 0.0 / 0.0 0.0 / 0.0 0.0 / 0.0 0.0
				0.00000000 0.14013670 -0.07128906 / 0.03515625 0.69531250 -0.71875000 / 244 251 255 127 / 0.0 0.0 0.0 0.0 / 0.48464960 0.80819710 / 0.0 0.0 / 0.0 0.0 / 0.0 0.0 / 0.0 0.0 / 0.0 0.0
				0.00000000 0.15576170 -0.04785156 / 0.04687500 0.89843750 -0.43750000 / 244 251 255 127 / 0.0 0.0 0.0 0.0 / 0.48913580 0.87072750 / 0.0 0.0 / 0.0 0.0 / 0.0 0.0 / 0.0 0.0 / 0.0 0.0
				0.00000000 0.09130859 -0.09277344 / -0.08984375 0.02343750 -0.99609380 / 244 251 255 127 / 0.0 0.0 0.0 0.0 / 0.49456790 0.70576480 / 0.0 0.0 / 0.0 0.0 / 0.0 0.0 / 0.0 0.0 / 0.0 0.0
				0.03417969 0.11669920 -0.07812500 / 0.47656250 0.39062500 -0.78906250 / 244 251 255 127 / 0.0 0.0 0.0 0.0 / 0.60319520 0.75442500 / 0.0 0.0 / 0.0 0.0 / 0.0 0.0 / 0.0 0.0 / 0.0 0.0
				0.02636719 0.14013670 -0.06445312 / 0.39062500 0.69531250 -0.60546880 / 244 251 255 127 / 0.0 0.0 0.0 0.0 / 0.57681270 0.81053160 / 0.0 0.0 / 0.0 0.0 / 0.0 0.0 / 0.0 0.0 / 0.0 0.0
				0.01464844 0.15576170 -0.04394531 / 0.25781250 0.89843750 -0.35546870 / 244 251 255 127 / 0.0 0.0 0.0 0.0 / 0.54415890 0.87199400 / 0.0 0.0 / 0.0 0.0 / 0.0 0.0 / 0.0 0.0 / 0.0 0.0
				0.03710938 0.09130859 -0.08251953 / 0.42187500 0.02343750 -0.90625000 / 244 251 255 127 / 0.0 0.0 0.0 0.0 / 0.61965940 0.70880130 / 0.0 0.0 / 0.0 0.0 / 0.0 0.0 / 0.0 0.0 / 0.0 0.0
				0.02490234 0.15576170 -0.03320312 / 0.40234370 0.89843750 -0.17968750 / 244 251 255 127 / 0.0 0.0 0.0 0.0 / 0.59278870 0.88574220 / 0.0 0.0 / 0.0 0.0 / 0.0 0.0 / 0.0 0.0 / 0.0 0.0
				0.04541016 0.14013670 -0.04492187 / 0.64062500 0.69531250 -0.32812500 / 244 251 255 127 / 0.0 0.0 0.0 0.0 / 0.66542050 0.83038330 / 0.0 0.0 / 0.0 0.0 / 0.0 0.0 / 0.0 0.0 / 0.0 0.0
				0.02880859 0.15576170 -0.01904297 / 0.33593750 0.94140630 -0.02734375 / 244 251 255 127 / 0.0 0.0 0.0 0.0 / 0.62092590 0.91465760 / 0.0 0.0 / 0.0 0.0 / 0.0 0.0 / 0.0 0.0 / 0.0 0.0
				0.02880859 0.15576170 0.00488281 / 0.44140630 0.89843750 0.00000000 / 244 251 255 127 / 0.0 0.0 0.0 0.0 / 0.65856930 0.96498110 / 0.0 0.0 / 0.0 0.0 / 0.0 0.0 / 0.0 0.0 / 0.0 0.0
				0.05273437 0.14013670 -0.01904297 / 0.66015630 0.74609370 -0.08593750 / 244 251 255 127 / 0.0 0.0 0.0 0.0 / 0.73504640 0.87608340 / 0.0 0.0 / 0.0 0.0 / 0.0 0.0 / 0.0 0.0 / 0.0 0.0
				0.05273437 0.14013670 0.00488281 / 0.74609370 0.66406250 0.00000000 / 244 251 255 127 / 0.0 0.0 0.0 0.0 / 0.79812620 0.91485590 / 0.0 0.0 / 0.0 0.0 / 0.0 0.0 / 0.0 0.0 / 0.0 0.0
				0.06835937 0.11669920 -0.01904297 / 0.88281250 0.44921870 -0.13281250 / 244 251 255 127 / 0.0 0.0 0.0 0.0 / 0.82748410 0.81352230 / 0.0 0.0 / 0.0 0.0 / 0.0 0.0 / 0.0 0.0 / 0.0 0.0
				0.06835937 0.11669920 0.00488281 / 0.94140630 0.33593750 0.00000000 / 244 251 255 127 / 0.0 0.0 0.0 0.0 / 0.90446470 0.83572390 / 0.0 0.0 / 0.0 0.0 / 0.0 0.0 / 0.0 0.0 / 0.0 0.0
				0.05957031 0.11669920 -0.05322266 / 0.80468750 0.39062500 -0.44531250 / 244 251 255 127 / 0.0 0.0 0.0 0.0 / 0.71896360 0.77145380 / 0.0 0.0 / 0.0 0.0 / 0.0 0.0 / 0.0 0.0 / 0.0 0.0
				0.07373047 0.09130859 -0.01904297 / 0.98046870 0.03125000 -0.19140620 / 244 251 255 127 / 0.0 0.0 0.0 0.0 / 0.87507630 0.73449710 / 0.0 0.0 / 0.0 0.0 / 0.0 0.0 / 0.0 0.0 / 0.0 0.0
				0.07373047 0.09130859 0.00488281 / 1.00000000 0.01171875 0.00000000 / 244 251 255 127 / 0.0 0.0 0.0 0.0 / 0.96549990 0.73980720 / 0.0 0.0 / 0.0 0.0 / 0.0 0.0 / 0.0 0.0 / 0.0 0.0
				0.06396484 0.09130859 -0.05566406 / 0.81640630 0.02343750 -0.57421870 / 244 251 255 127 / 0.0 0.0 0.0 0.0 / 0.74755860 0.71713250 / 0.0 0.0 / 0.0 0.0 / 0.0 0.0 / 0.0 0.0 / 0.0 0.0
				0.07373047 -0.09082031 -0.01904297 / 0.99218750 -0.01953125 -0.12109380 / 244 251 255 127 / 0.0 0.0 0.0 0.0 / 0.91775510 0.26046750 / 0.0 0.0 / 0.0 0.0 / 0.0 0.0 / 0.0 0.0 / 0.0 0.0
				0.07373047 -0.09082031 0.00488281 / 1.00000000 -0.04687500 0.00000000 / 244 251 255 127 / 0.0 0.0 0.0 0.0 / 0.96549990 0.23153690 / 0.0 0.0 / 0.0 0.0 / 0.0 0.0 / 0.0 0.0 / 0.0 0.0
				0.06396484 -0.09082031 -0.05566406 / 0.90625000 -0.02343750 -0.42187500 / 244 251 255 127 / 0.0 0.0 0.0 0.0 / 0.77081300 0.26625060 / 0.0 0.0 / 0.0 0.0 / 0.0 0.0 / 0.0 0.0 / 0.0 0.0
				0.06835937 -0.11621090 -0.01904297 / 0.93359370 -0.33203120 -0.14843750 / 244 251 255 127 / 0.0 0.0 0.0 0.0 / 0.85768130 0.17414860 / 0.0 0.0 / 0.0 0.0 / 0.0 0.0 / 0.0 0.0 / 0.0 0.0
				0.06835937 -0.11621090 0.00488281 / 0.88671870 -0.45703120 0.00000000 / 244 251 255 127 / 0.0 0.0 0.0 0.0 / 0.90446470 0.13562010 / 0.0 0.0 / 0.0 0.0 / 0.0 0.0 / 0.0 0.0 / 0.0 0.0
				0.03710938 -0.09082031 -0.08251953 / 0.57421870 -0.02343750 -0.81640630 / 244 251 255 127 / 0.0 0.0 0.0 0.0 / 0.64076230 0.26725770 / 0.0 0.0 / 0.0 0.0 / 0.0 0.0 / 0.0 0.0 / 0.0 0.0
				0.05957031 -0.11621090 -0.05322266 / 0.78906250 -0.39062500 -0.47265620 / 244 251 255 127 / 0.0 0.0 0.0 0.0 / 0.74382020 0.19894410 / 0.0 0.0 / 0.0 0.0 / 0.0 0.0 / 0.0 0.0 / 0.0 0.0
				0.05273437 -0.13964840 -0.01904297 / 0.74609370 -0.65625000 -0.10937500 / 244 251 255 127 / 0.0 0.0 0.0 0.0 / 0.76603700 0.10183720 / 0.0 0.0 / 0.0 0.0 / 0.0 0.0 / 0.0 0.0 / 0.0 0.0
				0.05273437 -0.13964840 0.00488281 / 0.65625000 -0.75390630 0.00000000 / 244 251 255 127 / 0.0 0.0 0.0 0.0 / 0.79812620 0.05648804 / 0.0 0.0 / 0.0 0.0 / 0.0 0.0 / 0.0 0.0 / 0.0 0.0
				0.00000000 -0.09082031 -0.09277344 / 0.08984375 -0.02343750 -0.99609380 / 244 251 255 127 / 0.0 0.0 0.0 0.0 / 0.51289370 0.26597600 / 0.0 0.0 / 0.0 0.0 / 0.0 0.0 / 0.0 0.0 / 0.0 0.0
				0.02880859 -0.15527340 -0.01904297 / 0.44921870 -0.89062500 -0.05468750 / 244 251 255 127 / 0.0 0.0 0.0 0.0 / 0.64868160 0.05488586 / 0.0 0.0 / 0.0 0.0 / 0.0 0.0 / 0.0 0.0 / 0.0 0.0
				0.02880859 -0.15527340 0.00488281 / 0.32031250 -0.94921880 0.00000000 / 244 251 255 127 / 0.0 0.0 0.0 0.0 / 0.65856930 0.00637817 / 0.0 0.0 / 0.0 0.0 / 0.0 0.0 / 0.0 0.0 / 0.0 0.0
				0.04541016 -0.13964840 -0.04492187 / 0.60546880 -0.69531250 -0.39062500 / 244 251 255 127 / 0.0 0.0 0.0 0.0 / 0.69110110 0.13362120 / 0.0 0.0 / 0.0 0.0 / 0.0 0.0 / 0.0 0.0 / 0.0 0.0
				0.03417969 -0.11621090 -0.07812500 / 0.44531250 -0.39062500 -0.80468750 / 244 251 255 127 / 0.0 0.0 0.0 0.0 / 0.63090510 0.21331790 / 0.0 0.0 / 0.0 0.0 / 0.0 0.0 / 0.0 0.0 / 0.0 0.0
				0.02490234 -0.15527340 -0.03320312 / 0.35546870 -0.89843750 -0.25781250 / 244 251 255 127 / 0.0 0.0 0.0 0.0 / 0.61715700 0.07641602 / 0.0 0.0 / 0.0 0.0 / 0.0 0.0 / 0.0 0.0 / 0.0 0.0
				0.02636719 -0.13964840 -0.06445312 / 0.32812500 -0.69531250 -0.64062500 / 244 251 255 127 / 0.0 0.0 0.0 0.0 / 0.60714720 0.15275570 / 0.0 0.0 / 0.0 0.0 / 0.0 0.0 / 0.0 0.0 / 0.0 0.0
				0.00000000 -0.11621090 -0.08740234 / -0.01562500 -0.39062500 -0.92187500 / 244 251 255 127 / 0.0 0.0 0.0 0.0 / 0.51617430 0.21885680 / 0.0 0.0 / 0.0 0.0 / 0.0 0.0 / 0.0 0.0 / 0.0 0.0
				-0.03662109 -0.09082031 -0.08251953 / -0.42187500 -0.02343750 -0.90625000 / 244 251 255 127 / 0.0 0.0 0.0 0.0 / 0.38473510 0.26368710 / 0.0 0.0 / 0.0 0.0 / 0.0 0.0 / 0.0 0.0 / 0.0 0.0
				0.00000000 -0.13964840 -0.07128906 / -0.03515625 -0.69531250 -0.71875000 / 244 251 255 127 / 0.0 0.0 0.0 0.0 / 0.51776120 0.16125490 / 0.0 0.0 / 0.0 0.0 / 0.0 0.0 / 0.0 0.0 / 0.0 0.0
				-0.06347657 -0.09082031 -0.05566406 / -0.81640630 -0.02343750 -0.57421870 / 244 251 255 127 / 0.0 0.0 0.0 0.0 / 0.25720210 0.25967410 / 0.0 0.0 / 0.0 0.0 / 0.0 0.0 / 0.0 0.0 / 0.0 0.0
				-0.03417969 -0.11621090 -0.07812500 / -0.47265620 -0.39062500 -0.78906250 / 244 251 255 127 / 0.0 0.0 0.0 0.0 / 0.40089420 0.21665950 / 0.0 0.0 / 0.0 0.0 / 0.0 0.0 / 0.0 0.0 / 0.0 0.0
				-0.05908203 -0.11621090 -0.05322266 / -0.80468750 -0.39062500 -0.44531250 / 244 251 255 127 / 0.0 0.0 0.0 0.0 / 0.28681950 0.20359800 / 0.0 0.0 / 0.0 0.0 / 0.0 0.0 / 0.0 0.0 / 0.0 0.0
				-0.02587891 -0.13964840 -0.06445312 / -0.39062500 -0.69531250 -0.60546880 / 244 251 255 127 / 0.0 0.0 0.0 0.0 / 0.42672730 0.15934750 / 0.0 0.0 / 0.0 0.0 / 0.0 0.0 / 0.0 0.0 / 0.0 0.0
				-0.04541016 -0.13964840 -0.04492187 / -0.64062500 -0.69531250 -0.32812500 / 244 251 255 127 / 0.0 0.0 0.0 0.0 / 0.33813480 0.14221190 / 0.0 0.0 / 0.0 0.0 / 0.0 0.0 / 0.0 0.0 / 0.0 0.0
				0.00000000 -0.15527340 -0.04785156 / -0.04687500 -0.89843750 -0.43750000 / 244 251 255 127 / 0.0 0.0 0.0 0.0 / 0.51373290 0.09832763 / 0.0 0.0 / 0.0 0.0 / 0.0 0.0 / 0.0 0.0 / 0.0 0.0
				-0.02490234 -0.15527340 -0.03320312 / -0.40234370 -0.89843750 -0.17578120 / 244 251 255 127 / 0.0 0.0 0.0 0.0 / 0.40856930 0.08479309 / 0.0 0.0 / 0.0 0.0 / 0.0 0.0 / 0.0 0.0 / 0.0 0.0
				-0.01416016 -0.15527340 -0.04394531 / -0.25781250 -0.89843750 -0.35546870 / 244 251 255 127 / 0.0 0.0 0.0 0.0 / 0.45777890 0.09710694 / 0.0 0.0 / 0.0 0.0 / 0.0 0.0 / 0.0 0.0 / 0.0 0.0
				0.00000000 -0.16113280 -0.01904297 / 0.03125000 -0.99609380 -0.07421875 / 244 251 255 127 / 0.0 0.0 0.0 0.0 / 0.51213070 0.03576660 / 0.0 0.0 / 0.0 0.0 / 0.0 0.0 / 0.0 0.0 / 0.0 0.0
				0.01464844 -0.15527340 -0.04394531 / 0.17578120 -0.89843750 -0.40234370 / 244 251 255 127 / 0.0 0.0 0.0 0.0 / 0.56901550 0.09106445 / 0.0 0.0 / 0.0 0.0 / 0.0 0.0 / 0.0 0.0 / 0.0 0.0
			}
		}
	}
}
